M48
; DRILL file {KiCad 9.0.7-1.fc43} date 2026-04-03T17:31:43+0200
; FORMAT={-:-/ absolute / metric / decimal}
; #@! TF.CreationDate,2026-04-03T17:31:43+02:00
; #@! TF.GenerationSoftware,Kicad,Pcbnew,9.0.7-1.fc43
; #@! TF.FileFunction,Plated,1,2,PTH
FMAT,2
METRIC
; #@! TA.AperFunction,Plated,PTH,ViaDrill
T1C0.300
; #@! TA.AperFunction,Plated,PTH,ComponentDrill
T2C1.000
; #@! TA.AperFunction,Plated,PTH,ComponentDrill
T3C1.500
%
G90
G05
T1
X125.984Y-62.484
X127.254Y-79.438
X132.207Y-57.75
X136.398Y-102.108
X136.906Y-114.808
X136.969Y-57.75
X137.506Y-118.618
X138.176Y-61.214
X138.684Y-86.106
X139.192Y-61.192
X139.636Y-53.721
X139.636Y-54.292
X140.208Y-53.721
X140.208Y-54.292
X140.208Y-61.214
X141.224Y-61.214
X141.224Y-78.994
T2
X140.615Y-126.238
X140.615Y-128.778
X140.615Y-131.318
X140.615Y-137.414
X140.615Y-139.954
X140.615Y-142.494
X140.615Y-148.336
X140.615Y-150.876
X140.615Y-153.416
X140.615Y-159.512
X140.615Y-162.052
X140.615Y-164.592
T3
X114.061Y-58.931
X114.061Y-77.981
X114.061Y-97.031
X114.061Y-116.081
X114.061Y-135.131
X114.061Y-154.181
X120.411Y-61.471
X120.411Y-80.521
X120.411Y-99.571
X120.411Y-118.621
X120.411Y-137.671
X120.411Y-156.721
M30
