%TF.GenerationSoftware,KiCad,Pcbnew,9.0.7-1.fc43*%
%TF.CreationDate,2026-04-03T17:31:37+02:00*%
%TF.ProjectId,Only_ESP_PCB,4f6e6c79-5f45-4535-905f-5043422e6b69,rev?*%
%TF.SameCoordinates,Original*%
%TF.FileFunction,Copper,L2,Bot*%
%TF.FilePolarity,Positive*%
%FSLAX46Y46*%
G04 Gerber Fmt 4.6, Leading zero omitted, Abs format (unit mm)*
G04 Created by KiCad (PCBNEW 9.0.7-1.fc43) date 2026-04-03 17:31:37*
%MOMM*%
%LPD*%
G01*
G04 APERTURE LIST*
G04 Aperture macros list*
%AMRoundRect*
0 Rectangle with rounded corners*
0 $1 Rounding radius*
0 $2 $3 $4 $5 $6 $7 $8 $9 X,Y pos of 4 corners*
0 Add a 4 corners polygon primitive as box body*
4,1,4,$2,$3,$4,$5,$6,$7,$8,$9,$2,$3,0*
0 Add four circle primitives for the rounded corners*
1,1,$1+$1,$2,$3*
1,1,$1+$1,$4,$5*
1,1,$1+$1,$6,$7*
1,1,$1+$1,$8,$9*
0 Add four rect primitives between the rounded corners*
20,1,$1+$1,$2,$3,$4,$5,0*
20,1,$1+$1,$4,$5,$6,$7,0*
20,1,$1+$1,$6,$7,$8,$9,0*
20,1,$1+$1,$8,$9,$2,$3,0*%
G04 Aperture macros list end*
%TA.AperFunction,SMDPad,CuDef*%
%ADD10R,2.200000X0.900000*%
%TD*%
%TA.AperFunction,SMDPad,CuDef*%
%ADD11RoundRect,0.237500X-0.300000X-0.237500X0.300000X-0.237500X0.300000X0.237500X-0.300000X0.237500X0*%
%TD*%
%TA.AperFunction,ComponentPad*%
%ADD12C,2.200000*%
%TD*%
%TA.AperFunction,ComponentPad*%
%ADD13R,1.700000X1.700000*%
%TD*%
%TA.AperFunction,ComponentPad*%
%ADD14C,1.700000*%
%TD*%
%TA.AperFunction,ViaPad*%
%ADD15C,0.600000*%
%TD*%
%TA.AperFunction,Conductor*%
%ADD16C,0.200000*%
%TD*%
%TA.AperFunction,Conductor*%
%ADD17C,0.500000*%
%TD*%
G04 APERTURE END LIST*
D10*
%TO.P,D1,4,DIN*%
%TO.N,/LED*%
X129545000Y-63158000D03*
%TO.P,D1,3,VSS*%
%TO.N,GND*%
X129545000Y-64858000D03*
%TO.P,D1,2,DOUT*%
%TO.N,Net-(D1-DOUT)*%
X133345000Y-64858000D03*
%TO.P,D1,1,VDD*%
%TO.N,/5V*%
X133345000Y-63158000D03*
%TD*%
D11*
%TO.P,C2,1*%
%TO.N,GND*%
X130480500Y-59436000D03*
%TO.P,C2,2*%
%TO.N,/5V*%
X132205500Y-59436000D03*
%TD*%
%TO.P,C3,1*%
%TO.N,GND*%
X130390500Y-77584250D03*
%TO.P,C3,2*%
%TO.N,/5V*%
X132115500Y-77584250D03*
%TD*%
%TO.P,C4,1*%
%TO.N,GND*%
X130581000Y-96253250D03*
%TO.P,C4,2*%
%TO.N,/5V*%
X132306000Y-96253250D03*
%TD*%
%TO.P,C5,1*%
%TO.N,GND*%
X130390500Y-115684250D03*
%TO.P,C5,2*%
%TO.N,/5V*%
X132115500Y-115684250D03*
%TD*%
%TO.P,C6,1*%
%TO.N,GND*%
X130581000Y-134162750D03*
%TO.P,C6,2*%
%TO.N,/5V*%
X132306000Y-134162750D03*
%TD*%
%TO.P,C7,1*%
%TO.N,GND*%
X130390500Y-153784250D03*
%TO.P,C7,2*%
%TO.N,/5V*%
X132115500Y-153784250D03*
%TD*%
D12*
%TO.P,SW1,1,1*%
%TO.N,/3V3*%
X114061000Y-58930650D03*
%TO.P,SW1,2,2*%
%TO.N,/GPIO10*%
X120411000Y-61470650D03*
%TD*%
%TO.P,SW2,1,1*%
%TO.N,/3V3*%
X114061000Y-77980650D03*
%TO.P,SW2,2,2*%
%TO.N,/GPIO42*%
X120411000Y-80520650D03*
%TD*%
%TO.P,SW3,1,1*%
%TO.N,/3V3*%
X114061000Y-97030650D03*
%TO.P,SW3,2,2*%
%TO.N,/GPIO41*%
X120411000Y-99570650D03*
%TD*%
%TO.P,SW4,1,1*%
%TO.N,/3V3*%
X114061000Y-116080650D03*
%TO.P,SW4,2,2*%
%TO.N,/GPIO40*%
X120411000Y-118620650D03*
%TD*%
%TO.P,SW5,1,1*%
%TO.N,/3V3*%
X114061000Y-135130650D03*
%TO.P,SW5,2,2*%
%TO.N,/GPIO39*%
X120411000Y-137670650D03*
%TD*%
%TO.P,SW6,1,1*%
%TO.N,/3V3*%
X114061000Y-154180650D03*
%TO.P,SW6,2,2*%
%TO.N,/GPIO38*%
X120411000Y-156720650D03*
%TD*%
D13*
%TO.P,A3,1,Pin_1*%
%TO.N,GND*%
X140615000Y-126238000D03*
D14*
%TO.P,A3,2,Pin_2*%
%TO.N,/A3*%
X140615000Y-128778000D03*
%TO.P,A3,3,Pin_3*%
%TO.N,/3V3*%
X140615000Y-131318000D03*
%TD*%
D13*
%TO.P,A1,1,Pin_1*%
%TO.N,GND*%
X140615000Y-148336000D03*
D14*
%TO.P,A1,2,Pin_2*%
%TO.N,/A1*%
X140615000Y-150876000D03*
%TO.P,A1,3,Pin_3*%
%TO.N,/3V3*%
X140615000Y-153416000D03*
%TD*%
D13*
%TO.P,A2,1,Pin_1*%
%TO.N,GND*%
X140615000Y-137414000D03*
D14*
%TO.P,A2,2,Pin_2*%
%TO.N,/A2*%
X140615000Y-139954000D03*
%TO.P,A2,3,Pin_3*%
%TO.N,/3V3*%
X140615000Y-142494000D03*
%TD*%
D13*
%TO.P,A0,1,Pin_1*%
%TO.N,GND*%
X140615000Y-159512000D03*
D14*
%TO.P,A0,2,Pin_2*%
%TO.N,/A0*%
X140615000Y-162052000D03*
%TO.P,A0,3,Pin_3*%
%TO.N,/3V3*%
X140615000Y-164592000D03*
%TD*%
D10*
%TO.P,D6,1,VDD*%
%TO.N,/5V*%
X133154500Y-158408000D03*
%TO.P,D6,2,DOUT*%
%TO.N,unconnected-(D6-DOUT-Pad2)*%
X133154500Y-160108000D03*
%TO.P,D6,3,VSS*%
%TO.N,GND*%
X129354500Y-160108000D03*
%TO.P,D6,4,DIN*%
%TO.N,Net-(D5-DOUT)*%
X129354500Y-158408000D03*
%TD*%
%TO.P,D5,1,VDD*%
%TO.N,/5V*%
X133345000Y-139358000D03*
%TO.P,D5,2,DOUT*%
%TO.N,Net-(D5-DOUT)*%
X133345000Y-141058000D03*
%TO.P,D5,3,VSS*%
%TO.N,GND*%
X129545000Y-141058000D03*
%TO.P,D5,4,DIN*%
%TO.N,Net-(D4-DOUT)*%
X129545000Y-139358000D03*
%TD*%
%TO.P,D4,1,VDD*%
%TO.N,/5V*%
X133154500Y-120308000D03*
%TO.P,D4,2,DOUT*%
%TO.N,Net-(D4-DOUT)*%
X133154500Y-122008000D03*
%TO.P,D4,3,VSS*%
%TO.N,GND*%
X129354500Y-122008000D03*
%TO.P,D4,4,DIN*%
%TO.N,Net-(D3-DOUT)*%
X129354500Y-120308000D03*
%TD*%
%TO.P,D3,1,VDD*%
%TO.N,/5V*%
X133345000Y-101258000D03*
%TO.P,D3,2,DOUT*%
%TO.N,Net-(D3-DOUT)*%
X133345000Y-102958000D03*
%TO.P,D3,3,VSS*%
%TO.N,GND*%
X129545000Y-102958000D03*
%TO.P,D3,4,DIN*%
%TO.N,Net-(D2-DOUT)*%
X129545000Y-101258000D03*
%TD*%
%TO.P,D2,1,VDD*%
%TO.N,/5V*%
X133154500Y-82208000D03*
%TO.P,D2,2,DOUT*%
%TO.N,Net-(D2-DOUT)*%
X133154500Y-83908000D03*
%TO.P,D2,3,VSS*%
%TO.N,GND*%
X129354500Y-83908000D03*
%TO.P,D2,4,DIN*%
%TO.N,Net-(D1-DOUT)*%
X129354500Y-82208000D03*
%TD*%
D15*
%TO.N,GND*%
X140208000Y-54292500D03*
X139636500Y-54292500D03*
X139636500Y-53721000D03*
X140208000Y-53721000D03*
%TO.N,/5V*%
X132207000Y-57750000D03*
%TO.N,/LED*%
X127254000Y-79438500D03*
%TO.N,/3V3*%
X136906000Y-114808000D03*
X138684000Y-86106000D03*
%TO.N,/5V*%
X136969500Y-57750000D03*
X141224000Y-78994000D03*
X137506000Y-118618000D03*
%TO.N,/A0*%
X141224000Y-61214000D03*
%TO.N,/A1*%
X140208000Y-61214000D03*
%TO.N,/A2*%
X139192000Y-61192227D03*
%TO.N,/A3*%
X138176000Y-61214000D03*
%TO.N,/TX*%
X136398000Y-102108000D03*
X125984000Y-62484000D03*
%TD*%
D16*
%TO.N,/LED*%
X127254000Y-79438500D02*
X126682500Y-78867000D01*
X126682500Y-78867000D02*
X126682500Y-60023366D01*
X126682500Y-60023366D02*
X129950866Y-56755000D01*
X129950866Y-56755000D02*
X131010134Y-56755000D01*
X131010134Y-56755000D02*
X131367000Y-57111866D01*
X131367000Y-57111866D02*
X131367000Y-61336000D01*
X131367000Y-61336000D02*
X129776931Y-62926069D01*
%TO.N,Net-(D5-DOUT)*%
X133345000Y-141058000D02*
X131277000Y-143126000D01*
X131277000Y-143126000D02*
X131277000Y-155997000D01*
X131277000Y-155997000D02*
X129354500Y-157919500D01*
X129354500Y-157919500D02*
X129354500Y-158408000D01*
%TO.N,/5V*%
X133154500Y-158408000D02*
X133154500Y-154823250D01*
X133154500Y-154823250D02*
X132115500Y-153784250D01*
X133345000Y-139358000D02*
X133797000Y-139358000D01*
X133797000Y-139358000D02*
X134746000Y-140307000D01*
X134746000Y-140307000D02*
X134746000Y-151153750D01*
X134746000Y-151153750D02*
X132115500Y-153784250D01*
%TO.N,Net-(D4-DOUT)*%
X133154500Y-122008000D02*
X131419500Y-123743000D01*
X131419500Y-123743000D02*
X131419500Y-136423500D01*
X131419500Y-136423500D02*
X129545000Y-138298000D01*
X129545000Y-138298000D02*
X129545000Y-139358000D01*
%TO.N,/5V*%
X133154500Y-120308000D02*
X133606500Y-120308000D01*
X133606500Y-120308000D02*
X134555500Y-121257000D01*
X134555500Y-121257000D02*
X134555500Y-131913250D01*
X134555500Y-131913250D02*
X132306000Y-134162750D01*
%TO.N,Net-(D3-DOUT)*%
X133345000Y-102958000D02*
X131277000Y-105026000D01*
X131277000Y-105026000D02*
X131277000Y-118087500D01*
X131277000Y-118087500D02*
X129354500Y-120010000D01*
X129354500Y-120010000D02*
X129354500Y-120308000D01*
%TO.N,/5V*%
X133154500Y-120308000D02*
X133154500Y-116723250D01*
X133154500Y-116723250D02*
X132115500Y-115684250D01*
X133345000Y-101258000D02*
X133797000Y-101258000D01*
X133797000Y-101258000D02*
X134746000Y-102207000D01*
X134746000Y-102207000D02*
X134746000Y-113053750D01*
X134746000Y-113053750D02*
X132115500Y-115684250D01*
%TO.N,Net-(D2-DOUT)*%
X133154500Y-83908000D02*
X131467500Y-85595000D01*
X131467500Y-85595000D02*
X131467500Y-99418500D01*
X131467500Y-99418500D02*
X129628000Y-101258000D01*
X129628000Y-101258000D02*
X129545000Y-101258000D01*
%TO.N,/5V*%
X133345000Y-101258000D02*
X133345000Y-97292250D01*
X133345000Y-97292250D02*
X132306000Y-96253250D01*
X133154500Y-82208000D02*
X133606500Y-82208000D01*
X133606500Y-82208000D02*
X134555500Y-83157000D01*
X134555500Y-83157000D02*
X134555500Y-94003750D01*
X134555500Y-94003750D02*
X132306000Y-96253250D01*
%TO.N,Net-(D1-DOUT)*%
X133345000Y-64858000D02*
X131277000Y-66926000D01*
X131277000Y-80285500D02*
X129586431Y-81976069D01*
X131277000Y-66926000D02*
X131277000Y-80285500D01*
%TO.N,/5V*%
X133345000Y-63158000D02*
X133797000Y-63158000D01*
X133797000Y-63158000D02*
X134746000Y-64107000D01*
X134746000Y-74953750D02*
X132115500Y-77584250D01*
X134746000Y-64107000D02*
X134746000Y-74953750D01*
X133154500Y-82208000D02*
X133154500Y-78623250D01*
X133154500Y-78623250D02*
X132115500Y-77584250D01*
X133345000Y-63158000D02*
X133345000Y-60575500D01*
X133345000Y-60575500D02*
X132205500Y-59436000D01*
X132207000Y-57750000D02*
X132207000Y-59434500D01*
X132207000Y-59434500D02*
X132205500Y-59436000D01*
%TO.N,Net-(D1-DOUT)*%
X133797000Y-64858000D02*
X133345000Y-64858000D01*
%TO.N,/LED*%
X129545000Y-63158000D02*
X129093000Y-63158000D01*
%TO.N,Net-(D5-DOUT)*%
X133345000Y-141058000D02*
X133797000Y-141058000D01*
%TO.N,unconnected-(D6-DOUT-Pad2)*%
X133154500Y-160108000D02*
X133606500Y-160108000D01*
%TO.N,Net-(D3-DOUT)*%
X133345000Y-102958000D02*
X133797000Y-102958000D01*
%TO.N,Net-(D4-DOUT)*%
X133154500Y-122008000D02*
X133606500Y-122008000D01*
%TO.N,/3V3*%
X136906000Y-149707000D02*
X136906000Y-160883000D01*
X136906000Y-138785000D02*
X136906000Y-149707000D01*
X136906000Y-127609000D02*
X136906000Y-138785000D01*
X136906000Y-138785000D02*
X140615000Y-142494000D01*
X136906000Y-127609000D02*
X140615000Y-131318000D01*
X138938000Y-86360000D02*
X138938000Y-112776000D01*
X138938000Y-112776000D02*
X136906000Y-114808000D01*
X138684000Y-86106000D02*
X138938000Y-86360000D01*
X136906000Y-160883000D02*
X140615000Y-164592000D01*
X136906000Y-149707000D02*
X140615000Y-153416000D01*
X115026466Y-58750000D02*
X114845816Y-58930650D01*
X114845816Y-58930650D02*
X114061000Y-58930650D01*
X136906000Y-114808000D02*
X136906000Y-127609000D01*
%TO.N,/5V*%
X137541000Y-58321500D02*
X137541000Y-75311000D01*
X136969500Y-57750000D02*
X137541000Y-58321500D01*
X137541000Y-75311000D02*
X141224000Y-78994000D01*
D17*
X141224000Y-114900000D02*
X137506000Y-118618000D01*
X141224000Y-78994000D02*
X141224000Y-114900000D01*
D16*
%TO.N,/A0*%
X144018000Y-64008000D02*
X141224000Y-61214000D01*
X143256000Y-162052000D02*
X144018000Y-161290000D01*
X144018000Y-161290000D02*
X144018000Y-64008000D01*
X140615000Y-162052000D02*
X143256000Y-162052000D01*
%TO.N,/A1*%
X140208000Y-61214000D02*
X143690000Y-64696000D01*
X143690000Y-64696000D02*
X143690000Y-150114000D01*
X143690000Y-150114000D02*
X142928000Y-150876000D01*
X142928000Y-150876000D02*
X140615000Y-150876000D01*
%TO.N,/A2*%
X139192000Y-61192227D02*
X143362000Y-65362227D01*
X143362000Y-139192000D02*
X142600000Y-139954000D01*
X142600000Y-139954000D02*
X140615000Y-139954000D01*
X143362000Y-65362227D02*
X143362000Y-139192000D01*
%TO.N,/A3*%
X138176000Y-61214000D02*
X143034000Y-66072000D01*
X143034000Y-66072000D02*
X143034000Y-128016000D01*
X143034000Y-128016000D02*
X142272000Y-128778000D01*
X142272000Y-128778000D02*
X140615000Y-128778000D01*
%TO.N,/TX*%
X130108004Y-56134000D02*
X132114134Y-56134000D01*
X125984000Y-60258004D02*
X130108004Y-56134000D01*
X132114134Y-56134000D02*
X136017000Y-60036866D01*
X136017000Y-101727000D02*
X136398000Y-102108000D01*
X125984000Y-62484000D02*
X125984000Y-60258004D01*
X136017000Y-60036866D02*
X136017000Y-101727000D01*
%TO.N,/5V*%
X133345000Y-135201750D02*
X132306000Y-134162750D01*
X133345000Y-139358000D02*
X133345000Y-135201750D01*
%TD*%
%TA.AperFunction,Conductor*%
%TO.N,GND*%
G36*
X142003736Y-44750726D02*
G01*
X142293796Y-44768271D01*
X142308659Y-44770076D01*
X142590798Y-44821780D01*
X142605335Y-44825363D01*
X142879172Y-44910695D01*
X142893163Y-44916000D01*
X143154743Y-45033727D01*
X143167989Y-45040680D01*
X143413465Y-45189075D01*
X143425776Y-45197573D01*
X143651573Y-45374473D01*
X143662781Y-45384403D01*
X143865596Y-45587218D01*
X143875526Y-45598426D01*
X143995481Y-45751538D01*
X144052422Y-45824217D01*
X144060928Y-45836540D01*
X144209316Y-46082004D01*
X144216275Y-46095263D01*
X144333997Y-46356831D01*
X144339306Y-46370832D01*
X144424635Y-46644663D01*
X144428219Y-46659201D01*
X144479923Y-46941340D01*
X144481728Y-46956205D01*
X144499274Y-47246263D01*
X144499500Y-47253750D01*
X144499500Y-63340901D01*
X144479815Y-63407940D01*
X144427011Y-63453695D01*
X144357853Y-63463639D01*
X144294297Y-63434614D01*
X144287819Y-63428582D01*
X142058573Y-61199337D01*
X142025088Y-61138014D01*
X142024637Y-61135847D01*
X142024500Y-61135158D01*
X141993737Y-60980503D01*
X141942277Y-60856266D01*
X141933397Y-60834827D01*
X141933390Y-60834814D01*
X141845789Y-60703711D01*
X141845786Y-60703707D01*
X141734292Y-60592213D01*
X141734288Y-60592210D01*
X141603185Y-60504609D01*
X141603172Y-60504602D01*
X141457501Y-60444264D01*
X141457489Y-60444261D01*
X141302845Y-60413500D01*
X141302842Y-60413500D01*
X141145158Y-60413500D01*
X141145155Y-60413500D01*
X140990510Y-60444261D01*
X140990498Y-60444264D01*
X140844828Y-60504602D01*
X140844815Y-60504609D01*
X140784891Y-60544650D01*
X140718213Y-60565528D01*
X140650833Y-60547043D01*
X140647109Y-60544650D01*
X140587184Y-60504609D01*
X140587181Y-60504607D01*
X140587179Y-60504606D01*
X140587176Y-60504604D01*
X140587171Y-60504602D01*
X140441501Y-60444264D01*
X140441489Y-60444261D01*
X140286845Y-60413500D01*
X140286842Y-60413500D01*
X140129158Y-60413500D01*
X140129155Y-60413500D01*
X139974510Y-60444261D01*
X139974498Y-60444264D01*
X139828828Y-60504602D01*
X139828817Y-60504608D01*
X139785183Y-60533764D01*
X139718506Y-60554641D01*
X139651126Y-60536156D01*
X139647402Y-60533763D01*
X139571185Y-60482836D01*
X139571172Y-60482829D01*
X139425501Y-60422491D01*
X139425489Y-60422488D01*
X139270845Y-60391727D01*
X139270842Y-60391727D01*
X139113158Y-60391727D01*
X139113155Y-60391727D01*
X138958510Y-60422488D01*
X138958498Y-60422491D01*
X138812827Y-60482829D01*
X138812816Y-60482835D01*
X138736596Y-60533764D01*
X138669919Y-60554641D01*
X138602539Y-60536156D01*
X138598814Y-60533762D01*
X138555186Y-60504610D01*
X138555172Y-60504602D01*
X138409501Y-60444264D01*
X138409489Y-60444261D01*
X138254841Y-60413499D01*
X138253338Y-60413351D01*
X138252601Y-60413053D01*
X138248868Y-60412311D01*
X138249008Y-60411602D01*
X138188552Y-60387186D01*
X138148197Y-60330149D01*
X138141500Y-60289949D01*
X138141500Y-58242445D01*
X138141500Y-58242443D01*
X138100577Y-58089716D01*
X138100577Y-58089715D01*
X138100577Y-58089714D01*
X138071639Y-58039595D01*
X138071637Y-58039592D01*
X138050631Y-58003207D01*
X138021520Y-57952784D01*
X137909716Y-57840980D01*
X137909715Y-57840979D01*
X137905385Y-57836649D01*
X137905374Y-57836639D01*
X137804074Y-57735339D01*
X137770589Y-57674016D01*
X137770138Y-57671849D01*
X137752095Y-57581147D01*
X137739237Y-57516503D01*
X137680702Y-57375185D01*
X137678897Y-57370827D01*
X137678890Y-57370814D01*
X137591289Y-57239711D01*
X137591286Y-57239707D01*
X137479792Y-57128213D01*
X137479788Y-57128210D01*
X137348685Y-57040609D01*
X137348672Y-57040602D01*
X137203001Y-56980264D01*
X137202989Y-56980261D01*
X137048345Y-56949500D01*
X137048342Y-56949500D01*
X136890658Y-56949500D01*
X136890655Y-56949500D01*
X136736010Y-56980261D01*
X136735998Y-56980264D01*
X136590327Y-57040602D01*
X136590314Y-57040609D01*
X136459211Y-57128210D01*
X136459207Y-57128213D01*
X136347713Y-57239707D01*
X136347710Y-57239711D01*
X136260109Y-57370814D01*
X136260102Y-57370827D01*
X136199764Y-57516498D01*
X136199761Y-57516510D01*
X136169000Y-57671153D01*
X136169000Y-57828846D01*
X136199761Y-57983489D01*
X136199764Y-57983501D01*
X136260102Y-58129172D01*
X136260109Y-58129185D01*
X136347710Y-58260288D01*
X136347713Y-58260292D01*
X136459207Y-58371786D01*
X136459211Y-58371789D01*
X136590314Y-58459390D01*
X136590327Y-58459397D01*
X136735998Y-58519735D01*
X136736003Y-58519737D01*
X136815956Y-58535640D01*
X136840691Y-58540561D01*
X136902602Y-58572946D01*
X136937176Y-58633661D01*
X136940500Y-58662178D01*
X136940500Y-75224330D01*
X136940499Y-75224348D01*
X136940499Y-75390054D01*
X136940498Y-75390054D01*
X136981423Y-75542785D01*
X137010358Y-75592900D01*
X137010359Y-75592904D01*
X137010360Y-75592904D01*
X137060479Y-75679714D01*
X137060481Y-75679717D01*
X137179349Y-75798585D01*
X137179355Y-75798590D01*
X140389425Y-79008660D01*
X140397820Y-79023717D01*
X140409510Y-79035001D01*
X140420406Y-79064224D01*
X140422426Y-79067847D01*
X140423500Y-79072395D01*
X140423500Y-79072842D01*
X140454263Y-79227497D01*
X140467886Y-79260385D01*
X140470182Y-79270110D01*
X140469681Y-79279408D01*
X140473500Y-79298604D01*
X140473500Y-114537770D01*
X140453815Y-114604809D01*
X140437181Y-114625451D01*
X137718181Y-117344451D01*
X137656858Y-117377936D01*
X137587166Y-117372952D01*
X137531233Y-117331080D01*
X137506816Y-117265616D01*
X137506500Y-117256770D01*
X137506500Y-115387765D01*
X137526185Y-115320726D01*
X137527398Y-115318874D01*
X137615390Y-115187185D01*
X137615390Y-115187184D01*
X137615394Y-115187179D01*
X137675737Y-115041497D01*
X137695113Y-114944085D01*
X137706638Y-114886150D01*
X137739023Y-114824239D01*
X137740519Y-114822715D01*
X139306713Y-113256521D01*
X139306716Y-113256520D01*
X139418520Y-113144716D01*
X139468639Y-113057904D01*
X139497577Y-113007785D01*
X139538501Y-112855057D01*
X139538501Y-112696943D01*
X139538501Y-112689348D01*
X139538500Y-112689330D01*
X139538500Y-86280945D01*
X139538500Y-86280943D01*
X139512808Y-86185057D01*
X139497577Y-86128215D01*
X139497574Y-86128209D01*
X139494465Y-86120701D01*
X139497154Y-86119587D01*
X139484500Y-86072338D01*
X139484500Y-86027155D01*
X139484499Y-86027153D01*
X139453738Y-85872510D01*
X139453737Y-85872503D01*
X139426777Y-85807415D01*
X139393397Y-85726827D01*
X139393390Y-85726814D01*
X139305789Y-85595711D01*
X139305786Y-85595707D01*
X139194292Y-85484213D01*
X139194288Y-85484210D01*
X139063185Y-85396609D01*
X139063172Y-85396602D01*
X138917501Y-85336264D01*
X138917489Y-85336261D01*
X138762845Y-85305500D01*
X138762842Y-85305500D01*
X138605158Y-85305500D01*
X138605155Y-85305500D01*
X138450510Y-85336261D01*
X138450498Y-85336264D01*
X138304827Y-85396602D01*
X138304814Y-85396609D01*
X138173711Y-85484210D01*
X138173707Y-85484213D01*
X138062213Y-85595707D01*
X138062210Y-85595711D01*
X137974609Y-85726814D01*
X137974602Y-85726827D01*
X137914264Y-85872498D01*
X137914261Y-85872510D01*
X137883500Y-86027153D01*
X137883500Y-86184846D01*
X137914261Y-86339489D01*
X137914264Y-86339501D01*
X137974602Y-86485172D01*
X137974609Y-86485185D01*
X138062210Y-86616288D01*
X138062213Y-86616292D01*
X138173708Y-86727787D01*
X138173711Y-86727789D01*
X138282392Y-86800407D01*
X138327196Y-86854017D01*
X138337500Y-86903508D01*
X138337500Y-112475903D01*
X138317815Y-112542942D01*
X138301181Y-112563584D01*
X136891339Y-113973425D01*
X136830016Y-114006910D01*
X136827850Y-114007361D01*
X136672508Y-114038261D01*
X136672498Y-114038264D01*
X136526827Y-114098602D01*
X136526814Y-114098609D01*
X136395711Y-114186210D01*
X136395707Y-114186213D01*
X136284213Y-114297707D01*
X136284210Y-114297711D01*
X136196609Y-114428814D01*
X136196602Y-114428827D01*
X136136264Y-114574498D01*
X136136261Y-114574510D01*
X136105500Y-114729153D01*
X136105500Y-114886846D01*
X136136261Y-115041489D01*
X136136264Y-115041501D01*
X136196602Y-115187172D01*
X136196609Y-115187185D01*
X136284602Y-115318874D01*
X136305480Y-115385551D01*
X136305500Y-115387765D01*
X136305500Y-127529939D01*
X136305499Y-127529943D01*
X136305499Y-127688057D01*
X136305500Y-127688060D01*
X136305500Y-138698330D01*
X136305499Y-138698348D01*
X136305499Y-138874046D01*
X136305500Y-138874059D01*
X136305500Y-149627939D01*
X136305499Y-149627943D01*
X136305499Y-149786057D01*
X136305500Y-149786060D01*
X136305500Y-160796330D01*
X136305499Y-160796348D01*
X136305499Y-160962054D01*
X136305498Y-160962054D01*
X136346423Y-161114785D01*
X136358607Y-161135888D01*
X136425477Y-161251712D01*
X136425481Y-161251717D01*
X136544349Y-161370585D01*
X136544355Y-161370590D01*
X139281241Y-164107476D01*
X139314726Y-164168799D01*
X139311492Y-164233473D01*
X139297753Y-164275757D01*
X139264500Y-164485713D01*
X139264500Y-164698286D01*
X139297753Y-164908239D01*
X139363444Y-165110414D01*
X139459951Y-165299820D01*
X139584890Y-165471786D01*
X139735213Y-165622109D01*
X139907179Y-165747048D01*
X139907181Y-165747049D01*
X139907184Y-165747051D01*
X140096588Y-165843557D01*
X140298757Y-165909246D01*
X140508713Y-165942500D01*
X140508714Y-165942500D01*
X140721286Y-165942500D01*
X140721287Y-165942500D01*
X140931243Y-165909246D01*
X141133412Y-165843557D01*
X141322816Y-165747051D01*
X141344789Y-165731086D01*
X141494786Y-165622109D01*
X141494788Y-165622106D01*
X141494792Y-165622104D01*
X141645104Y-165471792D01*
X141645106Y-165471788D01*
X141645109Y-165471786D01*
X141770048Y-165299820D01*
X141770047Y-165299820D01*
X141770051Y-165299816D01*
X141866557Y-165110412D01*
X141932246Y-164908243D01*
X141965500Y-164698287D01*
X141965500Y-164485713D01*
X141932246Y-164275757D01*
X141866557Y-164073588D01*
X141770051Y-163884184D01*
X141770049Y-163884181D01*
X141770048Y-163884179D01*
X141645109Y-163712213D01*
X141494786Y-163561890D01*
X141322820Y-163436951D01*
X141322115Y-163436591D01*
X141314054Y-163432485D01*
X141263259Y-163384512D01*
X141246463Y-163316692D01*
X141268999Y-163250556D01*
X141314054Y-163211515D01*
X141322816Y-163207051D01*
X141344789Y-163191086D01*
X141494786Y-163082109D01*
X141494788Y-163082106D01*
X141494792Y-163082104D01*
X141645104Y-162931792D01*
X141645106Y-162931788D01*
X141645109Y-162931786D01*
X141703661Y-162851193D01*
X141770051Y-162759816D01*
X141770349Y-162759230D01*
X141790235Y-162720205D01*
X141838209Y-162669409D01*
X141900719Y-162652500D01*
X143169331Y-162652500D01*
X143169347Y-162652501D01*
X143176943Y-162652501D01*
X143335054Y-162652501D01*
X143335057Y-162652501D01*
X143487785Y-162611577D01*
X143537904Y-162582639D01*
X143624716Y-162532520D01*
X143736520Y-162420716D01*
X143736520Y-162420714D01*
X143746728Y-162410507D01*
X143746729Y-162410504D01*
X144287819Y-161869415D01*
X144349142Y-161835931D01*
X144418834Y-161840915D01*
X144474767Y-161882787D01*
X144499184Y-161948251D01*
X144499500Y-161957097D01*
X144499500Y-175861688D01*
X144499274Y-175869177D01*
X144481724Y-176159233D01*
X144479919Y-176174098D01*
X144428212Y-176456229D01*
X144424628Y-176470767D01*
X144339293Y-176744603D01*
X144333983Y-176758604D01*
X144216260Y-177020164D01*
X144209301Y-177033422D01*
X144060914Y-177278879D01*
X144052408Y-177291202D01*
X143875512Y-177516989D01*
X143865582Y-177528197D01*
X143662763Y-177731012D01*
X143651556Y-177740941D01*
X143425771Y-177917830D01*
X143413447Y-177926336D01*
X143167987Y-178074720D01*
X143154729Y-178081679D01*
X142893167Y-178199398D01*
X142879166Y-178204708D01*
X142605320Y-178290040D01*
X142590781Y-178293623D01*
X142308657Y-178345323D01*
X142293793Y-178347128D01*
X142100865Y-178358798D01*
X142002903Y-178364724D01*
X141995429Y-178364950D01*
X107969251Y-178364950D01*
X107961764Y-178364724D01*
X107671702Y-178347178D01*
X107656838Y-178345373D01*
X107374705Y-178293671D01*
X107360166Y-178290088D01*
X107223240Y-178247421D01*
X107086312Y-178204752D01*
X107072318Y-178199445D01*
X106994981Y-178164639D01*
X106810747Y-178081723D01*
X106797489Y-178074764D01*
X106552024Y-177926377D01*
X106539701Y-177917871D01*
X106313916Y-177740983D01*
X106302707Y-177731054D01*
X106099876Y-177528225D01*
X106089947Y-177517017D01*
X105913050Y-177291230D01*
X105904544Y-177278907D01*
X105756154Y-177033445D01*
X105749195Y-177020187D01*
X105631470Y-176758622D01*
X105626160Y-176744621D01*
X105540821Y-176470772D01*
X105537240Y-176456242D01*
X105485531Y-176174102D01*
X105483726Y-176159249D01*
X105466226Y-175870002D01*
X105466000Y-175862514D01*
X105466000Y-173878711D01*
X108449000Y-173878711D01*
X108449000Y-174121288D01*
X108480661Y-174361785D01*
X108543447Y-174596104D01*
X108636273Y-174820205D01*
X108636276Y-174820212D01*
X108757564Y-175030289D01*
X108757566Y-175030292D01*
X108757567Y-175030293D01*
X108905233Y-175222736D01*
X108905239Y-175222743D01*
X109076756Y-175394260D01*
X109076762Y-175394265D01*
X109269211Y-175541936D01*
X109479288Y-175663224D01*
X109703400Y-175756054D01*
X109937711Y-175818838D01*
X110118086Y-175842584D01*
X110178211Y-175850500D01*
X110178212Y-175850500D01*
X110420789Y-175850500D01*
X110468888Y-175844167D01*
X110661289Y-175818838D01*
X110895600Y-175756054D01*
X111119712Y-175663224D01*
X111329789Y-175541936D01*
X111522238Y-175394265D01*
X111693765Y-175222738D01*
X111841436Y-175030289D01*
X111962724Y-174820212D01*
X112055554Y-174596100D01*
X112118338Y-174361789D01*
X112150000Y-174121288D01*
X112150000Y-173878712D01*
X112150000Y-173878711D01*
X138149500Y-173878711D01*
X138149500Y-174121288D01*
X138181161Y-174361785D01*
X138243947Y-174596104D01*
X138336773Y-174820205D01*
X138336776Y-174820212D01*
X138458064Y-175030289D01*
X138458066Y-175030292D01*
X138458067Y-175030293D01*
X138605733Y-175222736D01*
X138605739Y-175222743D01*
X138777256Y-175394260D01*
X138777262Y-175394265D01*
X138969711Y-175541936D01*
X139179788Y-175663224D01*
X139403900Y-175756054D01*
X139638211Y-175818838D01*
X139818586Y-175842584D01*
X139878711Y-175850500D01*
X139878712Y-175850500D01*
X140121289Y-175850500D01*
X140169388Y-175844167D01*
X140361789Y-175818838D01*
X140596100Y-175756054D01*
X140820212Y-175663224D01*
X141030289Y-175541936D01*
X141222738Y-175394265D01*
X141394265Y-175222738D01*
X141541936Y-175030289D01*
X141663224Y-174820212D01*
X141756054Y-174596100D01*
X141818838Y-174361789D01*
X141850500Y-174121288D01*
X141850500Y-173878712D01*
X141818838Y-173638211D01*
X141756054Y-173403900D01*
X141663224Y-173179788D01*
X141541936Y-172969711D01*
X141394265Y-172777262D01*
X141394260Y-172777256D01*
X141222743Y-172605739D01*
X141222736Y-172605733D01*
X141030293Y-172458067D01*
X141030292Y-172458066D01*
X141030289Y-172458064D01*
X140820212Y-172336776D01*
X140820205Y-172336773D01*
X140596104Y-172243947D01*
X140361785Y-172181161D01*
X140121289Y-172149500D01*
X140121288Y-172149500D01*
X139878712Y-172149500D01*
X139878711Y-172149500D01*
X139638214Y-172181161D01*
X139403895Y-172243947D01*
X139179794Y-172336773D01*
X139179785Y-172336777D01*
X138969706Y-172458067D01*
X138777263Y-172605733D01*
X138777256Y-172605739D01*
X138605739Y-172777256D01*
X138605733Y-172777263D01*
X138458067Y-172969706D01*
X138336777Y-173179785D01*
X138336773Y-173179794D01*
X138243947Y-173403895D01*
X138181161Y-173638214D01*
X138149500Y-173878711D01*
X112150000Y-173878711D01*
X112118338Y-173638211D01*
X112055554Y-173403900D01*
X111962724Y-173179788D01*
X111841436Y-172969711D01*
X111693765Y-172777262D01*
X111693760Y-172777256D01*
X111522243Y-172605739D01*
X111522236Y-172605733D01*
X111329793Y-172458067D01*
X111329792Y-172458066D01*
X111329789Y-172458064D01*
X111119712Y-172336776D01*
X111119705Y-172336773D01*
X110895604Y-172243947D01*
X110661285Y-172181161D01*
X110420789Y-172149500D01*
X110420788Y-172149500D01*
X110178212Y-172149500D01*
X110178211Y-172149500D01*
X109937714Y-172181161D01*
X109703395Y-172243947D01*
X109479294Y-172336773D01*
X109479285Y-172336777D01*
X109269206Y-172458067D01*
X109076763Y-172605733D01*
X109076756Y-172605739D01*
X108905239Y-172777256D01*
X108905233Y-172777263D01*
X108757567Y-172969706D01*
X108636277Y-173179785D01*
X108636273Y-173179794D01*
X108543447Y-173403895D01*
X108480661Y-173638214D01*
X108449000Y-173878711D01*
X105466000Y-173878711D01*
X105466000Y-159174039D01*
X110420500Y-159174039D01*
X110420500Y-159347261D01*
X110447598Y-159518351D01*
X110501127Y-159683095D01*
X110579768Y-159837438D01*
X110681586Y-159977578D01*
X110804072Y-160100064D01*
X110944212Y-160201882D01*
X111098555Y-160280523D01*
X111263299Y-160334052D01*
X111434389Y-160361150D01*
X111434390Y-160361150D01*
X111607610Y-160361150D01*
X111607611Y-160361150D01*
X111778701Y-160334052D01*
X111943445Y-160280523D01*
X112097788Y-160201882D01*
X112237928Y-160100064D01*
X112360414Y-159977578D01*
X112462232Y-159837438D01*
X112540873Y-159683095D01*
X112594402Y-159518351D01*
X112621500Y-159347261D01*
X112621500Y-159174039D01*
X112611854Y-159113136D01*
X114350500Y-159113136D01*
X114350500Y-159408163D01*
X114377089Y-159610116D01*
X114389007Y-159700643D01*
X114463212Y-159977580D01*
X114465361Y-159985601D01*
X114465364Y-159985611D01*
X114578254Y-160258150D01*
X114578258Y-160258160D01*
X114725761Y-160513643D01*
X114905352Y-160747690D01*
X114905358Y-160747697D01*
X115113952Y-160956291D01*
X115113959Y-160956297D01*
X115348006Y-161135888D01*
X115603489Y-161283391D01*
X115603490Y-161283391D01*
X115603493Y-161283393D01*
X115876048Y-161396289D01*
X116161007Y-161472643D01*
X116453494Y-161511150D01*
X116453501Y-161511150D01*
X116748499Y-161511150D01*
X116748506Y-161511150D01*
X117040993Y-161472643D01*
X117325952Y-161396289D01*
X117598507Y-161283393D01*
X117853994Y-161135888D01*
X118088042Y-160956296D01*
X118296646Y-160747692D01*
X118405490Y-160605844D01*
X127754500Y-160605844D01*
X127760901Y-160665372D01*
X127760903Y-160665379D01*
X127811145Y-160800086D01*
X127811149Y-160800093D01*
X127897309Y-160915187D01*
X127897312Y-160915190D01*
X128012406Y-161001350D01*
X128012413Y-161001354D01*
X128147120Y-161051596D01*
X128147127Y-161051598D01*
X128206655Y-161057999D01*
X128206672Y-161058000D01*
X129104500Y-161058000D01*
X129604500Y-161058000D01*
X130502328Y-161058000D01*
X130502344Y-161057999D01*
X130561872Y-161051598D01*
X130561879Y-161051596D01*
X130696586Y-161001354D01*
X130696593Y-161001350D01*
X130811687Y-160915190D01*
X130811690Y-160915187D01*
X130897850Y-160800093D01*
X130897854Y-160800086D01*
X130948096Y-160665379D01*
X130948098Y-160665372D01*
X130954499Y-160605844D01*
X130954500Y-160605827D01*
X130954500Y-160358000D01*
X129604500Y-160358000D01*
X129604500Y-161058000D01*
X129104500Y-161058000D01*
X129104500Y-160358000D01*
X127754500Y-160358000D01*
X127754500Y-160605844D01*
X118405490Y-160605844D01*
X118476238Y-160513644D01*
X118623743Y-160258157D01*
X118736639Y-159985602D01*
X118812993Y-159700643D01*
X118851500Y-159408156D01*
X118851500Y-159113144D01*
X118812993Y-158820657D01*
X118736639Y-158535698D01*
X118623743Y-158263143D01*
X118598054Y-158218649D01*
X118476238Y-158007656D01*
X118296647Y-157773609D01*
X118296641Y-157773602D01*
X118088047Y-157565008D01*
X118088040Y-157565002D01*
X117853993Y-157385411D01*
X117598510Y-157237908D01*
X117598500Y-157237904D01*
X117325961Y-157125014D01*
X117325954Y-157125012D01*
X117325952Y-157125011D01*
X117040993Y-157048657D01*
X116992113Y-157042221D01*
X116748513Y-157010150D01*
X116748506Y-157010150D01*
X116453494Y-157010150D01*
X116453486Y-157010150D01*
X116175085Y-157046803D01*
X116161007Y-157048657D01*
X115986428Y-157095435D01*
X115876048Y-157125011D01*
X115876038Y-157125014D01*
X115603499Y-157237904D01*
X115603489Y-157237908D01*
X115348006Y-157385411D01*
X115113959Y-157565002D01*
X115113952Y-157565008D01*
X114905358Y-157773602D01*
X114905352Y-157773609D01*
X114725761Y-158007656D01*
X114578258Y-158263139D01*
X114578254Y-158263149D01*
X114465364Y-158535688D01*
X114465361Y-158535698D01*
X114389008Y-158820654D01*
X114389006Y-158820665D01*
X114350500Y-159113136D01*
X112611854Y-159113136D01*
X112594402Y-159002949D01*
X112540873Y-158838205D01*
X112462232Y-158683862D01*
X112360414Y-158543722D01*
X112237928Y-158421236D01*
X112097788Y-158319418D01*
X111943445Y-158240777D01*
X111778701Y-158187248D01*
X111778699Y-158187247D01*
X111778698Y-158187247D01*
X111619291Y-158162000D01*
X111607611Y-158160150D01*
X111434389Y-158160150D01*
X111422709Y-158162000D01*
X111263302Y-158187247D01*
X111098552Y-158240778D01*
X110944211Y-158319418D01*
X110921957Y-158335587D01*
X110804072Y-158421236D01*
X110804070Y-158421238D01*
X110804069Y-158421238D01*
X110681588Y-158543719D01*
X110681588Y-158543720D01*
X110681586Y-158543722D01*
X110673663Y-158554627D01*
X110579768Y-158683861D01*
X110501128Y-158838202D01*
X110447597Y-159002952D01*
X110420500Y-159174039D01*
X105466000Y-159174039D01*
X105466000Y-156594688D01*
X118810500Y-156594688D01*
X118810500Y-156846611D01*
X118849910Y-157095435D01*
X118927760Y-157335033D01*
X119042132Y-157559498D01*
X119190201Y-157763299D01*
X119190205Y-157763304D01*
X119368345Y-157941444D01*
X119368350Y-157941448D01*
X119515174Y-158048121D01*
X119572155Y-158089520D01*
X119710223Y-158159869D01*
X119796616Y-158203889D01*
X119796618Y-158203889D01*
X119796621Y-158203891D01*
X120036215Y-158281740D01*
X120285038Y-158321150D01*
X120285039Y-158321150D01*
X120536961Y-158321150D01*
X120536962Y-158321150D01*
X120785785Y-158281740D01*
X120785788Y-158281738D01*
X120786438Y-158281636D01*
X120855731Y-158290590D01*
X120909183Y-158335587D01*
X120929823Y-158402338D01*
X120911098Y-158469652D01*
X120893518Y-158491789D01*
X120841589Y-158543718D01*
X120841588Y-158543720D01*
X120841586Y-158543722D01*
X120833663Y-158554627D01*
X120739768Y-158683861D01*
X120661128Y-158838202D01*
X120607597Y-159002952D01*
X120580500Y-159174039D01*
X120580500Y-159347261D01*
X120607598Y-159518351D01*
X120661127Y-159683095D01*
X120739768Y-159837438D01*
X120841586Y-159977578D01*
X120964072Y-160100064D01*
X121104212Y-160201882D01*
X121258555Y-160280523D01*
X121423299Y-160334052D01*
X121594389Y-160361150D01*
X121594390Y-160361150D01*
X121767610Y-160361150D01*
X121767611Y-160361150D01*
X121938701Y-160334052D01*
X122103445Y-160280523D01*
X122257788Y-160201882D01*
X122397928Y-160100064D01*
X122520414Y-159977578D01*
X122622232Y-159837438D01*
X122700873Y-159683095D01*
X122754402Y-159518351D01*
X122781500Y-159347261D01*
X122781500Y-159174039D01*
X122754402Y-159002949D01*
X122700873Y-158838205D01*
X122622232Y-158683862D01*
X122520414Y-158543722D01*
X122397928Y-158421236D01*
X122257788Y-158319418D01*
X122103445Y-158240777D01*
X121938701Y-158187248D01*
X121938699Y-158187247D01*
X121938698Y-158187247D01*
X121779291Y-158162000D01*
X121767611Y-158160150D01*
X121594389Y-158160150D01*
X121539621Y-158168824D01*
X121470328Y-158159869D01*
X121416876Y-158114873D01*
X121396237Y-158048121D01*
X121414962Y-157980807D01*
X121447340Y-157946031D01*
X121453656Y-157941443D01*
X121631793Y-157763306D01*
X121779870Y-157559495D01*
X121894241Y-157335029D01*
X121972090Y-157095435D01*
X122011500Y-156846612D01*
X122011500Y-156594688D01*
X121972090Y-156345865D01*
X121894241Y-156106271D01*
X121894239Y-156106268D01*
X121894239Y-156106266D01*
X121852747Y-156024834D01*
X121779870Y-155881805D01*
X121760952Y-155855767D01*
X121631798Y-155678000D01*
X121631794Y-155677995D01*
X121453654Y-155499855D01*
X121453649Y-155499851D01*
X121249848Y-155351782D01*
X121249847Y-155351781D01*
X121249845Y-155351780D01*
X121179747Y-155316063D01*
X121025383Y-155237410D01*
X120785785Y-155159560D01*
X120536962Y-155120150D01*
X120285038Y-155120150D01*
X120160626Y-155139855D01*
X120036214Y-155159560D01*
X119796616Y-155237410D01*
X119572151Y-155351782D01*
X119368350Y-155499851D01*
X119368345Y-155499855D01*
X119190205Y-155677995D01*
X119190201Y-155678000D01*
X119042132Y-155881801D01*
X118927760Y-156106266D01*
X118849910Y-156345864D01*
X118810500Y-156594688D01*
X105466000Y-156594688D01*
X105466000Y-154054688D01*
X112460500Y-154054688D01*
X112460500Y-154306612D01*
X112465085Y-154335561D01*
X112499910Y-154555435D01*
X112577760Y-154795033D01*
X112692132Y-155019498D01*
X112840201Y-155223299D01*
X112840205Y-155223304D01*
X113018345Y-155401444D01*
X113018350Y-155401448D01*
X113196117Y-155530602D01*
X113222155Y-155549520D01*
X113365184Y-155622397D01*
X113446616Y-155663889D01*
X113446618Y-155663889D01*
X113446621Y-155663891D01*
X113686215Y-155741740D01*
X113935038Y-155781150D01*
X113935039Y-155781150D01*
X114186961Y-155781150D01*
X114186962Y-155781150D01*
X114435785Y-155741740D01*
X114675379Y-155663891D01*
X114899845Y-155549520D01*
X115103656Y-155401443D01*
X115281793Y-155223306D01*
X115429870Y-155019495D01*
X115544241Y-154795029D01*
X115622090Y-154555435D01*
X115661500Y-154306612D01*
X115661500Y-154070904D01*
X129353001Y-154070904D01*
X129363319Y-154171902D01*
X129417546Y-154335550D01*
X129417551Y-154335561D01*
X129508052Y-154482284D01*
X129508055Y-154482288D01*
X129629961Y-154604194D01*
X129629965Y-154604197D01*
X129776688Y-154694698D01*
X129776699Y-154694703D01*
X129940347Y-154748930D01*
X130041351Y-154759249D01*
X130140500Y-154759248D01*
X130140500Y-154034250D01*
X129353001Y-154034250D01*
X129353001Y-154070904D01*
X115661500Y-154070904D01*
X115661500Y-154054688D01*
X115622090Y-153805865D01*
X115544241Y-153566271D01*
X115544238Y-153566267D01*
X115544238Y-153566264D01*
X115536329Y-153550742D01*
X115536328Y-153550741D01*
X115509249Y-153497595D01*
X129353000Y-153497595D01*
X129353000Y-153534250D01*
X130140500Y-153534250D01*
X130140500Y-152809249D01*
X130041360Y-152809250D01*
X130041344Y-152809251D01*
X129940347Y-152819569D01*
X129776699Y-152873796D01*
X129776688Y-152873801D01*
X129629965Y-152964302D01*
X129629961Y-152964305D01*
X129508055Y-153086211D01*
X129508052Y-153086215D01*
X129417551Y-153232938D01*
X129417546Y-153232949D01*
X129363319Y-153396597D01*
X129353000Y-153497595D01*
X115509249Y-153497595D01*
X115429870Y-153341805D01*
X115350774Y-153232938D01*
X115281798Y-153138000D01*
X115281794Y-153137995D01*
X115103654Y-152959855D01*
X115103649Y-152959851D01*
X114899848Y-152811782D01*
X114899847Y-152811781D01*
X114899845Y-152811780D01*
X114822618Y-152772431D01*
X114675383Y-152697410D01*
X114435785Y-152619560D01*
X114186962Y-152580150D01*
X113935038Y-152580150D01*
X113810626Y-152599855D01*
X113686214Y-152619560D01*
X113446616Y-152697410D01*
X113222151Y-152811782D01*
X113018350Y-152959851D01*
X113018345Y-152959855D01*
X112840205Y-153137995D01*
X112840201Y-153138000D01*
X112692132Y-153341801D01*
X112577760Y-153566266D01*
X112523831Y-153732243D01*
X112499910Y-153805865D01*
X112460500Y-154054688D01*
X105466000Y-154054688D01*
X105466000Y-140124039D01*
X110420500Y-140124039D01*
X110420500Y-140297260D01*
X110445593Y-140455697D01*
X110447598Y-140468351D01*
X110501127Y-140633095D01*
X110579768Y-140787438D01*
X110681586Y-140927578D01*
X110804072Y-141050064D01*
X110944212Y-141151882D01*
X111098555Y-141230523D01*
X111263299Y-141284052D01*
X111434389Y-141311150D01*
X111434390Y-141311150D01*
X111607610Y-141311150D01*
X111607611Y-141311150D01*
X111778701Y-141284052D01*
X111943445Y-141230523D01*
X112097788Y-141151882D01*
X112237928Y-141050064D01*
X112360414Y-140927578D01*
X112462232Y-140787438D01*
X112540873Y-140633095D01*
X112594402Y-140468351D01*
X112621500Y-140297261D01*
X112621500Y-140124039D01*
X112611854Y-140063136D01*
X114350500Y-140063136D01*
X114350500Y-140358163D01*
X114379648Y-140579557D01*
X114389007Y-140650643D01*
X114463212Y-140927580D01*
X114465361Y-140935601D01*
X114465364Y-140935611D01*
X114578254Y-141208150D01*
X114578258Y-141208160D01*
X114725761Y-141463643D01*
X114905352Y-141697690D01*
X114905358Y-141697697D01*
X115113952Y-141906291D01*
X115113959Y-141906297D01*
X115348006Y-142085888D01*
X115603489Y-142233391D01*
X115603490Y-142233391D01*
X115603493Y-142233393D01*
X115876048Y-142346289D01*
X116161007Y-142422643D01*
X116453494Y-142461150D01*
X116453501Y-142461150D01*
X116748499Y-142461150D01*
X116748506Y-142461150D01*
X117040993Y-142422643D01*
X117325952Y-142346289D01*
X117598507Y-142233393D01*
X117853994Y-142085888D01*
X118088042Y-141906296D01*
X118296646Y-141697692D01*
X118405490Y-141555844D01*
X127945000Y-141555844D01*
X127951401Y-141615372D01*
X127951403Y-141615379D01*
X128001645Y-141750086D01*
X128001649Y-141750093D01*
X128087809Y-141865187D01*
X128087812Y-141865190D01*
X128202906Y-141951350D01*
X128202913Y-141951354D01*
X128337620Y-142001596D01*
X128337627Y-142001598D01*
X128397155Y-142007999D01*
X128397172Y-142008000D01*
X129295000Y-142008000D01*
X129795000Y-142008000D01*
X130692828Y-142008000D01*
X130692844Y-142007999D01*
X130752372Y-142001598D01*
X130752379Y-142001596D01*
X130887086Y-141951354D01*
X130887093Y-141951350D01*
X131002187Y-141865190D01*
X131002190Y-141865187D01*
X131088350Y-141750093D01*
X131088354Y-141750086D01*
X131138596Y-141615379D01*
X131138598Y-141615372D01*
X131144999Y-141555844D01*
X131145000Y-141555827D01*
X131145000Y-141308000D01*
X129795000Y-141308000D01*
X129795000Y-142008000D01*
X129295000Y-142008000D01*
X129295000Y-141308000D01*
X127945000Y-141308000D01*
X127945000Y-141555844D01*
X118405490Y-141555844D01*
X118476238Y-141463644D01*
X118623743Y-141208157D01*
X118736639Y-140935602D01*
X118812993Y-140650643D01*
X118851500Y-140358156D01*
X118851500Y-140063144D01*
X118812993Y-139770657D01*
X118736639Y-139485698D01*
X118623743Y-139213143D01*
X118476238Y-138957656D01*
X118355660Y-138800516D01*
X118296647Y-138723609D01*
X118296641Y-138723602D01*
X118088047Y-138515008D01*
X118088040Y-138515002D01*
X117853993Y-138335411D01*
X117598510Y-138187908D01*
X117598500Y-138187904D01*
X117325961Y-138075014D01*
X117325954Y-138075012D01*
X117325952Y-138075011D01*
X117040993Y-137998657D01*
X116992113Y-137992221D01*
X116748513Y-137960150D01*
X116748506Y-137960150D01*
X116453494Y-137960150D01*
X116453486Y-137960150D01*
X116175085Y-137996803D01*
X116161007Y-137998657D01*
X115986428Y-138045435D01*
X115876048Y-138075011D01*
X115876038Y-138075014D01*
X115603499Y-138187904D01*
X115603489Y-138187908D01*
X115348006Y-138335411D01*
X115113959Y-138515002D01*
X115113952Y-138515008D01*
X114905358Y-138723602D01*
X114905352Y-138723609D01*
X114725761Y-138957656D01*
X114578258Y-139213139D01*
X114578254Y-139213149D01*
X114465364Y-139485688D01*
X114465361Y-139485698D01*
X114389008Y-139770654D01*
X114389006Y-139770665D01*
X114350500Y-140063136D01*
X112611854Y-140063136D01*
X112594402Y-139952949D01*
X112540873Y-139788205D01*
X112462232Y-139633862D01*
X112360414Y-139493722D01*
X112237928Y-139371236D01*
X112097788Y-139269418D01*
X112052188Y-139246184D01*
X111943447Y-139190778D01*
X111943446Y-139190777D01*
X111943445Y-139190777D01*
X111778701Y-139137248D01*
X111778699Y-139137247D01*
X111778698Y-139137247D01*
X111647271Y-139116431D01*
X111607611Y-139110150D01*
X111434389Y-139110150D01*
X111394728Y-139116431D01*
X111263302Y-139137247D01*
X111098552Y-139190778D01*
X110944211Y-139269418D01*
X110878472Y-139317181D01*
X110804072Y-139371236D01*
X110804070Y-139371238D01*
X110804069Y-139371238D01*
X110681588Y-139493719D01*
X110681588Y-139493720D01*
X110681586Y-139493722D01*
X110637859Y-139553906D01*
X110579768Y-139633861D01*
X110501128Y-139788202D01*
X110447597Y-139952952D01*
X110420500Y-140124039D01*
X105466000Y-140124039D01*
X105466000Y-137544688D01*
X118810500Y-137544688D01*
X118810500Y-137796611D01*
X118849910Y-138045435D01*
X118927760Y-138285033D01*
X119042132Y-138509498D01*
X119190201Y-138713299D01*
X119190205Y-138713304D01*
X119368345Y-138891444D01*
X119368350Y-138891448D01*
X119515174Y-138998121D01*
X119572155Y-139039520D01*
X119710223Y-139109869D01*
X119796616Y-139153889D01*
X119796618Y-139153889D01*
X119796621Y-139153891D01*
X120036215Y-139231740D01*
X120285038Y-139271150D01*
X120285039Y-139271150D01*
X120536961Y-139271150D01*
X120536962Y-139271150D01*
X120785785Y-139231740D01*
X120785788Y-139231738D01*
X120786438Y-139231636D01*
X120855731Y-139240590D01*
X120909183Y-139285587D01*
X120929823Y-139352338D01*
X120911098Y-139419652D01*
X120893518Y-139441789D01*
X120841589Y-139493718D01*
X120841588Y-139493720D01*
X120841586Y-139493722D01*
X120797859Y-139553906D01*
X120739768Y-139633861D01*
X120661128Y-139788202D01*
X120607597Y-139952952D01*
X120580500Y-140124039D01*
X120580500Y-140297260D01*
X120605593Y-140455697D01*
X120607598Y-140468351D01*
X120661127Y-140633095D01*
X120739768Y-140787438D01*
X120841586Y-140927578D01*
X120964072Y-141050064D01*
X121104212Y-141151882D01*
X121258555Y-141230523D01*
X121423299Y-141284052D01*
X121594389Y-141311150D01*
X121594390Y-141311150D01*
X121767610Y-141311150D01*
X121767611Y-141311150D01*
X121938701Y-141284052D01*
X122103445Y-141230523D01*
X122257788Y-141151882D01*
X122397928Y-141050064D01*
X122520414Y-140927578D01*
X122622232Y-140787438D01*
X122700873Y-140633095D01*
X122754402Y-140468351D01*
X122781500Y-140297261D01*
X122781500Y-140124039D01*
X122754402Y-139952949D01*
X122700873Y-139788205D01*
X122622232Y-139633862D01*
X122520414Y-139493722D01*
X122397928Y-139371236D01*
X122257788Y-139269418D01*
X122212188Y-139246184D01*
X122103447Y-139190778D01*
X122103446Y-139190777D01*
X122103445Y-139190777D01*
X121938701Y-139137248D01*
X121938699Y-139137247D01*
X121938698Y-139137247D01*
X121807271Y-139116431D01*
X121767611Y-139110150D01*
X121594389Y-139110150D01*
X121539621Y-139118824D01*
X121470328Y-139109869D01*
X121416876Y-139064873D01*
X121396237Y-138998121D01*
X121414962Y-138930807D01*
X121447340Y-138896031D01*
X121453656Y-138891443D01*
X121631793Y-138713306D01*
X121779870Y-138509495D01*
X121894241Y-138285029D01*
X121972090Y-138045435D01*
X122011500Y-137796612D01*
X122011500Y-137544688D01*
X121972090Y-137295865D01*
X121894241Y-137056271D01*
X121894239Y-137056268D01*
X121894239Y-137056266D01*
X121839112Y-136948075D01*
X121779870Y-136831805D01*
X121706740Y-136731150D01*
X121631798Y-136628000D01*
X121631794Y-136627995D01*
X121453654Y-136449855D01*
X121453649Y-136449851D01*
X121249848Y-136301782D01*
X121249847Y-136301781D01*
X121249845Y-136301780D01*
X121179747Y-136266063D01*
X121025383Y-136187410D01*
X120785785Y-136109560D01*
X120536962Y-136070150D01*
X120285038Y-136070150D01*
X120160626Y-136089855D01*
X120036214Y-136109560D01*
X119796616Y-136187410D01*
X119572151Y-136301782D01*
X119368350Y-136449851D01*
X119368345Y-136449855D01*
X119190205Y-136627995D01*
X119190201Y-136628000D01*
X119042132Y-136831801D01*
X118927760Y-137056266D01*
X118849910Y-137295864D01*
X118810500Y-137544688D01*
X105466000Y-137544688D01*
X105466000Y-135004688D01*
X112460500Y-135004688D01*
X112460500Y-135256611D01*
X112499910Y-135505435D01*
X112577760Y-135745033D01*
X112692132Y-135969498D01*
X112840201Y-136173299D01*
X112840205Y-136173304D01*
X113018345Y-136351444D01*
X113018350Y-136351448D01*
X113163108Y-136456620D01*
X113222155Y-136499520D01*
X113365184Y-136572397D01*
X113446616Y-136613889D01*
X113446618Y-136613889D01*
X113446621Y-136613891D01*
X113686215Y-136691740D01*
X113935038Y-136731150D01*
X113935039Y-136731150D01*
X114186961Y-136731150D01*
X114186962Y-136731150D01*
X114435785Y-136691740D01*
X114675379Y-136613891D01*
X114899845Y-136499520D01*
X115103656Y-136351443D01*
X115281793Y-136173306D01*
X115429870Y-135969495D01*
X115544241Y-135745029D01*
X115622090Y-135505435D01*
X115661500Y-135256612D01*
X115661500Y-135004688D01*
X115622090Y-134755865D01*
X115544241Y-134516271D01*
X115544239Y-134516268D01*
X115544239Y-134516266D01*
X115510171Y-134449404D01*
X129543501Y-134449404D01*
X129553819Y-134550402D01*
X129608046Y-134714050D01*
X129608051Y-134714061D01*
X129698552Y-134860784D01*
X129698555Y-134860788D01*
X129820461Y-134982694D01*
X129820465Y-134982697D01*
X129967188Y-135073198D01*
X129967199Y-135073203D01*
X130130847Y-135127430D01*
X130231851Y-135137749D01*
X130331000Y-135137748D01*
X130331000Y-134412750D01*
X129543501Y-134412750D01*
X129543501Y-134449404D01*
X115510171Y-134449404D01*
X115494008Y-134417683D01*
X115491494Y-134412750D01*
X115429870Y-134291805D01*
X115410952Y-134265767D01*
X115281798Y-134088000D01*
X115281794Y-134087995D01*
X115103654Y-133909855D01*
X115103649Y-133909851D01*
X115057188Y-133876095D01*
X129543500Y-133876095D01*
X129543500Y-133912750D01*
X130331000Y-133912750D01*
X130331000Y-133187749D01*
X130231860Y-133187750D01*
X130231844Y-133187751D01*
X130130847Y-133198069D01*
X129967199Y-133252296D01*
X129967188Y-133252301D01*
X129820465Y-133342802D01*
X129820461Y-133342805D01*
X129698555Y-133464711D01*
X129698552Y-133464715D01*
X129608051Y-133611438D01*
X129608046Y-133611449D01*
X129553819Y-133775097D01*
X129543500Y-133876095D01*
X115057188Y-133876095D01*
X114899848Y-133761782D01*
X114899847Y-133761781D01*
X114899845Y-133761780D01*
X114829747Y-133726063D01*
X114675383Y-133647410D01*
X114435785Y-133569560D01*
X114186962Y-133530150D01*
X113935038Y-133530150D01*
X113810626Y-133549855D01*
X113686214Y-133569560D01*
X113446616Y-133647410D01*
X113222151Y-133761782D01*
X113018350Y-133909851D01*
X113018345Y-133909855D01*
X112840205Y-134087995D01*
X112840201Y-134088000D01*
X112692132Y-134291801D01*
X112577760Y-134516266D01*
X112499910Y-134755864D01*
X112460500Y-135004688D01*
X105466000Y-135004688D01*
X105466000Y-121074039D01*
X110420500Y-121074039D01*
X110420500Y-121247260D01*
X110434564Y-121336061D01*
X110447598Y-121418351D01*
X110501127Y-121583095D01*
X110579768Y-121737438D01*
X110681586Y-121877578D01*
X110804072Y-122000064D01*
X110944212Y-122101882D01*
X111098555Y-122180523D01*
X111263299Y-122234052D01*
X111434389Y-122261150D01*
X111434390Y-122261150D01*
X111607610Y-122261150D01*
X111607611Y-122261150D01*
X111778701Y-122234052D01*
X111943445Y-122180523D01*
X112097788Y-122101882D01*
X112237928Y-122000064D01*
X112360414Y-121877578D01*
X112462232Y-121737438D01*
X112540873Y-121583095D01*
X112594402Y-121418351D01*
X112621500Y-121247261D01*
X112621500Y-121074039D01*
X112611854Y-121013136D01*
X114350500Y-121013136D01*
X114350500Y-121308163D01*
X114377089Y-121510116D01*
X114389007Y-121600643D01*
X114463212Y-121877580D01*
X114465361Y-121885601D01*
X114465364Y-121885611D01*
X114578254Y-122158150D01*
X114578258Y-122158160D01*
X114725761Y-122413643D01*
X114905352Y-122647690D01*
X114905358Y-122647697D01*
X115113952Y-122856291D01*
X115113959Y-122856297D01*
X115348006Y-123035888D01*
X115603489Y-123183391D01*
X115603490Y-123183391D01*
X115603493Y-123183393D01*
X115876048Y-123296289D01*
X116161007Y-123372643D01*
X116453494Y-123411150D01*
X116453501Y-123411150D01*
X116748499Y-123411150D01*
X116748506Y-123411150D01*
X117040993Y-123372643D01*
X117325952Y-123296289D01*
X117598507Y-123183393D01*
X117853994Y-123035888D01*
X118088042Y-122856296D01*
X118296646Y-122647692D01*
X118405490Y-122505844D01*
X127754500Y-122505844D01*
X127760901Y-122565372D01*
X127760903Y-122565379D01*
X127811145Y-122700086D01*
X127811149Y-122700093D01*
X127897309Y-122815187D01*
X127897312Y-122815190D01*
X128012406Y-122901350D01*
X128012413Y-122901354D01*
X128147120Y-122951596D01*
X128147127Y-122951598D01*
X128206655Y-122957999D01*
X128206672Y-122958000D01*
X129104500Y-122958000D01*
X129604500Y-122958000D01*
X130502328Y-122958000D01*
X130502344Y-122957999D01*
X130561872Y-122951598D01*
X130561879Y-122951596D01*
X130696586Y-122901354D01*
X130696593Y-122901350D01*
X130811687Y-122815190D01*
X130811690Y-122815187D01*
X130897850Y-122700093D01*
X130897854Y-122700086D01*
X130948096Y-122565379D01*
X130948098Y-122565372D01*
X130954499Y-122505844D01*
X130954500Y-122505827D01*
X130954500Y-122258000D01*
X129604500Y-122258000D01*
X129604500Y-122958000D01*
X129104500Y-122958000D01*
X129104500Y-122258000D01*
X127754500Y-122258000D01*
X127754500Y-122505844D01*
X118405490Y-122505844D01*
X118476238Y-122413644D01*
X118623743Y-122158157D01*
X118736639Y-121885602D01*
X118812993Y-121600643D01*
X118851500Y-121308156D01*
X118851500Y-121013144D01*
X118812993Y-120720657D01*
X118736639Y-120435698D01*
X118623743Y-120163143D01*
X118476238Y-119907656D01*
X118296646Y-119673608D01*
X118296641Y-119673602D01*
X118088047Y-119465008D01*
X118088040Y-119465002D01*
X117853993Y-119285411D01*
X117598510Y-119137908D01*
X117598500Y-119137904D01*
X117325961Y-119025014D01*
X117325954Y-119025012D01*
X117325952Y-119025011D01*
X117040993Y-118948657D01*
X116992113Y-118942221D01*
X116748513Y-118910150D01*
X116748506Y-118910150D01*
X116453494Y-118910150D01*
X116453486Y-118910150D01*
X116175085Y-118946803D01*
X116161007Y-118948657D01*
X115986428Y-118995435D01*
X115876048Y-119025011D01*
X115876038Y-119025014D01*
X115603499Y-119137904D01*
X115603489Y-119137908D01*
X115348006Y-119285411D01*
X115113959Y-119465002D01*
X115113952Y-119465008D01*
X114905358Y-119673602D01*
X114905352Y-119673609D01*
X114725761Y-119907656D01*
X114578258Y-120163139D01*
X114578254Y-120163149D01*
X114465364Y-120435688D01*
X114465361Y-120435698D01*
X114389008Y-120720654D01*
X114389006Y-120720665D01*
X114350500Y-121013136D01*
X112611854Y-121013136D01*
X112594402Y-120902949D01*
X112540873Y-120738205D01*
X112462232Y-120583862D01*
X112360414Y-120443722D01*
X112237928Y-120321236D01*
X112097788Y-120219418D01*
X111943445Y-120140777D01*
X111778701Y-120087248D01*
X111778699Y-120087247D01*
X111778698Y-120087247D01*
X111647271Y-120066431D01*
X111607611Y-120060150D01*
X111434389Y-120060150D01*
X111394728Y-120066431D01*
X111263302Y-120087247D01*
X111098552Y-120140778D01*
X110944211Y-120219418D01*
X110921957Y-120235587D01*
X110804072Y-120321236D01*
X110804070Y-120321238D01*
X110804069Y-120321238D01*
X110681588Y-120443719D01*
X110681588Y-120443720D01*
X110681586Y-120443722D01*
X110637859Y-120503906D01*
X110579768Y-120583861D01*
X110501128Y-120738202D01*
X110447597Y-120902952D01*
X110420500Y-121074039D01*
X105466000Y-121074039D01*
X105466000Y-118494688D01*
X118810500Y-118494688D01*
X118810500Y-118746612D01*
X118846440Y-118973527D01*
X118849910Y-118995435D01*
X118927760Y-119235033D01*
X118995508Y-119367994D01*
X119041455Y-119458171D01*
X119042132Y-119459498D01*
X119190201Y-119663299D01*
X119190205Y-119663304D01*
X119368345Y-119841444D01*
X119368350Y-119841448D01*
X119515174Y-119948121D01*
X119572155Y-119989520D01*
X119710223Y-120059869D01*
X119796616Y-120103889D01*
X119796618Y-120103889D01*
X119796621Y-120103891D01*
X120036215Y-120181740D01*
X120285038Y-120221150D01*
X120285039Y-120221150D01*
X120536961Y-120221150D01*
X120536962Y-120221150D01*
X120785785Y-120181740D01*
X120785788Y-120181738D01*
X120786438Y-120181636D01*
X120855731Y-120190590D01*
X120909183Y-120235587D01*
X120929823Y-120302338D01*
X120911098Y-120369652D01*
X120893518Y-120391789D01*
X120841589Y-120443718D01*
X120841588Y-120443720D01*
X120841586Y-120443722D01*
X120797859Y-120503906D01*
X120739768Y-120583861D01*
X120661128Y-120738202D01*
X120607597Y-120902952D01*
X120580500Y-121074039D01*
X120580500Y-121247260D01*
X120594564Y-121336061D01*
X120607598Y-121418351D01*
X120661127Y-121583095D01*
X120739768Y-121737438D01*
X120841586Y-121877578D01*
X120964072Y-122000064D01*
X121104212Y-122101882D01*
X121258555Y-122180523D01*
X121423299Y-122234052D01*
X121594389Y-122261150D01*
X121594390Y-122261150D01*
X121767610Y-122261150D01*
X121767611Y-122261150D01*
X121938701Y-122234052D01*
X122103445Y-122180523D01*
X122257788Y-122101882D01*
X122397928Y-122000064D01*
X122520414Y-121877578D01*
X122622232Y-121737438D01*
X122700873Y-121583095D01*
X122754402Y-121418351D01*
X122781500Y-121247261D01*
X122781500Y-121074039D01*
X122754402Y-120902949D01*
X122700873Y-120738205D01*
X122622232Y-120583862D01*
X122520414Y-120443722D01*
X122397928Y-120321236D01*
X122257788Y-120219418D01*
X122103445Y-120140777D01*
X121938701Y-120087248D01*
X121938699Y-120087247D01*
X121938698Y-120087247D01*
X121807271Y-120066431D01*
X121767611Y-120060150D01*
X121594389Y-120060150D01*
X121539621Y-120068824D01*
X121470328Y-120059869D01*
X121416876Y-120014873D01*
X121396237Y-119948121D01*
X121414962Y-119880807D01*
X121447340Y-119846031D01*
X121453656Y-119841443D01*
X121631793Y-119663306D01*
X121779870Y-119459495D01*
X121894241Y-119235029D01*
X121972090Y-118995435D01*
X122011500Y-118746612D01*
X122011500Y-118494688D01*
X121972090Y-118245865D01*
X121894241Y-118006271D01*
X121894239Y-118006268D01*
X121894239Y-118006266D01*
X121827397Y-117875083D01*
X121779870Y-117781805D01*
X121678107Y-117641740D01*
X121631798Y-117578000D01*
X121631794Y-117577995D01*
X121453654Y-117399855D01*
X121453649Y-117399851D01*
X121249848Y-117251782D01*
X121249847Y-117251781D01*
X121249845Y-117251780D01*
X121179747Y-117216063D01*
X121025383Y-117137410D01*
X120785785Y-117059560D01*
X120536962Y-117020150D01*
X120285038Y-117020150D01*
X120160626Y-117039855D01*
X120036214Y-117059560D01*
X119796616Y-117137410D01*
X119572151Y-117251782D01*
X119368350Y-117399851D01*
X119368345Y-117399855D01*
X119190205Y-117577995D01*
X119190201Y-117578000D01*
X119042132Y-117781801D01*
X118927760Y-118006266D01*
X118849910Y-118245864D01*
X118816593Y-118456216D01*
X118810500Y-118494688D01*
X105466000Y-118494688D01*
X105466000Y-115954688D01*
X112460500Y-115954688D01*
X112460500Y-116206612D01*
X112465085Y-116235561D01*
X112499910Y-116455435D01*
X112577760Y-116695033D01*
X112692132Y-116919498D01*
X112840201Y-117123299D01*
X112840205Y-117123304D01*
X113018345Y-117301444D01*
X113018350Y-117301448D01*
X113196117Y-117430602D01*
X113222155Y-117449520D01*
X113365184Y-117522397D01*
X113446616Y-117563889D01*
X113446618Y-117563889D01*
X113446621Y-117563891D01*
X113686215Y-117641740D01*
X113935038Y-117681150D01*
X113935039Y-117681150D01*
X114186961Y-117681150D01*
X114186962Y-117681150D01*
X114435785Y-117641740D01*
X114675379Y-117563891D01*
X114899845Y-117449520D01*
X115103656Y-117301443D01*
X115281793Y-117123306D01*
X115429870Y-116919495D01*
X115544241Y-116695029D01*
X115622090Y-116455435D01*
X115661500Y-116206612D01*
X115661500Y-115970904D01*
X129353001Y-115970904D01*
X129363319Y-116071902D01*
X129417546Y-116235550D01*
X129417551Y-116235561D01*
X129508052Y-116382284D01*
X129508055Y-116382288D01*
X129629961Y-116504194D01*
X129629965Y-116504197D01*
X129776688Y-116594698D01*
X129776699Y-116594703D01*
X129940347Y-116648930D01*
X130041351Y-116659249D01*
X130140500Y-116659248D01*
X130140500Y-115934250D01*
X129353001Y-115934250D01*
X129353001Y-115970904D01*
X115661500Y-115970904D01*
X115661500Y-115954688D01*
X115622090Y-115705865D01*
X115544241Y-115466271D01*
X115544238Y-115466267D01*
X115544238Y-115466264D01*
X115536329Y-115450742D01*
X115536328Y-115450741D01*
X115509249Y-115397595D01*
X129353000Y-115397595D01*
X129353000Y-115434250D01*
X130140500Y-115434250D01*
X130140500Y-114709249D01*
X130041360Y-114709250D01*
X130041344Y-114709251D01*
X129940347Y-114719569D01*
X129776699Y-114773796D01*
X129776688Y-114773801D01*
X129629965Y-114864302D01*
X129629961Y-114864305D01*
X129508055Y-114986211D01*
X129508052Y-114986215D01*
X129417551Y-115132938D01*
X129417546Y-115132949D01*
X129363319Y-115296597D01*
X129353000Y-115397595D01*
X115509249Y-115397595D01*
X115429870Y-115241805D01*
X115340580Y-115118907D01*
X115281798Y-115038000D01*
X115281794Y-115037995D01*
X115103654Y-114859855D01*
X115103649Y-114859851D01*
X114899848Y-114711782D01*
X114899847Y-114711781D01*
X114899845Y-114711780D01*
X114822618Y-114672431D01*
X114675383Y-114597410D01*
X114435785Y-114519560D01*
X114186962Y-114480150D01*
X113935038Y-114480150D01*
X113810626Y-114499855D01*
X113686214Y-114519560D01*
X113446616Y-114597410D01*
X113222151Y-114711782D01*
X113018350Y-114859851D01*
X113018345Y-114859855D01*
X112840205Y-115037995D01*
X112840201Y-115038000D01*
X112692132Y-115241801D01*
X112577760Y-115466266D01*
X112499910Y-115705864D01*
X112499910Y-115705865D01*
X112460500Y-115954688D01*
X105466000Y-115954688D01*
X105466000Y-102024039D01*
X110420500Y-102024039D01*
X110420500Y-102197261D01*
X110422280Y-102208499D01*
X110443344Y-102341497D01*
X110447598Y-102368351D01*
X110501127Y-102533095D01*
X110579768Y-102687438D01*
X110681586Y-102827578D01*
X110804072Y-102950064D01*
X110944212Y-103051882D01*
X111098555Y-103130523D01*
X111263299Y-103184052D01*
X111434389Y-103211150D01*
X111434390Y-103211150D01*
X111607610Y-103211150D01*
X111607611Y-103211150D01*
X111778701Y-103184052D01*
X111943445Y-103130523D01*
X112097788Y-103051882D01*
X112237928Y-102950064D01*
X112360414Y-102827578D01*
X112462232Y-102687438D01*
X112540873Y-102533095D01*
X112594402Y-102368351D01*
X112621500Y-102197261D01*
X112621500Y-102024039D01*
X112611854Y-101963136D01*
X114350500Y-101963136D01*
X114350500Y-102258163D01*
X114382571Y-102501763D01*
X114389007Y-102550643D01*
X114463212Y-102827580D01*
X114465361Y-102835601D01*
X114465364Y-102835611D01*
X114578254Y-103108150D01*
X114578258Y-103108160D01*
X114725761Y-103363643D01*
X114905352Y-103597690D01*
X114905358Y-103597697D01*
X115113952Y-103806291D01*
X115113959Y-103806297D01*
X115348006Y-103985888D01*
X115603489Y-104133391D01*
X115603490Y-104133391D01*
X115603493Y-104133393D01*
X115876048Y-104246289D01*
X116161007Y-104322643D01*
X116453494Y-104361150D01*
X116453501Y-104361150D01*
X116748499Y-104361150D01*
X116748506Y-104361150D01*
X117040993Y-104322643D01*
X117325952Y-104246289D01*
X117598507Y-104133393D01*
X117853994Y-103985888D01*
X118088042Y-103806296D01*
X118296646Y-103597692D01*
X118405490Y-103455844D01*
X127945000Y-103455844D01*
X127951401Y-103515372D01*
X127951403Y-103515379D01*
X128001645Y-103650086D01*
X128001649Y-103650093D01*
X128087809Y-103765187D01*
X128087812Y-103765190D01*
X128202906Y-103851350D01*
X128202913Y-103851354D01*
X128337620Y-103901596D01*
X128337627Y-103901598D01*
X128397155Y-103907999D01*
X128397172Y-103908000D01*
X129295000Y-103908000D01*
X129795000Y-103908000D01*
X130692828Y-103908000D01*
X130692844Y-103907999D01*
X130752372Y-103901598D01*
X130752379Y-103901596D01*
X130887086Y-103851354D01*
X130887093Y-103851350D01*
X131002187Y-103765190D01*
X131002190Y-103765187D01*
X131088350Y-103650093D01*
X131088354Y-103650086D01*
X131138596Y-103515379D01*
X131138598Y-103515372D01*
X131144999Y-103455844D01*
X131145000Y-103455827D01*
X131145000Y-103208000D01*
X129795000Y-103208000D01*
X129795000Y-103908000D01*
X129295000Y-103908000D01*
X129295000Y-103208000D01*
X127945000Y-103208000D01*
X127945000Y-103455844D01*
X118405490Y-103455844D01*
X118476238Y-103363644D01*
X118623743Y-103108157D01*
X118736639Y-102835602D01*
X118812993Y-102550643D01*
X118851500Y-102258156D01*
X118851500Y-101963144D01*
X118812993Y-101670657D01*
X118736639Y-101385698D01*
X118623743Y-101113143D01*
X118476238Y-100857656D01*
X118296646Y-100623608D01*
X118296641Y-100623602D01*
X118088047Y-100415008D01*
X118088040Y-100415002D01*
X117853993Y-100235411D01*
X117598510Y-100087908D01*
X117598500Y-100087904D01*
X117325961Y-99975014D01*
X117325954Y-99975012D01*
X117325952Y-99975011D01*
X117040993Y-99898657D01*
X116992113Y-99892221D01*
X116748513Y-99860150D01*
X116748506Y-99860150D01*
X116453494Y-99860150D01*
X116453486Y-99860150D01*
X116175085Y-99896803D01*
X116161007Y-99898657D01*
X115986428Y-99945435D01*
X115876048Y-99975011D01*
X115876038Y-99975014D01*
X115603499Y-100087904D01*
X115603489Y-100087908D01*
X115348006Y-100235411D01*
X115113959Y-100415002D01*
X115113952Y-100415008D01*
X114905358Y-100623602D01*
X114905352Y-100623609D01*
X114725761Y-100857656D01*
X114578258Y-101113139D01*
X114578254Y-101113149D01*
X114465364Y-101385688D01*
X114465361Y-101385698D01*
X114389008Y-101670654D01*
X114389006Y-101670665D01*
X114350500Y-101963136D01*
X112611854Y-101963136D01*
X112594402Y-101852949D01*
X112540873Y-101688205D01*
X112462232Y-101533862D01*
X112360414Y-101393722D01*
X112237928Y-101271236D01*
X112097788Y-101169418D01*
X111943445Y-101090777D01*
X111778701Y-101037248D01*
X111778699Y-101037247D01*
X111778698Y-101037247D01*
X111647271Y-101016431D01*
X111607611Y-101010150D01*
X111434389Y-101010150D01*
X111394728Y-101016431D01*
X111263302Y-101037247D01*
X111098552Y-101090778D01*
X110944211Y-101169418D01*
X110921957Y-101185587D01*
X110804072Y-101271236D01*
X110804070Y-101271238D01*
X110804069Y-101271238D01*
X110681588Y-101393719D01*
X110681588Y-101393720D01*
X110681586Y-101393722D01*
X110637859Y-101453906D01*
X110579768Y-101533861D01*
X110501128Y-101688202D01*
X110447597Y-101852952D01*
X110422897Y-102008904D01*
X110420500Y-102024039D01*
X105466000Y-102024039D01*
X105466000Y-99444688D01*
X118810500Y-99444688D01*
X118810500Y-99696611D01*
X118849910Y-99945435D01*
X118927760Y-100185033D01*
X119042132Y-100409498D01*
X119190201Y-100613299D01*
X119190205Y-100613304D01*
X119368345Y-100791444D01*
X119368350Y-100791448D01*
X119515174Y-100898121D01*
X119572155Y-100939520D01*
X119710223Y-101009869D01*
X119796616Y-101053889D01*
X119796618Y-101053889D01*
X119796621Y-101053891D01*
X120036215Y-101131740D01*
X120285038Y-101171150D01*
X120285039Y-101171150D01*
X120536961Y-101171150D01*
X120536962Y-101171150D01*
X120785785Y-101131740D01*
X120785788Y-101131738D01*
X120786438Y-101131636D01*
X120855731Y-101140590D01*
X120909183Y-101185587D01*
X120929823Y-101252338D01*
X120911098Y-101319652D01*
X120893518Y-101341789D01*
X120841589Y-101393718D01*
X120841588Y-101393720D01*
X120841586Y-101393722D01*
X120797859Y-101453906D01*
X120739768Y-101533861D01*
X120661128Y-101688202D01*
X120607597Y-101852952D01*
X120582897Y-102008904D01*
X120580500Y-102024039D01*
X120580500Y-102197261D01*
X120582280Y-102208499D01*
X120603344Y-102341497D01*
X120607598Y-102368351D01*
X120661127Y-102533095D01*
X120739768Y-102687438D01*
X120841586Y-102827578D01*
X120964072Y-102950064D01*
X121104212Y-103051882D01*
X121258555Y-103130523D01*
X121423299Y-103184052D01*
X121594389Y-103211150D01*
X121594390Y-103211150D01*
X121767610Y-103211150D01*
X121767611Y-103211150D01*
X121938701Y-103184052D01*
X122103445Y-103130523D01*
X122257788Y-103051882D01*
X122397928Y-102950064D01*
X122520414Y-102827578D01*
X122622232Y-102687438D01*
X122700873Y-102533095D01*
X122754402Y-102368351D01*
X122781500Y-102197261D01*
X122781500Y-102024039D01*
X122754402Y-101852949D01*
X122700873Y-101688205D01*
X122622232Y-101533862D01*
X122520414Y-101393722D01*
X122397928Y-101271236D01*
X122257788Y-101169418D01*
X122103445Y-101090777D01*
X121938701Y-101037248D01*
X121938699Y-101037247D01*
X121938698Y-101037247D01*
X121807271Y-101016431D01*
X121767611Y-101010150D01*
X121594389Y-101010150D01*
X121539621Y-101018824D01*
X121470328Y-101009869D01*
X121416876Y-100964873D01*
X121396237Y-100898121D01*
X121414962Y-100830807D01*
X121447340Y-100796031D01*
X121453656Y-100791443D01*
X121631793Y-100613306D01*
X121779870Y-100409495D01*
X121894241Y-100185029D01*
X121972090Y-99945435D01*
X122011500Y-99696612D01*
X122011500Y-99444688D01*
X121972090Y-99195865D01*
X121894241Y-98956271D01*
X121894239Y-98956268D01*
X121894239Y-98956266D01*
X121852747Y-98874834D01*
X121779870Y-98731805D01*
X121678107Y-98591740D01*
X121631798Y-98528000D01*
X121631794Y-98527995D01*
X121453654Y-98349855D01*
X121453649Y-98349851D01*
X121249848Y-98201782D01*
X121249847Y-98201781D01*
X121249845Y-98201780D01*
X121179747Y-98166063D01*
X121025383Y-98087410D01*
X120785785Y-98009560D01*
X120536962Y-97970150D01*
X120285038Y-97970150D01*
X120160626Y-97989855D01*
X120036214Y-98009560D01*
X119796616Y-98087410D01*
X119572151Y-98201782D01*
X119368350Y-98349851D01*
X119368345Y-98349855D01*
X119190205Y-98527995D01*
X119190201Y-98528000D01*
X119042132Y-98731801D01*
X118927760Y-98956266D01*
X118849910Y-99195864D01*
X118810500Y-99444688D01*
X105466000Y-99444688D01*
X105466000Y-96904688D01*
X112460500Y-96904688D01*
X112460500Y-97156612D01*
X112484963Y-97311061D01*
X112499910Y-97405435D01*
X112577760Y-97645033D01*
X112692132Y-97869498D01*
X112840201Y-98073299D01*
X112840205Y-98073304D01*
X113018345Y-98251444D01*
X113018350Y-98251448D01*
X113196117Y-98380602D01*
X113222155Y-98399520D01*
X113365184Y-98472397D01*
X113446616Y-98513889D01*
X113446618Y-98513889D01*
X113446621Y-98513891D01*
X113686215Y-98591740D01*
X113935038Y-98631150D01*
X113935039Y-98631150D01*
X114186961Y-98631150D01*
X114186962Y-98631150D01*
X114435785Y-98591740D01*
X114675379Y-98513891D01*
X114899845Y-98399520D01*
X115103656Y-98251443D01*
X115281793Y-98073306D01*
X115429870Y-97869495D01*
X115544241Y-97645029D01*
X115622090Y-97405435D01*
X115661500Y-97156612D01*
X115661500Y-96904688D01*
X115622090Y-96655865D01*
X115584412Y-96539904D01*
X129543501Y-96539904D01*
X129553819Y-96640902D01*
X129608046Y-96804550D01*
X129608051Y-96804561D01*
X129698552Y-96951284D01*
X129698555Y-96951288D01*
X129820461Y-97073194D01*
X129820465Y-97073197D01*
X129967188Y-97163698D01*
X129967199Y-97163703D01*
X130130847Y-97217930D01*
X130231851Y-97228249D01*
X130331000Y-97228248D01*
X130331000Y-96503250D01*
X129543501Y-96503250D01*
X129543501Y-96539904D01*
X115584412Y-96539904D01*
X115544241Y-96416271D01*
X115544239Y-96416268D01*
X115544239Y-96416266D01*
X115502747Y-96334834D01*
X115429870Y-96191805D01*
X115421668Y-96180516D01*
X115316913Y-96036331D01*
X115281798Y-95988000D01*
X115281794Y-95987995D01*
X115260394Y-95966595D01*
X129543500Y-95966595D01*
X129543500Y-96003250D01*
X130331000Y-96003250D01*
X130331000Y-95278249D01*
X130231860Y-95278250D01*
X130231844Y-95278251D01*
X130130847Y-95288569D01*
X129967199Y-95342796D01*
X129967188Y-95342801D01*
X129820465Y-95433302D01*
X129820461Y-95433305D01*
X129698555Y-95555211D01*
X129698552Y-95555215D01*
X129608051Y-95701938D01*
X129608046Y-95701949D01*
X129553819Y-95865597D01*
X129543500Y-95966595D01*
X115260394Y-95966595D01*
X115103654Y-95809855D01*
X115103649Y-95809851D01*
X114899848Y-95661782D01*
X114899847Y-95661781D01*
X114899845Y-95661780D01*
X114829747Y-95626063D01*
X114675383Y-95547410D01*
X114435785Y-95469560D01*
X114186962Y-95430150D01*
X113935038Y-95430150D01*
X113810626Y-95449855D01*
X113686214Y-95469560D01*
X113446616Y-95547410D01*
X113222151Y-95661782D01*
X113018350Y-95809851D01*
X113018345Y-95809855D01*
X112840205Y-95987995D01*
X112840201Y-95988000D01*
X112692132Y-96191801D01*
X112577760Y-96416266D01*
X112499910Y-96655864D01*
X112475223Y-96811730D01*
X112460500Y-96904688D01*
X105466000Y-96904688D01*
X105466000Y-82974039D01*
X110420500Y-82974039D01*
X110420500Y-83147260D01*
X110434564Y-83236061D01*
X110447598Y-83318351D01*
X110501127Y-83483095D01*
X110579768Y-83637438D01*
X110681586Y-83777578D01*
X110804072Y-83900064D01*
X110944212Y-84001882D01*
X111098555Y-84080523D01*
X111263299Y-84134052D01*
X111434389Y-84161150D01*
X111434390Y-84161150D01*
X111607610Y-84161150D01*
X111607611Y-84161150D01*
X111778701Y-84134052D01*
X111943445Y-84080523D01*
X112097788Y-84001882D01*
X112237928Y-83900064D01*
X112360414Y-83777578D01*
X112462232Y-83637438D01*
X112540873Y-83483095D01*
X112594402Y-83318351D01*
X112621500Y-83147261D01*
X112621500Y-82974039D01*
X112611854Y-82913136D01*
X114350500Y-82913136D01*
X114350500Y-83208163D01*
X114377089Y-83410116D01*
X114389007Y-83500643D01*
X114463212Y-83777580D01*
X114465361Y-83785601D01*
X114465364Y-83785611D01*
X114578254Y-84058150D01*
X114578258Y-84058160D01*
X114725761Y-84313643D01*
X114905352Y-84547690D01*
X114905358Y-84547697D01*
X115113952Y-84756291D01*
X115113959Y-84756297D01*
X115348006Y-84935888D01*
X115603489Y-85083391D01*
X115603490Y-85083391D01*
X115603493Y-85083393D01*
X115876048Y-85196289D01*
X116161007Y-85272643D01*
X116453494Y-85311150D01*
X116453501Y-85311150D01*
X116748499Y-85311150D01*
X116748506Y-85311150D01*
X117040993Y-85272643D01*
X117325952Y-85196289D01*
X117598507Y-85083393D01*
X117853994Y-84935888D01*
X118088042Y-84756296D01*
X118296646Y-84547692D01*
X118405490Y-84405844D01*
X127754500Y-84405844D01*
X127760901Y-84465372D01*
X127760903Y-84465379D01*
X127811145Y-84600086D01*
X127811149Y-84600093D01*
X127897309Y-84715187D01*
X127897312Y-84715190D01*
X128012406Y-84801350D01*
X128012413Y-84801354D01*
X128147120Y-84851596D01*
X128147127Y-84851598D01*
X128206655Y-84857999D01*
X128206672Y-84858000D01*
X129104500Y-84858000D01*
X129604500Y-84858000D01*
X130502328Y-84858000D01*
X130502344Y-84857999D01*
X130561872Y-84851598D01*
X130561879Y-84851596D01*
X130696586Y-84801354D01*
X130696593Y-84801350D01*
X130811687Y-84715190D01*
X130811690Y-84715187D01*
X130897850Y-84600093D01*
X130897854Y-84600086D01*
X130948096Y-84465379D01*
X130948098Y-84465372D01*
X130954499Y-84405844D01*
X130954500Y-84405827D01*
X130954500Y-84158000D01*
X129604500Y-84158000D01*
X129604500Y-84858000D01*
X129104500Y-84858000D01*
X129104500Y-84158000D01*
X127754500Y-84158000D01*
X127754500Y-84405844D01*
X118405490Y-84405844D01*
X118476238Y-84313644D01*
X118623743Y-84058157D01*
X118736639Y-83785602D01*
X118812993Y-83500643D01*
X118851500Y-83208156D01*
X118851500Y-82913144D01*
X118812993Y-82620657D01*
X118736639Y-82335698D01*
X118623743Y-82063143D01*
X118476238Y-81807656D01*
X118296646Y-81573608D01*
X118296641Y-81573602D01*
X118088047Y-81365008D01*
X118088040Y-81365002D01*
X117853993Y-81185411D01*
X117598510Y-81037908D01*
X117598500Y-81037904D01*
X117325961Y-80925014D01*
X117325954Y-80925012D01*
X117325952Y-80925011D01*
X117040993Y-80848657D01*
X116992113Y-80842221D01*
X116748513Y-80810150D01*
X116748506Y-80810150D01*
X116453494Y-80810150D01*
X116453486Y-80810150D01*
X116175085Y-80846803D01*
X116161007Y-80848657D01*
X115986428Y-80895435D01*
X115876048Y-80925011D01*
X115876038Y-80925014D01*
X115603499Y-81037904D01*
X115603489Y-81037908D01*
X115348006Y-81185411D01*
X115113959Y-81365002D01*
X115113952Y-81365008D01*
X114905358Y-81573602D01*
X114905352Y-81573609D01*
X114725761Y-81807656D01*
X114578258Y-82063139D01*
X114578254Y-82063149D01*
X114465364Y-82335688D01*
X114465361Y-82335698D01*
X114389008Y-82620654D01*
X114389006Y-82620665D01*
X114350500Y-82913136D01*
X112611854Y-82913136D01*
X112594402Y-82802949D01*
X112540873Y-82638205D01*
X112462232Y-82483862D01*
X112360414Y-82343722D01*
X112237928Y-82221236D01*
X112097788Y-82119418D01*
X111943445Y-82040777D01*
X111778701Y-81987248D01*
X111778699Y-81987247D01*
X111778698Y-81987247D01*
X111647271Y-81966431D01*
X111607611Y-81960150D01*
X111434389Y-81960150D01*
X111394728Y-81966431D01*
X111263302Y-81987247D01*
X111098552Y-82040778D01*
X110944211Y-82119418D01*
X110921957Y-82135587D01*
X110804072Y-82221236D01*
X110804070Y-82221238D01*
X110804069Y-82221238D01*
X110681588Y-82343719D01*
X110681588Y-82343720D01*
X110681586Y-82343722D01*
X110637859Y-82403906D01*
X110579768Y-82483861D01*
X110501128Y-82638202D01*
X110447597Y-82802952D01*
X110420500Y-82974039D01*
X105466000Y-82974039D01*
X105466000Y-80394688D01*
X118810500Y-80394688D01*
X118810500Y-80646612D01*
X118811705Y-80654217D01*
X118849910Y-80895435D01*
X118927760Y-81135033D01*
X119042132Y-81359498D01*
X119190201Y-81563299D01*
X119190205Y-81563304D01*
X119368345Y-81741444D01*
X119368350Y-81741448D01*
X119515174Y-81848121D01*
X119572155Y-81889520D01*
X119710223Y-81959869D01*
X119796616Y-82003889D01*
X119796618Y-82003889D01*
X119796621Y-82003891D01*
X120036215Y-82081740D01*
X120285038Y-82121150D01*
X120285039Y-82121150D01*
X120536961Y-82121150D01*
X120536962Y-82121150D01*
X120785785Y-82081740D01*
X120785788Y-82081738D01*
X120786438Y-82081636D01*
X120855731Y-82090590D01*
X120909183Y-82135587D01*
X120929823Y-82202338D01*
X120911098Y-82269652D01*
X120893518Y-82291789D01*
X120841589Y-82343718D01*
X120841588Y-82343720D01*
X120841586Y-82343722D01*
X120797859Y-82403906D01*
X120739768Y-82483861D01*
X120661128Y-82638202D01*
X120607597Y-82802952D01*
X120580500Y-82974039D01*
X120580500Y-83147260D01*
X120594564Y-83236061D01*
X120607598Y-83318351D01*
X120661127Y-83483095D01*
X120739768Y-83637438D01*
X120841586Y-83777578D01*
X120964072Y-83900064D01*
X121104212Y-84001882D01*
X121258555Y-84080523D01*
X121423299Y-84134052D01*
X121594389Y-84161150D01*
X121594390Y-84161150D01*
X121767610Y-84161150D01*
X121767611Y-84161150D01*
X121938701Y-84134052D01*
X122103445Y-84080523D01*
X122257788Y-84001882D01*
X122397928Y-83900064D01*
X122520414Y-83777578D01*
X122622232Y-83637438D01*
X122700873Y-83483095D01*
X122754402Y-83318351D01*
X122781500Y-83147261D01*
X122781500Y-82974039D01*
X122754402Y-82802949D01*
X122700873Y-82638205D01*
X122622232Y-82483862D01*
X122520414Y-82343722D01*
X122397928Y-82221236D01*
X122257788Y-82119418D01*
X122103445Y-82040777D01*
X121938701Y-81987248D01*
X121938699Y-81987247D01*
X121938698Y-81987247D01*
X121807271Y-81966431D01*
X121767611Y-81960150D01*
X121594389Y-81960150D01*
X121539621Y-81968824D01*
X121470328Y-81959869D01*
X121416876Y-81914873D01*
X121396237Y-81848121D01*
X121414962Y-81780807D01*
X121447340Y-81746031D01*
X121453656Y-81741443D01*
X121631793Y-81563306D01*
X121779870Y-81359495D01*
X121894241Y-81135029D01*
X121972090Y-80895435D01*
X122011500Y-80646612D01*
X122011500Y-80394688D01*
X121972090Y-80145865D01*
X121894241Y-79906271D01*
X121894239Y-79906268D01*
X121894239Y-79906266D01*
X121849098Y-79817672D01*
X121779870Y-79681805D01*
X121678107Y-79541740D01*
X121631798Y-79478000D01*
X121631794Y-79477995D01*
X121453654Y-79299855D01*
X121453649Y-79299851D01*
X121249848Y-79151782D01*
X121249847Y-79151781D01*
X121249845Y-79151780D01*
X121155618Y-79103769D01*
X121025383Y-79037410D01*
X120785785Y-78959560D01*
X120700531Y-78946057D01*
X120536962Y-78920150D01*
X120285038Y-78920150D01*
X120160626Y-78939855D01*
X120036214Y-78959560D01*
X119796616Y-79037410D01*
X119572151Y-79151782D01*
X119368350Y-79299851D01*
X119368345Y-79299855D01*
X119190205Y-79477995D01*
X119190201Y-79478000D01*
X119042132Y-79681801D01*
X118927760Y-79906266D01*
X118849910Y-80145864D01*
X118849588Y-80147897D01*
X118810500Y-80394688D01*
X105466000Y-80394688D01*
X105466000Y-77854688D01*
X112460500Y-77854688D01*
X112460500Y-78106612D01*
X112465085Y-78135561D01*
X112499910Y-78355435D01*
X112577760Y-78595033D01*
X112646076Y-78729109D01*
X112690711Y-78816711D01*
X112692132Y-78819498D01*
X112840201Y-79023299D01*
X112840205Y-79023304D01*
X113018345Y-79201444D01*
X113018350Y-79201448D01*
X113196117Y-79330602D01*
X113222155Y-79349520D01*
X113365184Y-79422397D01*
X113446616Y-79463889D01*
X113446618Y-79463889D01*
X113446621Y-79463891D01*
X113686215Y-79541740D01*
X113935038Y-79581150D01*
X113935039Y-79581150D01*
X114186961Y-79581150D01*
X114186962Y-79581150D01*
X114435785Y-79541740D01*
X114675379Y-79463891D01*
X114899845Y-79349520D01*
X115103656Y-79201443D01*
X115281793Y-79023306D01*
X115429870Y-78819495D01*
X115544241Y-78595029D01*
X115622090Y-78355435D01*
X115661500Y-78106612D01*
X115661500Y-77854688D01*
X115622090Y-77605865D01*
X115544241Y-77366271D01*
X115544239Y-77366268D01*
X115544239Y-77366266D01*
X115502747Y-77284834D01*
X115429870Y-77141805D01*
X115350774Y-77032938D01*
X115281798Y-76938000D01*
X115281794Y-76937995D01*
X115103654Y-76759855D01*
X115103649Y-76759851D01*
X114899848Y-76611782D01*
X114899847Y-76611781D01*
X114899845Y-76611780D01*
X114822618Y-76572431D01*
X114675383Y-76497410D01*
X114435785Y-76419560D01*
X114186962Y-76380150D01*
X113935038Y-76380150D01*
X113810626Y-76399855D01*
X113686214Y-76419560D01*
X113446616Y-76497410D01*
X113222151Y-76611782D01*
X113018350Y-76759851D01*
X113018345Y-76759855D01*
X112840205Y-76937995D01*
X112840201Y-76938000D01*
X112692132Y-77141801D01*
X112577760Y-77366266D01*
X112499910Y-77605864D01*
X112499910Y-77605865D01*
X112460500Y-77854688D01*
X105466000Y-77854688D01*
X105466000Y-63924039D01*
X110420500Y-63924039D01*
X110420500Y-64097260D01*
X110434564Y-64186061D01*
X110447598Y-64268351D01*
X110501127Y-64433095D01*
X110579768Y-64587438D01*
X110681586Y-64727578D01*
X110804072Y-64850064D01*
X110944212Y-64951882D01*
X111098555Y-65030523D01*
X111263299Y-65084052D01*
X111434389Y-65111150D01*
X111434390Y-65111150D01*
X111607610Y-65111150D01*
X111607611Y-65111150D01*
X111778701Y-65084052D01*
X111943445Y-65030523D01*
X112097788Y-64951882D01*
X112237928Y-64850064D01*
X112360414Y-64727578D01*
X112462232Y-64587438D01*
X112540873Y-64433095D01*
X112594402Y-64268351D01*
X112621500Y-64097261D01*
X112621500Y-63924039D01*
X112611854Y-63863136D01*
X114350500Y-63863136D01*
X114350500Y-64158163D01*
X114377089Y-64360116D01*
X114389007Y-64450643D01*
X114463212Y-64727580D01*
X114465361Y-64735601D01*
X114465364Y-64735611D01*
X114578254Y-65008150D01*
X114578258Y-65008160D01*
X114725761Y-65263643D01*
X114905352Y-65497690D01*
X114905358Y-65497697D01*
X115113952Y-65706291D01*
X115113959Y-65706297D01*
X115348006Y-65885888D01*
X115603489Y-66033391D01*
X115603490Y-66033391D01*
X115603493Y-66033393D01*
X115876048Y-66146289D01*
X116161007Y-66222643D01*
X116453494Y-66261150D01*
X116453501Y-66261150D01*
X116748499Y-66261150D01*
X116748506Y-66261150D01*
X117040993Y-66222643D01*
X117325952Y-66146289D01*
X117598507Y-66033393D01*
X117853994Y-65885888D01*
X118088042Y-65706296D01*
X118296646Y-65497692D01*
X118476238Y-65263644D01*
X118623743Y-65008157D01*
X118736639Y-64735602D01*
X118812993Y-64450643D01*
X118851500Y-64158156D01*
X118851500Y-63863144D01*
X118812993Y-63570657D01*
X118736639Y-63285698D01*
X118736637Y-63285693D01*
X118736636Y-63285689D01*
X118736635Y-63285688D01*
X118647053Y-63069418D01*
X118623743Y-63013143D01*
X118612859Y-62994292D01*
X118476238Y-62757656D01*
X118296647Y-62523609D01*
X118296641Y-62523602D01*
X118088047Y-62315008D01*
X118088040Y-62315002D01*
X117853993Y-62135411D01*
X117598510Y-61987908D01*
X117598500Y-61987904D01*
X117325961Y-61875014D01*
X117325954Y-61875012D01*
X117325952Y-61875011D01*
X117040993Y-61798657D01*
X116992113Y-61792221D01*
X116748513Y-61760150D01*
X116748506Y-61760150D01*
X116453494Y-61760150D01*
X116453486Y-61760150D01*
X116175085Y-61796803D01*
X116161007Y-61798657D01*
X116056259Y-61826724D01*
X115876048Y-61875011D01*
X115876038Y-61875014D01*
X115603499Y-61987904D01*
X115603489Y-61987908D01*
X115348006Y-62135411D01*
X115113959Y-62315002D01*
X115113952Y-62315008D01*
X114905358Y-62523602D01*
X114905352Y-62523609D01*
X114725761Y-62757656D01*
X114578258Y-63013139D01*
X114578254Y-63013149D01*
X114465364Y-63285688D01*
X114465364Y-63285689D01*
X114465362Y-63285693D01*
X114465361Y-63285698D01*
X114409659Y-63493582D01*
X114389008Y-63570654D01*
X114389006Y-63570665D01*
X114350500Y-63863136D01*
X112611854Y-63863136D01*
X112594402Y-63752949D01*
X112540873Y-63588205D01*
X112462232Y-63433862D01*
X112360414Y-63293722D01*
X112237928Y-63171236D01*
X112097788Y-63069418D01*
X111943445Y-62990777D01*
X111778701Y-62937248D01*
X111778699Y-62937247D01*
X111778698Y-62937247D01*
X111647271Y-62916431D01*
X111607611Y-62910150D01*
X111434389Y-62910150D01*
X111394728Y-62916431D01*
X111263302Y-62937247D01*
X111098552Y-62990778D01*
X110944211Y-63069418D01*
X110864256Y-63127509D01*
X110804072Y-63171236D01*
X110804070Y-63171238D01*
X110804069Y-63171238D01*
X110681588Y-63293719D01*
X110681588Y-63293720D01*
X110681586Y-63293722D01*
X110647308Y-63340901D01*
X110579768Y-63433861D01*
X110501128Y-63588202D01*
X110447597Y-63752952D01*
X110420500Y-63924039D01*
X105466000Y-63924039D01*
X105466000Y-61344688D01*
X118810500Y-61344688D01*
X118810500Y-61596611D01*
X118849910Y-61845435D01*
X118927760Y-62085033D01*
X119042132Y-62309498D01*
X119190201Y-62513299D01*
X119190205Y-62513304D01*
X119368345Y-62691444D01*
X119368350Y-62691448D01*
X119515174Y-62798121D01*
X119572155Y-62839520D01*
X119710223Y-62909869D01*
X119796616Y-62953889D01*
X119796618Y-62953889D01*
X119796621Y-62953891D01*
X120036215Y-63031740D01*
X120285038Y-63071150D01*
X120285039Y-63071150D01*
X120536961Y-63071150D01*
X120536962Y-63071150D01*
X120785785Y-63031740D01*
X120785788Y-63031738D01*
X120786438Y-63031636D01*
X120855731Y-63040590D01*
X120909183Y-63085587D01*
X120929823Y-63152338D01*
X120911098Y-63219652D01*
X120893518Y-63241789D01*
X120841589Y-63293718D01*
X120841588Y-63293720D01*
X120841586Y-63293722D01*
X120807308Y-63340901D01*
X120739768Y-63433861D01*
X120661128Y-63588202D01*
X120607597Y-63752952D01*
X120580500Y-63924039D01*
X120580500Y-64097260D01*
X120594564Y-64186061D01*
X120607598Y-64268351D01*
X120661127Y-64433095D01*
X120739768Y-64587438D01*
X120841586Y-64727578D01*
X120964072Y-64850064D01*
X121104212Y-64951882D01*
X121258555Y-65030523D01*
X121423299Y-65084052D01*
X121594389Y-65111150D01*
X121594390Y-65111150D01*
X121767610Y-65111150D01*
X121767611Y-65111150D01*
X121938701Y-65084052D01*
X122103445Y-65030523D01*
X122257788Y-64951882D01*
X122397928Y-64850064D01*
X122520414Y-64727578D01*
X122622232Y-64587438D01*
X122700873Y-64433095D01*
X122754402Y-64268351D01*
X122781500Y-64097261D01*
X122781500Y-63924039D01*
X122754402Y-63752949D01*
X122700873Y-63588205D01*
X122622232Y-63433862D01*
X122520414Y-63293722D01*
X122397928Y-63171236D01*
X122257788Y-63069418D01*
X122103445Y-62990777D01*
X121938701Y-62937248D01*
X121938699Y-62937247D01*
X121938698Y-62937247D01*
X121807271Y-62916431D01*
X121767611Y-62910150D01*
X121594389Y-62910150D01*
X121539621Y-62918824D01*
X121470328Y-62909869D01*
X121416876Y-62864873D01*
X121396237Y-62798121D01*
X121414962Y-62730807D01*
X121447340Y-62696031D01*
X121453656Y-62691443D01*
X121631793Y-62513306D01*
X121641983Y-62499279D01*
X121710371Y-62405153D01*
X125183500Y-62405153D01*
X125183500Y-62562846D01*
X125214261Y-62717489D01*
X125214264Y-62717501D01*
X125274602Y-62863172D01*
X125274609Y-62863185D01*
X125362210Y-62994288D01*
X125362213Y-62994292D01*
X125473707Y-63105786D01*
X125473711Y-63105789D01*
X125604814Y-63193390D01*
X125604827Y-63193397D01*
X125750498Y-63253735D01*
X125750503Y-63253737D01*
X125885999Y-63280689D01*
X125905153Y-63284499D01*
X125905156Y-63284500D01*
X125958000Y-63284500D01*
X126025039Y-63304185D01*
X126070794Y-63356989D01*
X126082000Y-63408500D01*
X126082000Y-78780330D01*
X126081999Y-78780348D01*
X126081999Y-78946056D01*
X126122922Y-79098783D01*
X126125802Y-79103771D01*
X126125800Y-79103771D01*
X126125805Y-79103777D01*
X126201975Y-79235709D01*
X126201981Y-79235717D01*
X126320849Y-79354585D01*
X126320855Y-79354590D01*
X126419425Y-79453160D01*
X126452910Y-79514483D01*
X126453361Y-79516649D01*
X126484261Y-79671991D01*
X126484264Y-79672001D01*
X126544602Y-79817672D01*
X126544609Y-79817685D01*
X126632210Y-79948788D01*
X126632213Y-79948792D01*
X126743707Y-80060286D01*
X126743711Y-80060289D01*
X126874814Y-80147890D01*
X126874827Y-80147897D01*
X126997790Y-80198829D01*
X127020503Y-80208237D01*
X127175153Y-80238999D01*
X127175156Y-80239000D01*
X127175158Y-80239000D01*
X127332844Y-80239000D01*
X127332845Y-80238999D01*
X127487497Y-80208237D01*
X127633179Y-80147894D01*
X127764289Y-80060289D01*
X127875789Y-79948789D01*
X127963394Y-79817679D01*
X128023737Y-79671997D01*
X128054500Y-79517342D01*
X128054500Y-79359658D01*
X128054500Y-79359655D01*
X128054499Y-79359653D01*
X128042604Y-79299855D01*
X128023737Y-79205003D01*
X128023735Y-79204998D01*
X127963397Y-79059327D01*
X127963390Y-79059314D01*
X127875789Y-78928211D01*
X127875786Y-78928207D01*
X127764292Y-78816713D01*
X127764288Y-78816710D01*
X127633185Y-78729109D01*
X127633172Y-78729102D01*
X127487501Y-78668764D01*
X127487491Y-78668761D01*
X127382808Y-78647938D01*
X127320897Y-78615553D01*
X127286323Y-78554837D01*
X127283000Y-78526321D01*
X127283000Y-77870904D01*
X129353001Y-77870904D01*
X129363319Y-77971902D01*
X129417546Y-78135550D01*
X129417551Y-78135561D01*
X129508052Y-78282284D01*
X129508055Y-78282288D01*
X129629961Y-78404194D01*
X129629965Y-78404197D01*
X129776688Y-78494698D01*
X129776699Y-78494703D01*
X129940347Y-78548930D01*
X130041351Y-78559249D01*
X130140500Y-78559248D01*
X130140500Y-77834250D01*
X129353001Y-77834250D01*
X129353001Y-77870904D01*
X127283000Y-77870904D01*
X127283000Y-77297595D01*
X129353000Y-77297595D01*
X129353000Y-77334250D01*
X130140500Y-77334250D01*
X130140500Y-76609249D01*
X130041360Y-76609250D01*
X130041344Y-76609251D01*
X129940347Y-76619569D01*
X129776699Y-76673796D01*
X129776688Y-76673801D01*
X129629965Y-76764302D01*
X129629961Y-76764305D01*
X129508055Y-76886211D01*
X129508052Y-76886215D01*
X129417551Y-77032938D01*
X129417546Y-77032949D01*
X129363319Y-77196597D01*
X129353000Y-77297595D01*
X127283000Y-77297595D01*
X127283000Y-65355844D01*
X127945000Y-65355844D01*
X127951401Y-65415372D01*
X127951403Y-65415379D01*
X128001645Y-65550086D01*
X128001649Y-65550093D01*
X128087809Y-65665187D01*
X128087812Y-65665190D01*
X128202906Y-65751350D01*
X128202913Y-65751354D01*
X128337620Y-65801596D01*
X128337627Y-65801598D01*
X128397155Y-65807999D01*
X128397172Y-65808000D01*
X129295000Y-65808000D01*
X129795000Y-65808000D01*
X130692828Y-65808000D01*
X130692844Y-65807999D01*
X130752372Y-65801598D01*
X130752379Y-65801596D01*
X130887086Y-65751354D01*
X130887093Y-65751350D01*
X131002187Y-65665190D01*
X131002190Y-65665187D01*
X131088350Y-65550093D01*
X131088354Y-65550086D01*
X131138596Y-65415379D01*
X131138598Y-65415372D01*
X131144999Y-65355844D01*
X131145000Y-65355827D01*
X131145000Y-65108000D01*
X129795000Y-65108000D01*
X129795000Y-65808000D01*
X129295000Y-65808000D01*
X129295000Y-65108000D01*
X127945000Y-65108000D01*
X127945000Y-65355844D01*
X127283000Y-65355844D01*
X127283000Y-60323463D01*
X127302685Y-60256424D01*
X127319319Y-60235782D01*
X127832447Y-59722654D01*
X129443001Y-59722654D01*
X129453319Y-59823652D01*
X129507546Y-59987300D01*
X129507551Y-59987311D01*
X129598052Y-60134034D01*
X129598055Y-60134038D01*
X129719961Y-60255944D01*
X129719965Y-60255947D01*
X129866688Y-60346448D01*
X129866699Y-60346453D01*
X130030347Y-60400680D01*
X130131351Y-60410999D01*
X130230500Y-60410998D01*
X130230500Y-59686000D01*
X129443001Y-59686000D01*
X129443001Y-59722654D01*
X127832447Y-59722654D01*
X128405756Y-59149345D01*
X129443000Y-59149345D01*
X129443000Y-59186000D01*
X130230500Y-59186000D01*
X130230500Y-58460999D01*
X130131360Y-58461000D01*
X130131344Y-58461001D01*
X130030347Y-58471319D01*
X129866699Y-58525546D01*
X129866688Y-58525551D01*
X129719965Y-58616052D01*
X129719961Y-58616055D01*
X129598055Y-58737961D01*
X129598052Y-58737965D01*
X129507551Y-58884688D01*
X129507546Y-58884699D01*
X129453319Y-59048347D01*
X129443000Y-59149345D01*
X128405756Y-59149345D01*
X128496586Y-59058515D01*
X128750414Y-58804688D01*
X130163283Y-57391819D01*
X130224606Y-57358334D01*
X130250964Y-57355500D01*
X130642500Y-57355500D01*
X130709539Y-57375185D01*
X130755294Y-57427989D01*
X130766500Y-57479500D01*
X130766500Y-58373638D01*
X130746815Y-58440677D01*
X130730500Y-58460923D01*
X130730500Y-60411264D01*
X130763666Y-60472003D01*
X130766500Y-60498361D01*
X130766500Y-61035902D01*
X130746815Y-61102941D01*
X130730181Y-61123583D01*
X129682582Y-62171181D01*
X129621259Y-62204666D01*
X129594901Y-62207500D01*
X128397129Y-62207500D01*
X128397123Y-62207501D01*
X128337516Y-62213908D01*
X128202671Y-62264202D01*
X128202664Y-62264206D01*
X128087455Y-62350452D01*
X128087452Y-62350455D01*
X128001206Y-62465664D01*
X128001202Y-62465671D01*
X127950908Y-62600517D01*
X127944501Y-62660116D01*
X127944501Y-62660123D01*
X127944500Y-62660135D01*
X127944500Y-63655870D01*
X127944501Y-63655876D01*
X127950908Y-63715483D01*
X128001202Y-63850328D01*
X128001204Y-63850331D01*
X128063917Y-63934104D01*
X128088335Y-63999569D01*
X128073484Y-64067842D01*
X128063918Y-64082727D01*
X128001647Y-64165910D01*
X128001645Y-64165913D01*
X127951403Y-64300620D01*
X127951401Y-64300627D01*
X127945000Y-64360155D01*
X127945000Y-64608000D01*
X131145000Y-64608000D01*
X131145000Y-64360172D01*
X131144999Y-64360155D01*
X131138598Y-64300627D01*
X131138596Y-64300620D01*
X131088354Y-64165913D01*
X131088352Y-64165910D01*
X131026082Y-64082727D01*
X131001665Y-64017262D01*
X131016517Y-63948989D01*
X131026083Y-63934104D01*
X131033618Y-63924039D01*
X131088796Y-63850331D01*
X131139091Y-63715483D01*
X131145500Y-63655873D01*
X131145499Y-62660128D01*
X131139091Y-62600517D01*
X131116038Y-62538708D01*
X131111054Y-62469016D01*
X131144537Y-62407696D01*
X131725506Y-61826728D01*
X131725511Y-61826724D01*
X131735714Y-61816520D01*
X131735716Y-61816520D01*
X131847520Y-61704716D01*
X131903996Y-61606896D01*
X131926577Y-61567785D01*
X131967500Y-61415057D01*
X131967500Y-61256943D01*
X131967500Y-60535499D01*
X131970050Y-60526813D01*
X131968762Y-60517852D01*
X131979740Y-60493811D01*
X131987185Y-60468460D01*
X131994025Y-60462532D01*
X131997787Y-60454296D01*
X132020021Y-60440006D01*
X132039989Y-60422705D01*
X132050503Y-60420417D01*
X132056565Y-60416522D01*
X132091500Y-60411499D01*
X132280402Y-60411499D01*
X132347441Y-60431184D01*
X132368083Y-60447818D01*
X132708181Y-60787916D01*
X132741666Y-60849239D01*
X132744500Y-60875597D01*
X132744500Y-62083500D01*
X132724815Y-62150539D01*
X132672011Y-62196294D01*
X132620500Y-62207500D01*
X132197129Y-62207500D01*
X132197123Y-62207501D01*
X132137516Y-62213908D01*
X132002671Y-62264202D01*
X132002664Y-62264206D01*
X131887455Y-62350452D01*
X131887452Y-62350455D01*
X131801206Y-62465664D01*
X131801202Y-62465671D01*
X131750908Y-62600517D01*
X131744501Y-62660116D01*
X131744501Y-62660123D01*
X131744500Y-62660135D01*
X131744500Y-63655870D01*
X131744501Y-63655876D01*
X131750908Y-63715483D01*
X131801202Y-63850328D01*
X131801203Y-63850330D01*
X131863606Y-63933689D01*
X131888023Y-63999153D01*
X131873172Y-64067426D01*
X131863606Y-64082309D01*
X131854799Y-64094074D01*
X131801203Y-64165669D01*
X131801202Y-64165671D01*
X131750908Y-64300517D01*
X131744501Y-64360116D01*
X131744500Y-64360135D01*
X131744500Y-65355870D01*
X131744501Y-65355876D01*
X131750908Y-65415483D01*
X131773961Y-65477289D01*
X131778945Y-65546981D01*
X131745460Y-65608303D01*
X130908286Y-66445478D01*
X130796481Y-66557282D01*
X130796480Y-66557284D01*
X130753588Y-66631576D01*
X130717423Y-66694215D01*
X130676499Y-66846943D01*
X130676499Y-66846945D01*
X130676499Y-67015046D01*
X130676500Y-67015059D01*
X130676500Y-76521888D01*
X130656815Y-76588927D01*
X130640500Y-76609173D01*
X130640500Y-78559514D01*
X130673666Y-78620253D01*
X130676500Y-78646611D01*
X130676500Y-79985402D01*
X130656815Y-80052441D01*
X130640181Y-80073083D01*
X129492082Y-81221181D01*
X129430759Y-81254666D01*
X129404401Y-81257500D01*
X128206629Y-81257500D01*
X128206623Y-81257501D01*
X128147016Y-81263908D01*
X128012171Y-81314202D01*
X128012164Y-81314206D01*
X127896955Y-81400452D01*
X127896952Y-81400455D01*
X127810706Y-81515664D01*
X127810702Y-81515671D01*
X127760408Y-81650517D01*
X127754001Y-81710116D01*
X127754001Y-81710123D01*
X127754000Y-81710135D01*
X127754000Y-82705870D01*
X127754001Y-82705876D01*
X127760408Y-82765483D01*
X127810702Y-82900328D01*
X127810704Y-82900331D01*
X127829331Y-82925214D01*
X127873417Y-82984104D01*
X127897835Y-83049569D01*
X127882984Y-83117842D01*
X127873418Y-83132727D01*
X127811147Y-83215910D01*
X127811145Y-83215913D01*
X127760903Y-83350620D01*
X127760901Y-83350627D01*
X127754500Y-83410155D01*
X127754500Y-83658000D01*
X130954500Y-83658000D01*
X130954500Y-83410172D01*
X130954499Y-83410155D01*
X130948098Y-83350627D01*
X130948096Y-83350620D01*
X130897854Y-83215913D01*
X130897852Y-83215910D01*
X130835582Y-83132727D01*
X130811165Y-83067262D01*
X130826017Y-82998989D01*
X130835583Y-82984104D01*
X130843118Y-82974039D01*
X130898296Y-82900331D01*
X130948591Y-82765483D01*
X130955000Y-82705873D01*
X130954999Y-81710128D01*
X130948591Y-81650517D01*
X130925538Y-81588708D01*
X130920554Y-81519016D01*
X130954037Y-81457696D01*
X131757520Y-80654216D01*
X131836577Y-80517284D01*
X131877501Y-80364557D01*
X131877501Y-80206442D01*
X131877501Y-80198847D01*
X131877500Y-80198829D01*
X131877500Y-78683749D01*
X131880050Y-78675063D01*
X131878762Y-78666102D01*
X131889740Y-78642061D01*
X131897185Y-78616710D01*
X131904025Y-78610782D01*
X131907787Y-78602546D01*
X131930021Y-78588256D01*
X131949989Y-78570955D01*
X131960503Y-78568667D01*
X131966565Y-78564772D01*
X132001500Y-78559749D01*
X132190402Y-78559749D01*
X132257441Y-78579434D01*
X132278083Y-78596068D01*
X132517681Y-78835666D01*
X132551166Y-78896989D01*
X132554000Y-78923347D01*
X132554000Y-81133500D01*
X132534315Y-81200539D01*
X132481511Y-81246294D01*
X132430000Y-81257500D01*
X132006629Y-81257500D01*
X132006623Y-81257501D01*
X131947016Y-81263908D01*
X131812171Y-81314202D01*
X131812164Y-81314206D01*
X131696955Y-81400452D01*
X131696952Y-81400455D01*
X131610706Y-81515664D01*
X131610702Y-81515671D01*
X131560408Y-81650517D01*
X131554001Y-81710116D01*
X131554001Y-81710123D01*
X131554000Y-81710135D01*
X131554000Y-82705870D01*
X131554001Y-82705876D01*
X131560408Y-82765483D01*
X131610702Y-82900328D01*
X131610703Y-82900330D01*
X131673106Y-82983689D01*
X131697523Y-83049153D01*
X131682672Y-83117426D01*
X131673106Y-83132309D01*
X131664299Y-83144074D01*
X131610703Y-83215669D01*
X131610702Y-83215671D01*
X131560408Y-83350517D01*
X131554001Y-83410116D01*
X131554000Y-83410135D01*
X131554000Y-84405870D01*
X131554001Y-84405876D01*
X131560408Y-84465483D01*
X131583461Y-84527289D01*
X131588445Y-84596981D01*
X131554960Y-84658303D01*
X131102062Y-85111201D01*
X131102055Y-85111208D01*
X131098786Y-85114478D01*
X131098784Y-85114480D01*
X130986980Y-85226284D01*
X130960215Y-85272643D01*
X130907923Y-85363215D01*
X130866999Y-85515943D01*
X130866999Y-85515945D01*
X130866999Y-85684046D01*
X130867000Y-85684059D01*
X130867000Y-95190888D01*
X130847315Y-95257927D01*
X130831000Y-95278173D01*
X130831000Y-97228514D01*
X130864166Y-97289253D01*
X130867000Y-97315611D01*
X130867000Y-99118402D01*
X130847315Y-99185441D01*
X130830681Y-99206083D01*
X129765582Y-100271181D01*
X129704259Y-100304666D01*
X129677901Y-100307500D01*
X128397129Y-100307500D01*
X128397123Y-100307501D01*
X128337516Y-100313908D01*
X128202671Y-100364202D01*
X128202664Y-100364206D01*
X128087455Y-100450452D01*
X128087452Y-100450455D01*
X128001206Y-100565664D01*
X128001202Y-100565671D01*
X127950908Y-100700517D01*
X127944501Y-100760116D01*
X127944501Y-100760123D01*
X127944500Y-100760135D01*
X127944500Y-101755870D01*
X127944501Y-101755876D01*
X127950908Y-101815483D01*
X128001202Y-101950328D01*
X128001204Y-101950331D01*
X128060210Y-102029153D01*
X128063917Y-102034104D01*
X128088335Y-102099569D01*
X128073484Y-102167842D01*
X128063918Y-102182727D01*
X128001647Y-102265910D01*
X128001645Y-102265913D01*
X127951403Y-102400620D01*
X127951401Y-102400627D01*
X127945000Y-102460155D01*
X127945000Y-102708000D01*
X131145000Y-102708000D01*
X131145000Y-102460172D01*
X131144999Y-102460155D01*
X131138598Y-102400627D01*
X131138596Y-102400620D01*
X131088354Y-102265913D01*
X131088352Y-102265910D01*
X131026082Y-102182727D01*
X131001665Y-102117262D01*
X131016517Y-102048989D01*
X131026083Y-102034104D01*
X131029788Y-102029155D01*
X131088796Y-101950331D01*
X131139091Y-101815483D01*
X131145500Y-101755873D01*
X131145499Y-100760128D01*
X131139091Y-100700517D01*
X131138586Y-100699165D01*
X131138506Y-100698040D01*
X131137308Y-100692969D01*
X131138129Y-100692774D01*
X131133600Y-100629475D01*
X131167079Y-100568154D01*
X131826006Y-99909228D01*
X131826011Y-99909224D01*
X131836214Y-99899020D01*
X131836216Y-99899020D01*
X131948020Y-99787216D01*
X132016233Y-99669067D01*
X132027077Y-99650285D01*
X132068001Y-99497557D01*
X132068001Y-99339443D01*
X132068001Y-99331848D01*
X132068000Y-99331830D01*
X132068000Y-97352749D01*
X132070550Y-97344063D01*
X132069262Y-97335102D01*
X132080240Y-97311061D01*
X132087685Y-97285710D01*
X132094525Y-97279782D01*
X132098287Y-97271546D01*
X132120521Y-97257256D01*
X132140489Y-97239955D01*
X132151003Y-97237667D01*
X132157065Y-97233772D01*
X132192000Y-97228749D01*
X132380902Y-97228749D01*
X132447941Y-97248434D01*
X132468583Y-97265068D01*
X132708181Y-97504666D01*
X132741666Y-97565989D01*
X132744500Y-97592347D01*
X132744500Y-100183500D01*
X132724815Y-100250539D01*
X132672011Y-100296294D01*
X132620500Y-100307500D01*
X132197129Y-100307500D01*
X132197123Y-100307501D01*
X132137516Y-100313908D01*
X132002671Y-100364202D01*
X132002664Y-100364206D01*
X131887455Y-100450452D01*
X131887452Y-100450455D01*
X131801206Y-100565664D01*
X131801202Y-100565671D01*
X131750908Y-100700517D01*
X131744501Y-100760116D01*
X131744501Y-100760123D01*
X131744500Y-100760135D01*
X131744500Y-101755870D01*
X131744501Y-101755876D01*
X131750908Y-101815483D01*
X131801202Y-101950328D01*
X131801203Y-101950330D01*
X131863606Y-102033689D01*
X131888023Y-102099153D01*
X131873172Y-102167426D01*
X131863606Y-102182309D01*
X131860211Y-102186846D01*
X131801203Y-102265669D01*
X131801202Y-102265671D01*
X131750908Y-102400517D01*
X131744501Y-102460116D01*
X131744500Y-102460135D01*
X131744500Y-103455870D01*
X131744501Y-103455876D01*
X131750908Y-103515483D01*
X131773961Y-103577289D01*
X131778945Y-103646981D01*
X131745460Y-103708303D01*
X130908286Y-104545478D01*
X130796481Y-104657282D01*
X130796479Y-104657285D01*
X130746361Y-104744094D01*
X130746359Y-104744096D01*
X130717425Y-104794209D01*
X130717424Y-104794210D01*
X130717423Y-104794215D01*
X130676499Y-104946943D01*
X130676499Y-104946945D01*
X130676499Y-105115046D01*
X130676500Y-105115059D01*
X130676500Y-114621888D01*
X130656815Y-114688927D01*
X130640500Y-114709173D01*
X130640500Y-116659514D01*
X130673666Y-116720253D01*
X130676500Y-116746611D01*
X130676500Y-117787402D01*
X130656815Y-117854441D01*
X130640181Y-117875083D01*
X129194082Y-119321181D01*
X129132759Y-119354666D01*
X129106401Y-119357500D01*
X128206629Y-119357500D01*
X128206623Y-119357501D01*
X128147016Y-119363908D01*
X128012171Y-119414202D01*
X128012164Y-119414206D01*
X127896955Y-119500452D01*
X127896952Y-119500455D01*
X127810706Y-119615664D01*
X127810702Y-119615671D01*
X127760408Y-119750517D01*
X127754001Y-119810116D01*
X127754001Y-119810123D01*
X127754000Y-119810135D01*
X127754000Y-120805870D01*
X127754001Y-120805876D01*
X127760408Y-120865483D01*
X127810702Y-121000328D01*
X127810704Y-121000331D01*
X127829331Y-121025214D01*
X127873417Y-121084104D01*
X127897835Y-121149569D01*
X127882984Y-121217842D01*
X127873418Y-121232727D01*
X127811147Y-121315910D01*
X127811145Y-121315913D01*
X127760903Y-121450620D01*
X127760901Y-121450627D01*
X127754500Y-121510155D01*
X127754500Y-121758000D01*
X130954500Y-121758000D01*
X130954500Y-121510172D01*
X130954499Y-121510155D01*
X130948098Y-121450627D01*
X130948096Y-121450620D01*
X130897854Y-121315913D01*
X130897852Y-121315910D01*
X130835582Y-121232727D01*
X130811165Y-121167262D01*
X130826017Y-121098989D01*
X130835583Y-121084104D01*
X130843118Y-121074039D01*
X130898296Y-121000331D01*
X130948591Y-120865483D01*
X130955000Y-120805873D01*
X130954999Y-119810128D01*
X130948591Y-119750517D01*
X130919906Y-119673609D01*
X130898297Y-119615671D01*
X130898293Y-119615664D01*
X130834154Y-119529986D01*
X130809736Y-119464522D01*
X130824587Y-119396249D01*
X130845735Y-119367998D01*
X131757520Y-118456216D01*
X131836577Y-118319284D01*
X131877501Y-118166557D01*
X131877501Y-118008442D01*
X131877501Y-118000847D01*
X131877500Y-118000829D01*
X131877500Y-116783749D01*
X131880050Y-116775063D01*
X131878762Y-116766102D01*
X131889740Y-116742061D01*
X131897185Y-116716710D01*
X131904025Y-116710782D01*
X131907787Y-116702546D01*
X131930021Y-116688256D01*
X131949989Y-116670955D01*
X131960503Y-116668667D01*
X131966565Y-116664772D01*
X132001500Y-116659749D01*
X132190402Y-116659749D01*
X132257441Y-116679434D01*
X132278083Y-116696068D01*
X132517681Y-116935666D01*
X132551166Y-116996989D01*
X132554000Y-117023347D01*
X132554000Y-119233500D01*
X132534315Y-119300539D01*
X132481511Y-119346294D01*
X132430000Y-119357500D01*
X132006629Y-119357500D01*
X132006623Y-119357501D01*
X131947016Y-119363908D01*
X131812171Y-119414202D01*
X131812164Y-119414206D01*
X131696955Y-119500452D01*
X131696952Y-119500455D01*
X131610706Y-119615664D01*
X131610702Y-119615671D01*
X131560408Y-119750517D01*
X131554001Y-119810116D01*
X131554001Y-119810123D01*
X131554000Y-119810135D01*
X131554000Y-120805870D01*
X131554001Y-120805876D01*
X131560408Y-120865483D01*
X131610702Y-121000328D01*
X131610703Y-121000330D01*
X131673106Y-121083689D01*
X131697523Y-121149153D01*
X131682672Y-121217426D01*
X131673106Y-121232309D01*
X131664299Y-121244074D01*
X131610703Y-121315669D01*
X131610702Y-121315671D01*
X131560408Y-121450517D01*
X131554001Y-121510116D01*
X131554000Y-121510135D01*
X131554000Y-122505870D01*
X131554001Y-122505876D01*
X131560408Y-122565483D01*
X131583461Y-122627289D01*
X131588445Y-122696981D01*
X131554960Y-122758303D01*
X131053675Y-123259588D01*
X131053667Y-123259596D01*
X131050786Y-123262478D01*
X131050784Y-123262480D01*
X130938980Y-123374284D01*
X130917696Y-123411150D01*
X130859923Y-123511215D01*
X130818999Y-123663943D01*
X130818999Y-123663945D01*
X130818999Y-123832046D01*
X130819000Y-123832059D01*
X130819000Y-136123402D01*
X130799315Y-136190441D01*
X130782681Y-136211083D01*
X129064481Y-137929282D01*
X129064479Y-137929284D01*
X129036327Y-137978046D01*
X129024428Y-137998657D01*
X128985423Y-138066215D01*
X128944499Y-138218943D01*
X128944499Y-138218945D01*
X128944499Y-138283500D01*
X128924814Y-138350539D01*
X128872010Y-138396294D01*
X128820499Y-138407500D01*
X128397129Y-138407500D01*
X128397123Y-138407501D01*
X128337516Y-138413908D01*
X128202671Y-138464202D01*
X128202664Y-138464206D01*
X128087455Y-138550452D01*
X128087452Y-138550455D01*
X128001206Y-138665664D01*
X128001202Y-138665671D01*
X127950908Y-138800517D01*
X127944501Y-138860116D01*
X127944501Y-138860123D01*
X127944500Y-138860135D01*
X127944500Y-139855870D01*
X127944501Y-139855876D01*
X127950908Y-139915483D01*
X128001202Y-140050328D01*
X128001204Y-140050331D01*
X128051592Y-140117641D01*
X128063917Y-140134104D01*
X128088335Y-140199569D01*
X128073484Y-140267842D01*
X128063918Y-140282727D01*
X128001647Y-140365910D01*
X128001645Y-140365913D01*
X127951403Y-140500620D01*
X127951401Y-140500627D01*
X127945000Y-140560155D01*
X127945000Y-140808000D01*
X131145000Y-140808000D01*
X131145000Y-140560172D01*
X131144999Y-140560155D01*
X131138598Y-140500627D01*
X131138596Y-140500620D01*
X131088354Y-140365913D01*
X131088352Y-140365910D01*
X131026082Y-140282727D01*
X131001665Y-140217262D01*
X131016517Y-140148989D01*
X131026083Y-140134104D01*
X131033618Y-140124039D01*
X131088796Y-140050331D01*
X131139091Y-139915483D01*
X131145500Y-139855873D01*
X131145499Y-138860128D01*
X131139091Y-138800517D01*
X131138506Y-138798949D01*
X131088797Y-138665671D01*
X131088793Y-138665664D01*
X131002547Y-138550455D01*
X131002544Y-138550452D01*
X130887335Y-138464206D01*
X130887328Y-138464202D01*
X130752482Y-138413908D01*
X130752483Y-138413908D01*
X130692883Y-138407501D01*
X130692881Y-138407500D01*
X130692873Y-138407500D01*
X130692865Y-138407500D01*
X130584096Y-138407500D01*
X130517057Y-138387815D01*
X130471302Y-138335011D01*
X130461358Y-138265853D01*
X130490383Y-138202297D01*
X130496415Y-138195819D01*
X131085241Y-137606993D01*
X131778006Y-136914228D01*
X131778011Y-136914224D01*
X131788214Y-136904020D01*
X131788216Y-136904020D01*
X131900020Y-136792216D01*
X131958029Y-136691740D01*
X131979077Y-136655285D01*
X132020000Y-136502558D01*
X132020000Y-136344443D01*
X132020000Y-135262249D01*
X132022550Y-135253563D01*
X132021262Y-135244602D01*
X132032240Y-135220561D01*
X132039685Y-135195210D01*
X132046525Y-135189282D01*
X132050287Y-135181046D01*
X132072521Y-135166756D01*
X132092489Y-135149455D01*
X132103003Y-135147167D01*
X132109065Y-135143272D01*
X132144000Y-135138249D01*
X132380902Y-135138249D01*
X132447941Y-135157934D01*
X132468583Y-135174568D01*
X132708181Y-135414166D01*
X132741666Y-135475489D01*
X132744500Y-135501847D01*
X132744500Y-138283500D01*
X132724815Y-138350539D01*
X132672011Y-138396294D01*
X132620500Y-138407500D01*
X132197129Y-138407500D01*
X132197123Y-138407501D01*
X132137516Y-138413908D01*
X132002671Y-138464202D01*
X132002664Y-138464206D01*
X131887455Y-138550452D01*
X131887452Y-138550455D01*
X131801206Y-138665664D01*
X131801202Y-138665671D01*
X131750908Y-138800517D01*
X131744501Y-138860116D01*
X131744501Y-138860123D01*
X131744500Y-138860135D01*
X131744500Y-139855870D01*
X131744501Y-139855876D01*
X131750908Y-139915483D01*
X131801202Y-140050328D01*
X131801203Y-140050330D01*
X131863606Y-140133689D01*
X131888023Y-140199153D01*
X131873172Y-140267426D01*
X131863606Y-140282309D01*
X131854799Y-140294074D01*
X131801203Y-140365669D01*
X131801202Y-140365671D01*
X131750908Y-140500517D01*
X131744501Y-140560116D01*
X131744500Y-140560135D01*
X131744500Y-141555870D01*
X131744501Y-141555876D01*
X131750908Y-141615483D01*
X131773961Y-141677289D01*
X131778945Y-141746981D01*
X131745460Y-141808303D01*
X130908286Y-142645478D01*
X130796481Y-142757282D01*
X130796479Y-142757285D01*
X130746361Y-142844094D01*
X130746359Y-142844096D01*
X130717425Y-142894209D01*
X130717424Y-142894210D01*
X130717423Y-142894215D01*
X130676499Y-143046943D01*
X130676499Y-143046945D01*
X130676499Y-143215046D01*
X130676500Y-143215059D01*
X130676500Y-152721888D01*
X130656815Y-152788927D01*
X130640500Y-152809173D01*
X130640500Y-154759514D01*
X130673666Y-154820253D01*
X130676500Y-154846611D01*
X130676500Y-155696902D01*
X130656815Y-155763941D01*
X130640181Y-155784583D01*
X129003582Y-157421181D01*
X128942259Y-157454666D01*
X128915901Y-157457500D01*
X128206629Y-157457500D01*
X128206623Y-157457501D01*
X128147016Y-157463908D01*
X128012171Y-157514202D01*
X128012164Y-157514206D01*
X127896955Y-157600452D01*
X127896952Y-157600455D01*
X127810706Y-157715664D01*
X127810702Y-157715671D01*
X127760408Y-157850517D01*
X127754001Y-157910116D01*
X127754001Y-157910123D01*
X127754000Y-157910135D01*
X127754000Y-158905870D01*
X127754001Y-158905876D01*
X127760408Y-158965483D01*
X127810702Y-159100328D01*
X127810704Y-159100331D01*
X127873417Y-159184104D01*
X127897835Y-159249569D01*
X127882984Y-159317842D01*
X127873418Y-159332727D01*
X127811147Y-159415910D01*
X127811145Y-159415913D01*
X127760903Y-159550620D01*
X127760901Y-159550627D01*
X127754500Y-159610155D01*
X127754500Y-159858000D01*
X130954500Y-159858000D01*
X130954500Y-159610172D01*
X130954499Y-159610155D01*
X130948098Y-159550627D01*
X130948096Y-159550620D01*
X130897854Y-159415913D01*
X130897852Y-159415910D01*
X130835582Y-159332727D01*
X130811165Y-159267262D01*
X130826017Y-159198989D01*
X130835583Y-159184104D01*
X130843118Y-159174039D01*
X130898296Y-159100331D01*
X130948591Y-158965483D01*
X130955000Y-158905873D01*
X130954999Y-157910128D01*
X130948591Y-157850517D01*
X130919906Y-157773609D01*
X130898297Y-157715671D01*
X130898293Y-157715664D01*
X130812047Y-157600456D01*
X130812048Y-157600456D01*
X130812046Y-157600454D01*
X130761176Y-157562372D01*
X130719306Y-157506440D01*
X130714322Y-157436748D01*
X130747805Y-157375428D01*
X131757520Y-156365716D01*
X131836577Y-156228784D01*
X131877501Y-156076057D01*
X131877501Y-155917942D01*
X131877501Y-155910347D01*
X131877500Y-155910329D01*
X131877500Y-154883749D01*
X131880050Y-154875063D01*
X131878762Y-154866102D01*
X131889740Y-154842061D01*
X131897185Y-154816710D01*
X131904025Y-154810782D01*
X131907787Y-154802546D01*
X131930021Y-154788256D01*
X131949989Y-154770955D01*
X131960503Y-154768667D01*
X131966565Y-154764772D01*
X132001500Y-154759749D01*
X132190402Y-154759749D01*
X132257441Y-154779434D01*
X132278083Y-154796068D01*
X132517681Y-155035666D01*
X132551166Y-155096989D01*
X132554000Y-155123347D01*
X132554000Y-157333500D01*
X132534315Y-157400539D01*
X132481511Y-157446294D01*
X132430000Y-157457500D01*
X132006629Y-157457500D01*
X132006623Y-157457501D01*
X131947016Y-157463908D01*
X131812171Y-157514202D01*
X131812164Y-157514206D01*
X131696955Y-157600452D01*
X131696952Y-157600455D01*
X131610706Y-157715664D01*
X131610702Y-157715671D01*
X131560408Y-157850517D01*
X131554001Y-157910116D01*
X131554001Y-157910123D01*
X131554000Y-157910135D01*
X131554000Y-158905870D01*
X131554001Y-158905876D01*
X131560408Y-158965483D01*
X131610702Y-159100328D01*
X131610703Y-159100330D01*
X131673106Y-159183689D01*
X131697523Y-159249153D01*
X131682672Y-159317426D01*
X131673106Y-159332309D01*
X131664299Y-159344074D01*
X131610703Y-159415669D01*
X131610702Y-159415671D01*
X131560408Y-159550517D01*
X131554001Y-159610116D01*
X131554001Y-159610123D01*
X131554000Y-159610135D01*
X131554000Y-160605870D01*
X131554001Y-160605876D01*
X131560408Y-160665483D01*
X131610702Y-160800328D01*
X131610706Y-160800335D01*
X131696952Y-160915544D01*
X131696955Y-160915547D01*
X131812164Y-161001793D01*
X131812171Y-161001797D01*
X131947017Y-161052091D01*
X131947016Y-161052091D01*
X131953944Y-161052835D01*
X132006627Y-161058500D01*
X134302372Y-161058499D01*
X134361983Y-161052091D01*
X134496831Y-161001796D01*
X134612046Y-160915546D01*
X134698296Y-160800331D01*
X134748591Y-160665483D01*
X134755000Y-160605873D01*
X134754999Y-159610128D01*
X134748591Y-159550517D01*
X134736592Y-159518347D01*
X134698297Y-159415671D01*
X134698296Y-159415669D01*
X134655499Y-159358500D01*
X134635893Y-159332310D01*
X134611477Y-159266847D01*
X134626328Y-159198574D01*
X134635894Y-159183689D01*
X134677224Y-159128479D01*
X134698296Y-159100331D01*
X134748591Y-158965483D01*
X134755000Y-158905873D01*
X134754999Y-157910128D01*
X134748591Y-157850517D01*
X134719906Y-157773609D01*
X134698297Y-157715671D01*
X134698293Y-157715664D01*
X134612047Y-157600455D01*
X134612044Y-157600452D01*
X134496835Y-157514206D01*
X134496828Y-157514202D01*
X134361982Y-157463908D01*
X134361983Y-157463908D01*
X134302383Y-157457501D01*
X134302381Y-157457500D01*
X134302373Y-157457500D01*
X134302365Y-157457500D01*
X133879000Y-157457500D01*
X133811961Y-157437815D01*
X133766206Y-157385011D01*
X133755000Y-157333500D01*
X133755000Y-154912309D01*
X133755001Y-154912296D01*
X133755001Y-154744195D01*
X133755001Y-154744193D01*
X133714077Y-154591465D01*
X133685139Y-154541345D01*
X133635020Y-154454534D01*
X133523216Y-154342730D01*
X133523215Y-154342729D01*
X133518885Y-154338399D01*
X133518874Y-154338389D01*
X133189818Y-154009333D01*
X133156333Y-153948010D01*
X133153499Y-153921652D01*
X133153499Y-153646848D01*
X133173184Y-153579809D01*
X133189818Y-153559167D01*
X134168835Y-152580150D01*
X135226520Y-151522466D01*
X135305577Y-151385534D01*
X135346501Y-151232807D01*
X135346501Y-151074692D01*
X135346501Y-151067097D01*
X135346500Y-151067079D01*
X135346500Y-140396060D01*
X135346501Y-140396047D01*
X135346501Y-140227944D01*
X135338898Y-140199569D01*
X135305577Y-140075216D01*
X135259209Y-139994903D01*
X135226524Y-139938290D01*
X135226518Y-139938282D01*
X134981818Y-139693582D01*
X134948333Y-139632259D01*
X134945499Y-139605901D01*
X134945499Y-138860129D01*
X134945498Y-138860123D01*
X134945497Y-138860116D01*
X134939091Y-138800517D01*
X134938506Y-138798949D01*
X134888797Y-138665671D01*
X134888793Y-138665664D01*
X134802547Y-138550455D01*
X134802544Y-138550452D01*
X134687335Y-138464206D01*
X134687328Y-138464202D01*
X134552482Y-138413908D01*
X134552483Y-138413908D01*
X134492883Y-138407501D01*
X134492881Y-138407500D01*
X134492873Y-138407500D01*
X134492865Y-138407500D01*
X134069500Y-138407500D01*
X134002461Y-138387815D01*
X133956706Y-138335011D01*
X133945500Y-138283500D01*
X133945500Y-135290809D01*
X133945501Y-135290796D01*
X133945501Y-135122695D01*
X133945501Y-135122693D01*
X133904577Y-134969965D01*
X133875639Y-134919845D01*
X133825520Y-134833034D01*
X133713716Y-134721230D01*
X133713715Y-134721229D01*
X133709385Y-134716899D01*
X133709374Y-134716889D01*
X133380318Y-134387833D01*
X133346833Y-134326510D01*
X133343999Y-134300152D01*
X133343999Y-134025347D01*
X133363684Y-133958308D01*
X133380318Y-133937666D01*
X134135757Y-133182227D01*
X134914006Y-132403978D01*
X134914011Y-132403974D01*
X134924214Y-132393770D01*
X134924216Y-132393770D01*
X135036020Y-132281966D01*
X135115077Y-132145034D01*
X135156000Y-131992307D01*
X135156000Y-121346060D01*
X135156001Y-121346047D01*
X135156001Y-121177944D01*
X135148398Y-121149569D01*
X135115077Y-121025216D01*
X135100708Y-121000328D01*
X135036024Y-120888290D01*
X135036018Y-120888282D01*
X134791318Y-120643582D01*
X134757833Y-120582259D01*
X134754999Y-120555901D01*
X134754999Y-119810129D01*
X134754998Y-119810123D01*
X134754997Y-119810116D01*
X134748591Y-119750517D01*
X134719906Y-119673609D01*
X134698297Y-119615671D01*
X134698293Y-119615664D01*
X134612047Y-119500455D01*
X134612044Y-119500452D01*
X134496835Y-119414206D01*
X134496828Y-119414202D01*
X134361982Y-119363908D01*
X134361983Y-119363908D01*
X134302383Y-119357501D01*
X134302381Y-119357500D01*
X134302373Y-119357500D01*
X134302365Y-119357500D01*
X133879000Y-119357500D01*
X133811961Y-119337815D01*
X133766206Y-119285011D01*
X133755000Y-119233500D01*
X133755000Y-116812309D01*
X133755001Y-116812296D01*
X133755001Y-116644195D01*
X133755001Y-116644193D01*
X133714077Y-116491465D01*
X133685139Y-116441345D01*
X133635020Y-116354534D01*
X133523216Y-116242730D01*
X133523215Y-116242729D01*
X133518885Y-116238399D01*
X133518874Y-116238389D01*
X133189818Y-115909333D01*
X133156333Y-115848010D01*
X133153499Y-115821652D01*
X133153499Y-115546848D01*
X133173184Y-115479809D01*
X133189818Y-115459167D01*
X134168835Y-114480150D01*
X135226520Y-113422466D01*
X135305577Y-113285534D01*
X135346501Y-113132807D01*
X135346501Y-112974692D01*
X135346501Y-112967097D01*
X135346500Y-112967079D01*
X135346500Y-102296060D01*
X135346501Y-102296027D01*
X135346501Y-102205099D01*
X135366186Y-102138060D01*
X135418990Y-102092305D01*
X135488148Y-102082361D01*
X135551704Y-102111386D01*
X135558182Y-102117418D01*
X135563426Y-102122662D01*
X135579844Y-102152729D01*
X135596634Y-102182740D01*
X135596705Y-102183607D01*
X135596911Y-102183985D01*
X135597362Y-102186151D01*
X135628261Y-102341491D01*
X135628264Y-102341501D01*
X135688602Y-102487172D01*
X135688609Y-102487185D01*
X135776210Y-102618288D01*
X135776213Y-102618292D01*
X135887707Y-102729786D01*
X135887711Y-102729789D01*
X136018814Y-102817390D01*
X136018827Y-102817397D01*
X136164498Y-102877735D01*
X136164503Y-102877737D01*
X136319153Y-102908499D01*
X136319156Y-102908500D01*
X136319158Y-102908500D01*
X136476844Y-102908500D01*
X136476845Y-102908499D01*
X136631497Y-102877737D01*
X136752590Y-102827579D01*
X136777172Y-102817397D01*
X136777172Y-102817396D01*
X136777179Y-102817394D01*
X136908289Y-102729789D01*
X137019789Y-102618289D01*
X137107394Y-102487179D01*
X137167737Y-102341497D01*
X137198500Y-102186842D01*
X137198500Y-102029158D01*
X137198500Y-102029155D01*
X137198499Y-102029153D01*
X137182820Y-101950330D01*
X137167737Y-101874503D01*
X137158809Y-101852949D01*
X137107397Y-101728827D01*
X137107390Y-101728814D01*
X137019789Y-101597711D01*
X137019786Y-101597707D01*
X136908292Y-101486213D01*
X136908288Y-101486210D01*
X136777185Y-101398609D01*
X136777175Y-101398604D01*
X136694047Y-101364171D01*
X136639644Y-101320330D01*
X136617579Y-101254035D01*
X136617500Y-101249610D01*
X136617500Y-60125925D01*
X136617501Y-60125912D01*
X136617501Y-59957811D01*
X136617501Y-59957809D01*
X136576577Y-59805081D01*
X136515000Y-59698427D01*
X136497520Y-59668150D01*
X136385716Y-59556346D01*
X136385713Y-59556344D01*
X132601724Y-55772355D01*
X132601722Y-55772352D01*
X132482851Y-55653481D01*
X132482850Y-55653480D01*
X132396038Y-55603360D01*
X132396038Y-55603359D01*
X132396034Y-55603358D01*
X132345919Y-55574423D01*
X132193191Y-55533499D01*
X132035077Y-55533499D01*
X132027481Y-55533499D01*
X132027465Y-55533500D01*
X130028944Y-55533500D01*
X129988023Y-55544464D01*
X129988023Y-55544465D01*
X129950755Y-55554451D01*
X129876218Y-55574423D01*
X129876213Y-55574426D01*
X129739294Y-55653475D01*
X129739286Y-55653481D01*
X125503479Y-59889288D01*
X125491776Y-59909560D01*
X125471714Y-59944309D01*
X125424423Y-60026219D01*
X125383499Y-60178947D01*
X125383499Y-60178949D01*
X125383499Y-60347050D01*
X125383500Y-60347063D01*
X125383500Y-61904234D01*
X125363815Y-61971273D01*
X125362602Y-61973125D01*
X125274609Y-62104814D01*
X125274602Y-62104827D01*
X125214264Y-62250498D01*
X125214261Y-62250510D01*
X125183500Y-62405153D01*
X121710371Y-62405153D01*
X121767748Y-62326181D01*
X121775869Y-62315002D01*
X121779870Y-62309495D01*
X121894241Y-62085029D01*
X121972090Y-61845435D01*
X122011500Y-61596612D01*
X122011500Y-61344688D01*
X121972090Y-61095865D01*
X121894241Y-60856271D01*
X121894239Y-60856268D01*
X121894239Y-60856266D01*
X121852747Y-60774834D01*
X121779870Y-60631805D01*
X121743435Y-60581656D01*
X121631798Y-60428000D01*
X121631794Y-60427995D01*
X121453654Y-60249855D01*
X121453649Y-60249851D01*
X121249848Y-60101782D01*
X121249847Y-60101781D01*
X121249845Y-60101780D01*
X121179747Y-60066063D01*
X121025383Y-59987410D01*
X120785785Y-59909560D01*
X120536962Y-59870150D01*
X120285038Y-59870150D01*
X120164206Y-59889288D01*
X120036214Y-59909560D01*
X119796616Y-59987410D01*
X119572151Y-60101782D01*
X119368350Y-60249851D01*
X119368345Y-60249855D01*
X119190205Y-60427995D01*
X119190201Y-60428000D01*
X119042132Y-60631801D01*
X118927760Y-60856266D01*
X118849910Y-61095864D01*
X118810500Y-61344688D01*
X105466000Y-61344688D01*
X105466000Y-58804688D01*
X112460500Y-58804688D01*
X112460500Y-59056612D01*
X112475183Y-59149313D01*
X112499910Y-59305435D01*
X112577760Y-59545033D01*
X112636891Y-59661083D01*
X112668263Y-59722654D01*
X112692132Y-59769498D01*
X112840201Y-59973299D01*
X112840205Y-59973304D01*
X113018345Y-60151444D01*
X113018350Y-60151448D01*
X113162182Y-60255947D01*
X113222155Y-60299520D01*
X113315464Y-60347063D01*
X113446616Y-60413889D01*
X113446618Y-60413889D01*
X113446621Y-60413891D01*
X113686215Y-60491740D01*
X113935038Y-60531150D01*
X113935039Y-60531150D01*
X114186961Y-60531150D01*
X114186962Y-60531150D01*
X114435785Y-60491740D01*
X114675379Y-60413891D01*
X114899845Y-60299520D01*
X115103656Y-60151443D01*
X115281793Y-59973306D01*
X115429870Y-59769495D01*
X115544241Y-59545029D01*
X115622090Y-59305435D01*
X115661500Y-59056612D01*
X115661500Y-58804688D01*
X115622090Y-58555865D01*
X115544241Y-58316271D01*
X115544239Y-58316268D01*
X115544239Y-58316266D01*
X115502747Y-58234834D01*
X115429870Y-58091805D01*
X115365500Y-58003207D01*
X115281798Y-57888000D01*
X115281794Y-57887995D01*
X115103654Y-57709855D01*
X115103649Y-57709851D01*
X114899848Y-57561782D01*
X114899847Y-57561781D01*
X114899845Y-57561780D01*
X114810974Y-57516498D01*
X114675383Y-57447410D01*
X114435785Y-57369560D01*
X114186962Y-57330150D01*
X113935038Y-57330150D01*
X113810626Y-57349855D01*
X113686214Y-57369560D01*
X113446616Y-57447410D01*
X113222151Y-57561782D01*
X113018350Y-57709851D01*
X113018345Y-57709855D01*
X112840205Y-57887995D01*
X112840201Y-57888000D01*
X112692132Y-58091801D01*
X112577760Y-58316266D01*
X112499910Y-58555864D01*
X112471118Y-58737648D01*
X112460500Y-58804688D01*
X105466000Y-58804688D01*
X105466000Y-48878711D01*
X108149500Y-48878711D01*
X108149500Y-49121288D01*
X108181161Y-49361785D01*
X108243947Y-49596104D01*
X108336773Y-49820205D01*
X108336776Y-49820212D01*
X108458064Y-50030289D01*
X108458066Y-50030292D01*
X108458067Y-50030293D01*
X108605733Y-50222736D01*
X108605739Y-50222743D01*
X108777256Y-50394260D01*
X108777262Y-50394265D01*
X108969711Y-50541936D01*
X109179788Y-50663224D01*
X109403900Y-50756054D01*
X109638211Y-50818838D01*
X109818586Y-50842584D01*
X109878711Y-50850500D01*
X109878712Y-50850500D01*
X110121289Y-50850500D01*
X110169388Y-50844167D01*
X110361789Y-50818838D01*
X110596100Y-50756054D01*
X110820212Y-50663224D01*
X111030289Y-50541936D01*
X111222738Y-50394265D01*
X111394265Y-50222738D01*
X111541936Y-50030289D01*
X111663224Y-49820212D01*
X111756054Y-49596100D01*
X111818838Y-49361789D01*
X111850500Y-49121288D01*
X111850500Y-48878712D01*
X111850500Y-48878711D01*
X138149500Y-48878711D01*
X138149500Y-49121288D01*
X138181161Y-49361785D01*
X138243947Y-49596104D01*
X138336773Y-49820205D01*
X138336776Y-49820212D01*
X138458064Y-50030289D01*
X138458066Y-50030292D01*
X138458067Y-50030293D01*
X138605733Y-50222736D01*
X138605739Y-50222743D01*
X138777256Y-50394260D01*
X138777262Y-50394265D01*
X138969711Y-50541936D01*
X139179788Y-50663224D01*
X139403900Y-50756054D01*
X139638211Y-50818838D01*
X139818586Y-50842584D01*
X139878711Y-50850500D01*
X139878712Y-50850500D01*
X140121289Y-50850500D01*
X140169388Y-50844167D01*
X140361789Y-50818838D01*
X140596100Y-50756054D01*
X140820212Y-50663224D01*
X141030289Y-50541936D01*
X141222738Y-50394265D01*
X141394265Y-50222738D01*
X141541936Y-50030289D01*
X141663224Y-49820212D01*
X141756054Y-49596100D01*
X141818838Y-49361789D01*
X141850500Y-49121288D01*
X141850500Y-48878712D01*
X141818838Y-48638211D01*
X141756054Y-48403900D01*
X141663224Y-48179788D01*
X141541936Y-47969711D01*
X141394265Y-47777262D01*
X141394260Y-47777256D01*
X141222743Y-47605739D01*
X141222736Y-47605733D01*
X141030293Y-47458067D01*
X141030292Y-47458066D01*
X141030289Y-47458064D01*
X140820212Y-47336776D01*
X140820205Y-47336773D01*
X140596104Y-47243947D01*
X140478944Y-47212554D01*
X140361789Y-47181162D01*
X140361788Y-47181161D01*
X140361785Y-47181161D01*
X140121289Y-47149500D01*
X140121288Y-47149500D01*
X139878712Y-47149500D01*
X139878711Y-47149500D01*
X139638214Y-47181161D01*
X139403895Y-47243947D01*
X139179794Y-47336773D01*
X139179785Y-47336777D01*
X138969706Y-47458067D01*
X138777263Y-47605733D01*
X138777256Y-47605739D01*
X138605739Y-47777256D01*
X138605733Y-47777263D01*
X138458067Y-47969706D01*
X138336777Y-48179785D01*
X138336773Y-48179794D01*
X138243947Y-48403895D01*
X138181161Y-48638214D01*
X138149500Y-48878711D01*
X111850500Y-48878711D01*
X111818838Y-48638211D01*
X111756054Y-48403900D01*
X111663224Y-48179788D01*
X111541936Y-47969711D01*
X111394265Y-47777262D01*
X111394260Y-47777256D01*
X111222743Y-47605739D01*
X111222736Y-47605733D01*
X111030293Y-47458067D01*
X111030292Y-47458066D01*
X111030289Y-47458064D01*
X110820212Y-47336776D01*
X110820205Y-47336773D01*
X110596104Y-47243947D01*
X110478944Y-47212554D01*
X110361789Y-47181162D01*
X110361788Y-47181161D01*
X110361785Y-47181161D01*
X110121289Y-47149500D01*
X110121288Y-47149500D01*
X109878712Y-47149500D01*
X109878711Y-47149500D01*
X109638214Y-47181161D01*
X109403895Y-47243947D01*
X109179794Y-47336773D01*
X109179785Y-47336777D01*
X108969706Y-47458067D01*
X108777263Y-47605733D01*
X108777256Y-47605739D01*
X108605739Y-47777256D01*
X108605733Y-47777263D01*
X108458067Y-47969706D01*
X108336777Y-48179785D01*
X108336773Y-48179794D01*
X108243947Y-48403895D01*
X108181161Y-48638214D01*
X108149500Y-48878711D01*
X105466000Y-48878711D01*
X105466000Y-47253750D01*
X105466226Y-47246263D01*
X105483771Y-46956205D01*
X105485576Y-46941340D01*
X105537280Y-46659201D01*
X105540864Y-46644663D01*
X105617596Y-46398422D01*
X105626196Y-46370822D01*
X105631498Y-46356841D01*
X105749231Y-46095249D01*
X105756176Y-46082016D01*
X105904580Y-45836526D01*
X105913067Y-45824230D01*
X106089980Y-45598417D01*
X106099895Y-45587226D01*
X106302726Y-45384395D01*
X106313917Y-45374480D01*
X106539730Y-45197567D01*
X106552026Y-45189080D01*
X106797516Y-45040676D01*
X106810749Y-45033731D01*
X107072341Y-44915998D01*
X107086322Y-44910696D01*
X107360168Y-44825362D01*
X107374697Y-44821780D01*
X107656844Y-44770075D01*
X107671701Y-44768271D01*
X107961764Y-44750726D01*
X107969251Y-44750500D01*
X108031392Y-44750500D01*
X141934108Y-44750500D01*
X141996249Y-44750500D01*
X142003736Y-44750726D01*
G37*
%TD.AperFunction*%
%TA.AperFunction,Conductor*%
G36*
X137711703Y-151362384D02*
G01*
X137718181Y-151368416D01*
X139281241Y-152931476D01*
X139314726Y-152992799D01*
X139311492Y-153057473D01*
X139297753Y-153099757D01*
X139276660Y-153232938D01*
X139264500Y-153309713D01*
X139264500Y-153522287D01*
X139297754Y-153732243D01*
X139321675Y-153805865D01*
X139363444Y-153934414D01*
X139459951Y-154123820D01*
X139584890Y-154295786D01*
X139735213Y-154446109D01*
X139907179Y-154571048D01*
X139907181Y-154571049D01*
X139907184Y-154571051D01*
X140096588Y-154667557D01*
X140298757Y-154733246D01*
X140508713Y-154766500D01*
X140508714Y-154766500D01*
X140721286Y-154766500D01*
X140721287Y-154766500D01*
X140931243Y-154733246D01*
X141133412Y-154667557D01*
X141322816Y-154571051D01*
X141444989Y-154482288D01*
X141494786Y-154446109D01*
X141494788Y-154446106D01*
X141494792Y-154446104D01*
X141645104Y-154295792D01*
X141645106Y-154295788D01*
X141645109Y-154295786D01*
X141770048Y-154123820D01*
X141770047Y-154123820D01*
X141770051Y-154123816D01*
X141866557Y-153934412D01*
X141932246Y-153732243D01*
X141965500Y-153522287D01*
X141965500Y-153309713D01*
X141932246Y-153099757D01*
X141866557Y-152897588D01*
X141770051Y-152708184D01*
X141770049Y-152708181D01*
X141770048Y-152708179D01*
X141645109Y-152536213D01*
X141494786Y-152385890D01*
X141322820Y-152260951D01*
X141322115Y-152260591D01*
X141314054Y-152256485D01*
X141263259Y-152208512D01*
X141246463Y-152140692D01*
X141268999Y-152074556D01*
X141314054Y-152035515D01*
X141322816Y-152031051D01*
X141344789Y-152015086D01*
X141494786Y-151906109D01*
X141494788Y-151906106D01*
X141494792Y-151906104D01*
X141645104Y-151755792D01*
X141645106Y-151755788D01*
X141645109Y-151755786D01*
X141703661Y-151675193D01*
X141770051Y-151583816D01*
X141770349Y-151583230D01*
X141790235Y-151544205D01*
X141838209Y-151493409D01*
X141900719Y-151476500D01*
X142841331Y-151476500D01*
X142841347Y-151476501D01*
X142848943Y-151476501D01*
X143007054Y-151476501D01*
X143007057Y-151476501D01*
X143159785Y-151435577D01*
X143209904Y-151406639D01*
X143231500Y-151394170D01*
X143299398Y-151377697D01*
X143365426Y-151400549D01*
X143408617Y-151455469D01*
X143417500Y-151501557D01*
X143417500Y-160989902D01*
X143397815Y-161056941D01*
X143381181Y-161077583D01*
X143043584Y-161415181D01*
X142982261Y-161448666D01*
X142955903Y-161451500D01*
X141900719Y-161451500D01*
X141833680Y-161431815D01*
X141790235Y-161383795D01*
X141770052Y-161344185D01*
X141770051Y-161344184D01*
X141645109Y-161172213D01*
X141531181Y-161058285D01*
X141497696Y-160996962D01*
X141502680Y-160927270D01*
X141544552Y-160871337D01*
X141575529Y-160854422D01*
X141707086Y-160805354D01*
X141707093Y-160805350D01*
X141822187Y-160719190D01*
X141822190Y-160719187D01*
X141908350Y-160604093D01*
X141908354Y-160604086D01*
X141958596Y-160469379D01*
X141958598Y-160469372D01*
X141964999Y-160409844D01*
X141965000Y-160409827D01*
X141965000Y-159762000D01*
X141048012Y-159762000D01*
X141080925Y-159704993D01*
X141115000Y-159577826D01*
X141115000Y-159446174D01*
X141080925Y-159319007D01*
X141048012Y-159262000D01*
X141965000Y-159262000D01*
X141965000Y-158614172D01*
X141964999Y-158614155D01*
X141958598Y-158554627D01*
X141958596Y-158554620D01*
X141908354Y-158419913D01*
X141908350Y-158419906D01*
X141822190Y-158304812D01*
X141822187Y-158304809D01*
X141707093Y-158218649D01*
X141707086Y-158218645D01*
X141572379Y-158168403D01*
X141572372Y-158168401D01*
X141512844Y-158162000D01*
X140865000Y-158162000D01*
X140865000Y-159078988D01*
X140807993Y-159046075D01*
X140680826Y-159012000D01*
X140549174Y-159012000D01*
X140422007Y-159046075D01*
X140365000Y-159078988D01*
X140365000Y-158162000D01*
X139717155Y-158162000D01*
X139657627Y-158168401D01*
X139657620Y-158168403D01*
X139522913Y-158218645D01*
X139522906Y-158218649D01*
X139407812Y-158304809D01*
X139407809Y-158304812D01*
X139321649Y-158419906D01*
X139321645Y-158419913D01*
X139271403Y-158554620D01*
X139271401Y-158554627D01*
X139265000Y-158614155D01*
X139265000Y-159262000D01*
X140181988Y-159262000D01*
X140149075Y-159319007D01*
X140115000Y-159446174D01*
X140115000Y-159577826D01*
X140149075Y-159704993D01*
X140181988Y-159762000D01*
X139265000Y-159762000D01*
X139265000Y-160409844D01*
X139271401Y-160469372D01*
X139271403Y-160469379D01*
X139321645Y-160604086D01*
X139321649Y-160604093D01*
X139407809Y-160719187D01*
X139407812Y-160719190D01*
X139522906Y-160805350D01*
X139522913Y-160805354D01*
X139654470Y-160854422D01*
X139710404Y-160896293D01*
X139734821Y-160961758D01*
X139719969Y-161030031D01*
X139698819Y-161058285D01*
X139584889Y-161172215D01*
X139459951Y-161344179D01*
X139363444Y-161533585D01*
X139297753Y-161735760D01*
X139264500Y-161945713D01*
X139264500Y-162092903D01*
X139244815Y-162159942D01*
X139192011Y-162205697D01*
X139122853Y-162215641D01*
X139059297Y-162186616D01*
X139052819Y-162180584D01*
X137542819Y-160670584D01*
X137509334Y-160609261D01*
X137506500Y-160582903D01*
X137506500Y-151456097D01*
X137526185Y-151389058D01*
X137578989Y-151343303D01*
X137648147Y-151333359D01*
X137711703Y-151362384D01*
G37*
%TD.AperFunction*%
%TA.AperFunction,Conductor*%
G36*
X137711703Y-140440384D02*
G01*
X137718181Y-140446416D01*
X139281241Y-142009476D01*
X139314726Y-142070799D01*
X139311492Y-142135473D01*
X139297753Y-142177757D01*
X139271061Y-142346288D01*
X139264500Y-142387713D01*
X139264500Y-142600287D01*
X139297754Y-142810243D01*
X139325038Y-142894215D01*
X139363444Y-143012414D01*
X139459951Y-143201820D01*
X139584890Y-143373786D01*
X139735213Y-143524109D01*
X139907179Y-143649048D01*
X139907181Y-143649049D01*
X139907184Y-143649051D01*
X140096588Y-143745557D01*
X140298757Y-143811246D01*
X140508713Y-143844500D01*
X140508714Y-143844500D01*
X140721286Y-143844500D01*
X140721287Y-143844500D01*
X140931243Y-143811246D01*
X141133412Y-143745557D01*
X141322816Y-143649051D01*
X141344789Y-143633086D01*
X141494786Y-143524109D01*
X141494788Y-143524106D01*
X141494792Y-143524104D01*
X141645104Y-143373792D01*
X141645106Y-143373788D01*
X141645109Y-143373786D01*
X141770048Y-143201820D01*
X141770047Y-143201820D01*
X141770051Y-143201816D01*
X141866557Y-143012412D01*
X141932246Y-142810243D01*
X141965500Y-142600287D01*
X141965500Y-142387713D01*
X141932246Y-142177757D01*
X141866557Y-141975588D01*
X141770051Y-141786184D01*
X141770049Y-141786181D01*
X141770048Y-141786179D01*
X141645109Y-141614213D01*
X141494786Y-141463890D01*
X141322820Y-141338951D01*
X141322115Y-141338591D01*
X141314054Y-141334485D01*
X141263259Y-141286512D01*
X141246463Y-141218692D01*
X141268999Y-141152556D01*
X141314054Y-141113515D01*
X141322816Y-141109051D01*
X141344789Y-141093086D01*
X141494786Y-140984109D01*
X141494788Y-140984106D01*
X141494792Y-140984104D01*
X141645104Y-140833792D01*
X141645106Y-140833788D01*
X141645109Y-140833786D01*
X141703661Y-140753193D01*
X141770051Y-140661816D01*
X141775744Y-140650643D01*
X141790235Y-140622205D01*
X141838209Y-140571409D01*
X141900719Y-140554500D01*
X142513331Y-140554500D01*
X142513347Y-140554501D01*
X142520943Y-140554501D01*
X142679054Y-140554501D01*
X142679057Y-140554501D01*
X142831785Y-140513577D01*
X142881904Y-140484639D01*
X142903500Y-140472170D01*
X142971398Y-140455697D01*
X143037426Y-140478549D01*
X143080617Y-140533469D01*
X143089500Y-140579557D01*
X143089500Y-149813902D01*
X143069815Y-149880941D01*
X143053181Y-149901583D01*
X142715584Y-150239181D01*
X142654261Y-150272666D01*
X142627903Y-150275500D01*
X141900719Y-150275500D01*
X141833680Y-150255815D01*
X141790235Y-150207795D01*
X141770052Y-150168185D01*
X141770051Y-150168184D01*
X141645109Y-149996213D01*
X141531181Y-149882285D01*
X141497696Y-149820962D01*
X141502680Y-149751270D01*
X141544552Y-149695337D01*
X141575529Y-149678422D01*
X141707086Y-149629354D01*
X141707093Y-149629350D01*
X141822187Y-149543190D01*
X141822190Y-149543187D01*
X141908350Y-149428093D01*
X141908354Y-149428086D01*
X141958596Y-149293379D01*
X141958598Y-149293372D01*
X141964999Y-149233844D01*
X141965000Y-149233827D01*
X141965000Y-148586000D01*
X141048012Y-148586000D01*
X141080925Y-148528993D01*
X141115000Y-148401826D01*
X141115000Y-148270174D01*
X141080925Y-148143007D01*
X141048012Y-148086000D01*
X141965000Y-148086000D01*
X141965000Y-147438172D01*
X141964999Y-147438155D01*
X141958598Y-147378627D01*
X141958596Y-147378620D01*
X141908354Y-147243913D01*
X141908350Y-147243906D01*
X141822190Y-147128812D01*
X141822187Y-147128809D01*
X141707093Y-147042649D01*
X141707086Y-147042645D01*
X141572379Y-146992403D01*
X141572372Y-146992401D01*
X141512844Y-146986000D01*
X140865000Y-146986000D01*
X140865000Y-147902988D01*
X140807993Y-147870075D01*
X140680826Y-147836000D01*
X140549174Y-147836000D01*
X140422007Y-147870075D01*
X140365000Y-147902988D01*
X140365000Y-146986000D01*
X139717155Y-146986000D01*
X139657627Y-146992401D01*
X139657620Y-146992403D01*
X139522913Y-147042645D01*
X139522906Y-147042649D01*
X139407812Y-147128809D01*
X139407809Y-147128812D01*
X139321649Y-147243906D01*
X139321645Y-147243913D01*
X139271403Y-147378620D01*
X139271401Y-147378627D01*
X139265000Y-147438155D01*
X139265000Y-148086000D01*
X140181988Y-148086000D01*
X140149075Y-148143007D01*
X140115000Y-148270174D01*
X140115000Y-148401826D01*
X140149075Y-148528993D01*
X140181988Y-148586000D01*
X139265000Y-148586000D01*
X139265000Y-149233844D01*
X139271401Y-149293372D01*
X139271403Y-149293379D01*
X139321645Y-149428086D01*
X139321649Y-149428093D01*
X139407809Y-149543187D01*
X139407812Y-149543190D01*
X139522906Y-149629350D01*
X139522913Y-149629354D01*
X139654470Y-149678422D01*
X139710404Y-149720293D01*
X139734821Y-149785758D01*
X139719969Y-149854031D01*
X139698819Y-149882285D01*
X139584889Y-149996215D01*
X139459951Y-150168179D01*
X139363444Y-150357585D01*
X139297753Y-150559760D01*
X139264500Y-150769713D01*
X139264500Y-150916903D01*
X139244815Y-150983942D01*
X139192011Y-151029697D01*
X139122853Y-151039641D01*
X139059297Y-151010616D01*
X139052819Y-151004584D01*
X137542819Y-149494584D01*
X137509334Y-149433261D01*
X137506500Y-149406903D01*
X137506500Y-140534097D01*
X137526185Y-140467058D01*
X137578989Y-140421303D01*
X137648147Y-140411359D01*
X137711703Y-140440384D01*
G37*
%TD.AperFunction*%
%TA.AperFunction,Conductor*%
G36*
X137711703Y-129264384D02*
G01*
X137718181Y-129270416D01*
X139281241Y-130833476D01*
X139314726Y-130894799D01*
X139311492Y-130959473D01*
X139297753Y-131001757D01*
X139264500Y-131211713D01*
X139264500Y-131424287D01*
X139297754Y-131634243D01*
X139312683Y-131680191D01*
X139363444Y-131836414D01*
X139459951Y-132025820D01*
X139584890Y-132197786D01*
X139735213Y-132348109D01*
X139907179Y-132473048D01*
X139907181Y-132473049D01*
X139907184Y-132473051D01*
X140096588Y-132569557D01*
X140298757Y-132635246D01*
X140508713Y-132668500D01*
X140508714Y-132668500D01*
X140721286Y-132668500D01*
X140721287Y-132668500D01*
X140931243Y-132635246D01*
X141133412Y-132569557D01*
X141322816Y-132473051D01*
X141417893Y-132403974D01*
X141494786Y-132348109D01*
X141494788Y-132348106D01*
X141494792Y-132348104D01*
X141645104Y-132197792D01*
X141645106Y-132197788D01*
X141645109Y-132197786D01*
X141770048Y-132025820D01*
X141770047Y-132025820D01*
X141770051Y-132025816D01*
X141866557Y-131836412D01*
X141932246Y-131634243D01*
X141965500Y-131424287D01*
X141965500Y-131211713D01*
X141932246Y-131001757D01*
X141866557Y-130799588D01*
X141770051Y-130610184D01*
X141770049Y-130610181D01*
X141770048Y-130610179D01*
X141645109Y-130438213D01*
X141494786Y-130287890D01*
X141322820Y-130162951D01*
X141322115Y-130162591D01*
X141314054Y-130158485D01*
X141263259Y-130110512D01*
X141246463Y-130042692D01*
X141268999Y-129976556D01*
X141314054Y-129937515D01*
X141322816Y-129933051D01*
X141344789Y-129917086D01*
X141494786Y-129808109D01*
X141494788Y-129808106D01*
X141494792Y-129808104D01*
X141645104Y-129657792D01*
X141645106Y-129657788D01*
X141645109Y-129657786D01*
X141703661Y-129577193D01*
X141770051Y-129485816D01*
X141770349Y-129485230D01*
X141790235Y-129446205D01*
X141838209Y-129395409D01*
X141900719Y-129378500D01*
X142185331Y-129378500D01*
X142185347Y-129378501D01*
X142192943Y-129378501D01*
X142351054Y-129378501D01*
X142351057Y-129378501D01*
X142503785Y-129337577D01*
X142553904Y-129308639D01*
X142575500Y-129296170D01*
X142643398Y-129279697D01*
X142709426Y-129302549D01*
X142752617Y-129357469D01*
X142761500Y-129403557D01*
X142761500Y-138891902D01*
X142741815Y-138958941D01*
X142725181Y-138979583D01*
X142387584Y-139317181D01*
X142326261Y-139350666D01*
X142299903Y-139353500D01*
X141900719Y-139353500D01*
X141833680Y-139333815D01*
X141790235Y-139285795D01*
X141770052Y-139246185D01*
X141770051Y-139246184D01*
X141645109Y-139074213D01*
X141531181Y-138960285D01*
X141497696Y-138898962D01*
X141502680Y-138829270D01*
X141544552Y-138773337D01*
X141575529Y-138756422D01*
X141707086Y-138707354D01*
X141707093Y-138707350D01*
X141822187Y-138621190D01*
X141822190Y-138621187D01*
X141908350Y-138506093D01*
X141908354Y-138506086D01*
X141958596Y-138371379D01*
X141958598Y-138371372D01*
X141964999Y-138311844D01*
X141965000Y-138311827D01*
X141965000Y-137664000D01*
X141048012Y-137664000D01*
X141080925Y-137606993D01*
X141115000Y-137479826D01*
X141115000Y-137348174D01*
X141080925Y-137221007D01*
X141048012Y-137164000D01*
X141965000Y-137164000D01*
X141965000Y-136516172D01*
X141964999Y-136516155D01*
X141958598Y-136456627D01*
X141958596Y-136456620D01*
X141908354Y-136321913D01*
X141908350Y-136321906D01*
X141822190Y-136206812D01*
X141822187Y-136206809D01*
X141707093Y-136120649D01*
X141707086Y-136120645D01*
X141572379Y-136070403D01*
X141572372Y-136070401D01*
X141512844Y-136064000D01*
X140865000Y-136064000D01*
X140865000Y-136980988D01*
X140807993Y-136948075D01*
X140680826Y-136914000D01*
X140549174Y-136914000D01*
X140422007Y-136948075D01*
X140365000Y-136980988D01*
X140365000Y-136064000D01*
X139717155Y-136064000D01*
X139657627Y-136070401D01*
X139657620Y-136070403D01*
X139522913Y-136120645D01*
X139522906Y-136120649D01*
X139407812Y-136206809D01*
X139407809Y-136206812D01*
X139321649Y-136321906D01*
X139321645Y-136321913D01*
X139271403Y-136456620D01*
X139271401Y-136456627D01*
X139265000Y-136516155D01*
X139265000Y-137164000D01*
X140181988Y-137164000D01*
X140149075Y-137221007D01*
X140115000Y-137348174D01*
X140115000Y-137479826D01*
X140149075Y-137606993D01*
X140181988Y-137664000D01*
X139265000Y-137664000D01*
X139265000Y-138311844D01*
X139271401Y-138371372D01*
X139271403Y-138371379D01*
X139321645Y-138506086D01*
X139321649Y-138506093D01*
X139407809Y-138621187D01*
X139407812Y-138621190D01*
X139522906Y-138707350D01*
X139522913Y-138707354D01*
X139654470Y-138756422D01*
X139710404Y-138798293D01*
X139734821Y-138863758D01*
X139719969Y-138932031D01*
X139698819Y-138960285D01*
X139584889Y-139074215D01*
X139459951Y-139246179D01*
X139363444Y-139435585D01*
X139297753Y-139637760D01*
X139264500Y-139847713D01*
X139264500Y-139994903D01*
X139244815Y-140061942D01*
X139192011Y-140107697D01*
X139122853Y-140117641D01*
X139059297Y-140088616D01*
X139052819Y-140082584D01*
X137542819Y-138572584D01*
X137509334Y-138511261D01*
X137506500Y-138484903D01*
X137506500Y-129358097D01*
X137526185Y-129291058D01*
X137578989Y-129245303D01*
X137648147Y-129235359D01*
X137711703Y-129264384D01*
G37*
%TD.AperFunction*%
%TA.AperFunction,Conductor*%
G36*
X138346703Y-62234384D02*
G01*
X138353181Y-62240416D01*
X142397181Y-66284416D01*
X142430666Y-66345739D01*
X142433500Y-66372097D01*
X142433500Y-127715902D01*
X142413815Y-127782941D01*
X142397181Y-127803583D01*
X142059584Y-128141181D01*
X142032656Y-128155884D01*
X142006838Y-128172477D01*
X142000637Y-128173368D01*
X141998261Y-128174666D01*
X141971903Y-128177500D01*
X141900719Y-128177500D01*
X141833680Y-128157815D01*
X141790235Y-128109795D01*
X141770052Y-128070185D01*
X141770051Y-128070184D01*
X141645109Y-127898213D01*
X141531181Y-127784285D01*
X141497696Y-127722962D01*
X141502680Y-127653270D01*
X141544552Y-127597337D01*
X141575529Y-127580422D01*
X141707086Y-127531354D01*
X141707093Y-127531350D01*
X141822187Y-127445190D01*
X141822190Y-127445187D01*
X141908350Y-127330093D01*
X141908354Y-127330086D01*
X141958596Y-127195379D01*
X141958598Y-127195372D01*
X141964999Y-127135844D01*
X141965000Y-127135827D01*
X141965000Y-126488000D01*
X141048012Y-126488000D01*
X141080925Y-126430993D01*
X141115000Y-126303826D01*
X141115000Y-126172174D01*
X141080925Y-126045007D01*
X141048012Y-125988000D01*
X141965000Y-125988000D01*
X141965000Y-125340172D01*
X141964999Y-125340155D01*
X141958598Y-125280627D01*
X141958596Y-125280620D01*
X141908354Y-125145913D01*
X141908350Y-125145906D01*
X141822190Y-125030812D01*
X141822187Y-125030809D01*
X141707093Y-124944649D01*
X141707086Y-124944645D01*
X141572379Y-124894403D01*
X141572372Y-124894401D01*
X141512844Y-124888000D01*
X140865000Y-124888000D01*
X140865000Y-125804988D01*
X140807993Y-125772075D01*
X140680826Y-125738000D01*
X140549174Y-125738000D01*
X140422007Y-125772075D01*
X140365000Y-125804988D01*
X140365000Y-124888000D01*
X139717155Y-124888000D01*
X139657627Y-124894401D01*
X139657620Y-124894403D01*
X139522913Y-124944645D01*
X139522906Y-124944649D01*
X139407812Y-125030809D01*
X139407809Y-125030812D01*
X139321649Y-125145906D01*
X139321645Y-125145913D01*
X139271403Y-125280620D01*
X139271401Y-125280627D01*
X139265000Y-125340155D01*
X139265000Y-125988000D01*
X140181988Y-125988000D01*
X140149075Y-126045007D01*
X140115000Y-126172174D01*
X140115000Y-126303826D01*
X140149075Y-126430993D01*
X140181988Y-126488000D01*
X139265000Y-126488000D01*
X139265000Y-127135844D01*
X139271401Y-127195372D01*
X139271403Y-127195379D01*
X139321645Y-127330086D01*
X139321649Y-127330093D01*
X139407809Y-127445187D01*
X139407812Y-127445190D01*
X139522906Y-127531350D01*
X139522913Y-127531354D01*
X139654470Y-127580422D01*
X139710404Y-127622293D01*
X139734821Y-127687758D01*
X139719969Y-127756031D01*
X139698819Y-127784285D01*
X139584889Y-127898215D01*
X139459951Y-128070179D01*
X139363444Y-128259585D01*
X139297753Y-128461760D01*
X139264500Y-128671713D01*
X139264500Y-128818903D01*
X139244815Y-128885942D01*
X139192011Y-128931697D01*
X139122853Y-128941641D01*
X139059297Y-128912616D01*
X139052819Y-128906584D01*
X137542819Y-127396584D01*
X137509334Y-127335261D01*
X137506500Y-127308903D01*
X137506500Y-119535847D01*
X137526185Y-119468808D01*
X137578989Y-119423053D01*
X137606309Y-119414230D01*
X137622291Y-119411050D01*
X137739497Y-119387737D01*
X137885179Y-119327394D01*
X138016289Y-119239789D01*
X138127789Y-119128289D01*
X138215394Y-118997179D01*
X138225191Y-118973524D01*
X138252069Y-118933297D01*
X141806952Y-115378416D01*
X141861621Y-115296597D01*
X141882056Y-115266014D01*
X141882058Y-115266009D01*
X141882062Y-115266004D01*
X141889084Y-115255495D01*
X141945658Y-115118913D01*
X141974500Y-114973918D01*
X141974500Y-79298604D01*
X141983939Y-79251151D01*
X141993737Y-79227497D01*
X142024500Y-79072842D01*
X142024500Y-78915158D01*
X142024500Y-78915155D01*
X142024499Y-78915153D01*
X142004918Y-78816713D01*
X141993737Y-78760503D01*
X141980732Y-78729106D01*
X141933397Y-78614827D01*
X141933390Y-78614814D01*
X141845789Y-78483711D01*
X141845786Y-78483707D01*
X141734292Y-78372213D01*
X141734288Y-78372210D01*
X141603185Y-78284609D01*
X141603172Y-78284602D01*
X141457501Y-78224264D01*
X141457491Y-78224261D01*
X141302151Y-78193362D01*
X141240241Y-78160977D01*
X141238662Y-78159426D01*
X138177819Y-75098583D01*
X138144334Y-75037260D01*
X138141500Y-75010902D01*
X138141500Y-62328097D01*
X138161185Y-62261058D01*
X138213989Y-62215303D01*
X138283147Y-62205359D01*
X138346703Y-62234384D01*
G37*
%TD.AperFunction*%
%TD*%
M02*
