%TF.GenerationSoftware,KiCad,Pcbnew,9.0.7-1.fc43*%
%TF.CreationDate,2026-04-03T17:31:38+02:00*%
%TF.ProjectId,Only_ESP_PCB,4f6e6c79-5f45-4535-905f-5043422e6b69,rev?*%
%TF.SameCoordinates,Original*%
%TF.FileFunction,Legend,Bot*%
%TF.FilePolarity,Positive*%
%FSLAX46Y46*%
G04 Gerber Fmt 4.6, Leading zero omitted, Abs format (unit mm)*
G04 Created by KiCad (PCBNEW 9.0.7-1.fc43) date 2026-04-03 17:31:38*
%MOMM*%
%LPD*%
G01*
G04 APERTURE LIST*
%ADD10C,0.150000*%
%ADD11C,0.127000*%
%ADD12C,0.120000*%
G04 APERTURE END LIST*
D10*
X130590870Y-61199356D02*
X130590870Y-59798600D01*
X130590870Y-59798600D02*
X130257357Y-59798600D01*
X130257357Y-59798600D02*
X130057249Y-59865303D01*
X130057249Y-59865303D02*
X129923844Y-59998708D01*
X129923844Y-59998708D02*
X129857141Y-60132114D01*
X129857141Y-60132114D02*
X129790438Y-60398924D01*
X129790438Y-60398924D02*
X129790438Y-60599032D01*
X129790438Y-60599032D02*
X129857141Y-60865843D01*
X129857141Y-60865843D02*
X129923844Y-60999248D01*
X129923844Y-60999248D02*
X130057249Y-61132654D01*
X130057249Y-61132654D02*
X130257357Y-61199356D01*
X130257357Y-61199356D02*
X130590870Y-61199356D01*
X128456385Y-61199356D02*
X129256817Y-61199356D01*
X128856601Y-61199356D02*
X128856601Y-59798600D01*
X128856601Y-59798600D02*
X128990006Y-59998708D01*
X128990006Y-59998708D02*
X129123412Y-60132114D01*
X129123412Y-60132114D02*
X129256817Y-60198816D01*
X131666666Y-58320830D02*
X131714285Y-58368450D01*
X131714285Y-58368450D02*
X131857142Y-58416069D01*
X131857142Y-58416069D02*
X131952380Y-58416069D01*
X131952380Y-58416069D02*
X132095237Y-58368450D01*
X132095237Y-58368450D02*
X132190475Y-58273211D01*
X132190475Y-58273211D02*
X132238094Y-58177973D01*
X132238094Y-58177973D02*
X132285713Y-57987497D01*
X132285713Y-57987497D02*
X132285713Y-57844640D01*
X132285713Y-57844640D02*
X132238094Y-57654164D01*
X132238094Y-57654164D02*
X132190475Y-57558926D01*
X132190475Y-57558926D02*
X132095237Y-57463688D01*
X132095237Y-57463688D02*
X131952380Y-57416069D01*
X131952380Y-57416069D02*
X131857142Y-57416069D01*
X131857142Y-57416069D02*
X131714285Y-57463688D01*
X131714285Y-57463688D02*
X131666666Y-57511307D01*
X131285713Y-57511307D02*
X131238094Y-57463688D01*
X131238094Y-57463688D02*
X131142856Y-57416069D01*
X131142856Y-57416069D02*
X130904761Y-57416069D01*
X130904761Y-57416069D02*
X130809523Y-57463688D01*
X130809523Y-57463688D02*
X130761904Y-57511307D01*
X130761904Y-57511307D02*
X130714285Y-57606545D01*
X130714285Y-57606545D02*
X130714285Y-57701783D01*
X130714285Y-57701783D02*
X130761904Y-57844640D01*
X130761904Y-57844640D02*
X131333332Y-58416069D01*
X131333332Y-58416069D02*
X130714285Y-58416069D01*
X131419666Y-76359580D02*
X131467285Y-76407200D01*
X131467285Y-76407200D02*
X131610142Y-76454819D01*
X131610142Y-76454819D02*
X131705380Y-76454819D01*
X131705380Y-76454819D02*
X131848237Y-76407200D01*
X131848237Y-76407200D02*
X131943475Y-76311961D01*
X131943475Y-76311961D02*
X131991094Y-76216723D01*
X131991094Y-76216723D02*
X132038713Y-76026247D01*
X132038713Y-76026247D02*
X132038713Y-75883390D01*
X132038713Y-75883390D02*
X131991094Y-75692914D01*
X131991094Y-75692914D02*
X131943475Y-75597676D01*
X131943475Y-75597676D02*
X131848237Y-75502438D01*
X131848237Y-75502438D02*
X131705380Y-75454819D01*
X131705380Y-75454819D02*
X131610142Y-75454819D01*
X131610142Y-75454819D02*
X131467285Y-75502438D01*
X131467285Y-75502438D02*
X131419666Y-75550057D01*
X131086332Y-75454819D02*
X130467285Y-75454819D01*
X130467285Y-75454819D02*
X130800618Y-75835771D01*
X130800618Y-75835771D02*
X130657761Y-75835771D01*
X130657761Y-75835771D02*
X130562523Y-75883390D01*
X130562523Y-75883390D02*
X130514904Y-75931009D01*
X130514904Y-75931009D02*
X130467285Y-76026247D01*
X130467285Y-76026247D02*
X130467285Y-76264342D01*
X130467285Y-76264342D02*
X130514904Y-76359580D01*
X130514904Y-76359580D02*
X130562523Y-76407200D01*
X130562523Y-76407200D02*
X130657761Y-76454819D01*
X130657761Y-76454819D02*
X130943475Y-76454819D01*
X130943475Y-76454819D02*
X131038713Y-76407200D01*
X131038713Y-76407200D02*
X131086332Y-76359580D01*
X131610166Y-98042830D02*
X131657785Y-98090450D01*
X131657785Y-98090450D02*
X131800642Y-98138069D01*
X131800642Y-98138069D02*
X131895880Y-98138069D01*
X131895880Y-98138069D02*
X132038737Y-98090450D01*
X132038737Y-98090450D02*
X132133975Y-97995211D01*
X132133975Y-97995211D02*
X132181594Y-97899973D01*
X132181594Y-97899973D02*
X132229213Y-97709497D01*
X132229213Y-97709497D02*
X132229213Y-97566640D01*
X132229213Y-97566640D02*
X132181594Y-97376164D01*
X132181594Y-97376164D02*
X132133975Y-97280926D01*
X132133975Y-97280926D02*
X132038737Y-97185688D01*
X132038737Y-97185688D02*
X131895880Y-97138069D01*
X131895880Y-97138069D02*
X131800642Y-97138069D01*
X131800642Y-97138069D02*
X131657785Y-97185688D01*
X131657785Y-97185688D02*
X131610166Y-97233307D01*
X130753023Y-97471402D02*
X130753023Y-98138069D01*
X130991118Y-97090450D02*
X131229213Y-97804735D01*
X131229213Y-97804735D02*
X130610166Y-97804735D01*
X131416666Y-114609580D02*
X131464285Y-114657200D01*
X131464285Y-114657200D02*
X131607142Y-114704819D01*
X131607142Y-114704819D02*
X131702380Y-114704819D01*
X131702380Y-114704819D02*
X131845237Y-114657200D01*
X131845237Y-114657200D02*
X131940475Y-114561961D01*
X131940475Y-114561961D02*
X131988094Y-114466723D01*
X131988094Y-114466723D02*
X132035713Y-114276247D01*
X132035713Y-114276247D02*
X132035713Y-114133390D01*
X132035713Y-114133390D02*
X131988094Y-113942914D01*
X131988094Y-113942914D02*
X131940475Y-113847676D01*
X131940475Y-113847676D02*
X131845237Y-113752438D01*
X131845237Y-113752438D02*
X131702380Y-113704819D01*
X131702380Y-113704819D02*
X131607142Y-113704819D01*
X131607142Y-113704819D02*
X131464285Y-113752438D01*
X131464285Y-113752438D02*
X131416666Y-113800057D01*
X130511904Y-113704819D02*
X130988094Y-113704819D01*
X130988094Y-113704819D02*
X131035713Y-114181009D01*
X131035713Y-114181009D02*
X130988094Y-114133390D01*
X130988094Y-114133390D02*
X130892856Y-114085771D01*
X130892856Y-114085771D02*
X130654761Y-114085771D01*
X130654761Y-114085771D02*
X130559523Y-114133390D01*
X130559523Y-114133390D02*
X130511904Y-114181009D01*
X130511904Y-114181009D02*
X130464285Y-114276247D01*
X130464285Y-114276247D02*
X130464285Y-114514342D01*
X130464285Y-114514342D02*
X130511904Y-114609580D01*
X130511904Y-114609580D02*
X130559523Y-114657200D01*
X130559523Y-114657200D02*
X130654761Y-114704819D01*
X130654761Y-114704819D02*
X130892856Y-114704819D01*
X130892856Y-114704819D02*
X130988094Y-114657200D01*
X130988094Y-114657200D02*
X131035713Y-114609580D01*
X131611666Y-132757080D02*
X131659285Y-132804700D01*
X131659285Y-132804700D02*
X131802142Y-132852319D01*
X131802142Y-132852319D02*
X131897380Y-132852319D01*
X131897380Y-132852319D02*
X132040237Y-132804700D01*
X132040237Y-132804700D02*
X132135475Y-132709461D01*
X132135475Y-132709461D02*
X132183094Y-132614223D01*
X132183094Y-132614223D02*
X132230713Y-132423747D01*
X132230713Y-132423747D02*
X132230713Y-132280890D01*
X132230713Y-132280890D02*
X132183094Y-132090414D01*
X132183094Y-132090414D02*
X132135475Y-131995176D01*
X132135475Y-131995176D02*
X132040237Y-131899938D01*
X132040237Y-131899938D02*
X131897380Y-131852319D01*
X131897380Y-131852319D02*
X131802142Y-131852319D01*
X131802142Y-131852319D02*
X131659285Y-131899938D01*
X131659285Y-131899938D02*
X131611666Y-131947557D01*
X130754523Y-131852319D02*
X130944999Y-131852319D01*
X130944999Y-131852319D02*
X131040237Y-131899938D01*
X131040237Y-131899938D02*
X131087856Y-131947557D01*
X131087856Y-131947557D02*
X131183094Y-132090414D01*
X131183094Y-132090414D02*
X131230713Y-132280890D01*
X131230713Y-132280890D02*
X131230713Y-132661842D01*
X131230713Y-132661842D02*
X131183094Y-132757080D01*
X131183094Y-132757080D02*
X131135475Y-132804700D01*
X131135475Y-132804700D02*
X131040237Y-132852319D01*
X131040237Y-132852319D02*
X130849761Y-132852319D01*
X130849761Y-132852319D02*
X130754523Y-132804700D01*
X130754523Y-132804700D02*
X130706904Y-132757080D01*
X130706904Y-132757080D02*
X130659285Y-132661842D01*
X130659285Y-132661842D02*
X130659285Y-132423747D01*
X130659285Y-132423747D02*
X130706904Y-132328509D01*
X130706904Y-132328509D02*
X130754523Y-132280890D01*
X130754523Y-132280890D02*
X130849761Y-132233271D01*
X130849761Y-132233271D02*
X131040237Y-132233271D01*
X131040237Y-132233271D02*
X131135475Y-132280890D01*
X131135475Y-132280890D02*
X131183094Y-132328509D01*
X131183094Y-132328509D02*
X131230713Y-132423747D01*
X131419666Y-155573830D02*
X131467285Y-155621450D01*
X131467285Y-155621450D02*
X131610142Y-155669069D01*
X131610142Y-155669069D02*
X131705380Y-155669069D01*
X131705380Y-155669069D02*
X131848237Y-155621450D01*
X131848237Y-155621450D02*
X131943475Y-155526211D01*
X131943475Y-155526211D02*
X131991094Y-155430973D01*
X131991094Y-155430973D02*
X132038713Y-155240497D01*
X132038713Y-155240497D02*
X132038713Y-155097640D01*
X132038713Y-155097640D02*
X131991094Y-154907164D01*
X131991094Y-154907164D02*
X131943475Y-154811926D01*
X131943475Y-154811926D02*
X131848237Y-154716688D01*
X131848237Y-154716688D02*
X131705380Y-154669069D01*
X131705380Y-154669069D02*
X131610142Y-154669069D01*
X131610142Y-154669069D02*
X131467285Y-154716688D01*
X131467285Y-154716688D02*
X131419666Y-154764307D01*
X131086332Y-154669069D02*
X130419666Y-154669069D01*
X130419666Y-154669069D02*
X130848237Y-155669069D01*
X117934332Y-56543850D02*
X117791475Y-56591469D01*
X117791475Y-56591469D02*
X117553380Y-56591469D01*
X117553380Y-56591469D02*
X117458142Y-56543850D01*
X117458142Y-56543850D02*
X117410523Y-56496230D01*
X117410523Y-56496230D02*
X117362904Y-56400992D01*
X117362904Y-56400992D02*
X117362904Y-56305754D01*
X117362904Y-56305754D02*
X117410523Y-56210516D01*
X117410523Y-56210516D02*
X117458142Y-56162897D01*
X117458142Y-56162897D02*
X117553380Y-56115278D01*
X117553380Y-56115278D02*
X117743856Y-56067659D01*
X117743856Y-56067659D02*
X117839094Y-56020040D01*
X117839094Y-56020040D02*
X117886713Y-55972421D01*
X117886713Y-55972421D02*
X117934332Y-55877183D01*
X117934332Y-55877183D02*
X117934332Y-55781945D01*
X117934332Y-55781945D02*
X117886713Y-55686707D01*
X117886713Y-55686707D02*
X117839094Y-55639088D01*
X117839094Y-55639088D02*
X117743856Y-55591469D01*
X117743856Y-55591469D02*
X117505761Y-55591469D01*
X117505761Y-55591469D02*
X117362904Y-55639088D01*
X117029570Y-55591469D02*
X116791475Y-56591469D01*
X116791475Y-56591469D02*
X116600999Y-55877183D01*
X116600999Y-55877183D02*
X116410523Y-56591469D01*
X116410523Y-56591469D02*
X116172428Y-55591469D01*
X115267666Y-56591469D02*
X115839094Y-56591469D01*
X115553380Y-56591469D02*
X115553380Y-55591469D01*
X115553380Y-55591469D02*
X115648618Y-55734326D01*
X115648618Y-55734326D02*
X115743856Y-55829564D01*
X115743856Y-55829564D02*
X115839094Y-55877183D01*
X117934332Y-75593850D02*
X117791475Y-75641469D01*
X117791475Y-75641469D02*
X117553380Y-75641469D01*
X117553380Y-75641469D02*
X117458142Y-75593850D01*
X117458142Y-75593850D02*
X117410523Y-75546230D01*
X117410523Y-75546230D02*
X117362904Y-75450992D01*
X117362904Y-75450992D02*
X117362904Y-75355754D01*
X117362904Y-75355754D02*
X117410523Y-75260516D01*
X117410523Y-75260516D02*
X117458142Y-75212897D01*
X117458142Y-75212897D02*
X117553380Y-75165278D01*
X117553380Y-75165278D02*
X117743856Y-75117659D01*
X117743856Y-75117659D02*
X117839094Y-75070040D01*
X117839094Y-75070040D02*
X117886713Y-75022421D01*
X117886713Y-75022421D02*
X117934332Y-74927183D01*
X117934332Y-74927183D02*
X117934332Y-74831945D01*
X117934332Y-74831945D02*
X117886713Y-74736707D01*
X117886713Y-74736707D02*
X117839094Y-74689088D01*
X117839094Y-74689088D02*
X117743856Y-74641469D01*
X117743856Y-74641469D02*
X117505761Y-74641469D01*
X117505761Y-74641469D02*
X117362904Y-74689088D01*
X117029570Y-74641469D02*
X116791475Y-75641469D01*
X116791475Y-75641469D02*
X116600999Y-74927183D01*
X116600999Y-74927183D02*
X116410523Y-75641469D01*
X116410523Y-75641469D02*
X116172428Y-74641469D01*
X115839094Y-74736707D02*
X115791475Y-74689088D01*
X115791475Y-74689088D02*
X115696237Y-74641469D01*
X115696237Y-74641469D02*
X115458142Y-74641469D01*
X115458142Y-74641469D02*
X115362904Y-74689088D01*
X115362904Y-74689088D02*
X115315285Y-74736707D01*
X115315285Y-74736707D02*
X115267666Y-74831945D01*
X115267666Y-74831945D02*
X115267666Y-74927183D01*
X115267666Y-74927183D02*
X115315285Y-75070040D01*
X115315285Y-75070040D02*
X115886713Y-75641469D01*
X115886713Y-75641469D02*
X115267666Y-75641469D01*
X117934332Y-94643850D02*
X117791475Y-94691469D01*
X117791475Y-94691469D02*
X117553380Y-94691469D01*
X117553380Y-94691469D02*
X117458142Y-94643850D01*
X117458142Y-94643850D02*
X117410523Y-94596230D01*
X117410523Y-94596230D02*
X117362904Y-94500992D01*
X117362904Y-94500992D02*
X117362904Y-94405754D01*
X117362904Y-94405754D02*
X117410523Y-94310516D01*
X117410523Y-94310516D02*
X117458142Y-94262897D01*
X117458142Y-94262897D02*
X117553380Y-94215278D01*
X117553380Y-94215278D02*
X117743856Y-94167659D01*
X117743856Y-94167659D02*
X117839094Y-94120040D01*
X117839094Y-94120040D02*
X117886713Y-94072421D01*
X117886713Y-94072421D02*
X117934332Y-93977183D01*
X117934332Y-93977183D02*
X117934332Y-93881945D01*
X117934332Y-93881945D02*
X117886713Y-93786707D01*
X117886713Y-93786707D02*
X117839094Y-93739088D01*
X117839094Y-93739088D02*
X117743856Y-93691469D01*
X117743856Y-93691469D02*
X117505761Y-93691469D01*
X117505761Y-93691469D02*
X117362904Y-93739088D01*
X117029570Y-93691469D02*
X116791475Y-94691469D01*
X116791475Y-94691469D02*
X116600999Y-93977183D01*
X116600999Y-93977183D02*
X116410523Y-94691469D01*
X116410523Y-94691469D02*
X116172428Y-93691469D01*
X115886713Y-93691469D02*
X115267666Y-93691469D01*
X115267666Y-93691469D02*
X115600999Y-94072421D01*
X115600999Y-94072421D02*
X115458142Y-94072421D01*
X115458142Y-94072421D02*
X115362904Y-94120040D01*
X115362904Y-94120040D02*
X115315285Y-94167659D01*
X115315285Y-94167659D02*
X115267666Y-94262897D01*
X115267666Y-94262897D02*
X115267666Y-94500992D01*
X115267666Y-94500992D02*
X115315285Y-94596230D01*
X115315285Y-94596230D02*
X115362904Y-94643850D01*
X115362904Y-94643850D02*
X115458142Y-94691469D01*
X115458142Y-94691469D02*
X115743856Y-94691469D01*
X115743856Y-94691469D02*
X115839094Y-94643850D01*
X115839094Y-94643850D02*
X115886713Y-94596230D01*
X117934332Y-113693850D02*
X117791475Y-113741469D01*
X117791475Y-113741469D02*
X117553380Y-113741469D01*
X117553380Y-113741469D02*
X117458142Y-113693850D01*
X117458142Y-113693850D02*
X117410523Y-113646230D01*
X117410523Y-113646230D02*
X117362904Y-113550992D01*
X117362904Y-113550992D02*
X117362904Y-113455754D01*
X117362904Y-113455754D02*
X117410523Y-113360516D01*
X117410523Y-113360516D02*
X117458142Y-113312897D01*
X117458142Y-113312897D02*
X117553380Y-113265278D01*
X117553380Y-113265278D02*
X117743856Y-113217659D01*
X117743856Y-113217659D02*
X117839094Y-113170040D01*
X117839094Y-113170040D02*
X117886713Y-113122421D01*
X117886713Y-113122421D02*
X117934332Y-113027183D01*
X117934332Y-113027183D02*
X117934332Y-112931945D01*
X117934332Y-112931945D02*
X117886713Y-112836707D01*
X117886713Y-112836707D02*
X117839094Y-112789088D01*
X117839094Y-112789088D02*
X117743856Y-112741469D01*
X117743856Y-112741469D02*
X117505761Y-112741469D01*
X117505761Y-112741469D02*
X117362904Y-112789088D01*
X117029570Y-112741469D02*
X116791475Y-113741469D01*
X116791475Y-113741469D02*
X116600999Y-113027183D01*
X116600999Y-113027183D02*
X116410523Y-113741469D01*
X116410523Y-113741469D02*
X116172428Y-112741469D01*
X115362904Y-113074802D02*
X115362904Y-113741469D01*
X115600999Y-112693850D02*
X115839094Y-113408135D01*
X115839094Y-113408135D02*
X115220047Y-113408135D01*
X117934332Y-132743850D02*
X117791475Y-132791469D01*
X117791475Y-132791469D02*
X117553380Y-132791469D01*
X117553380Y-132791469D02*
X117458142Y-132743850D01*
X117458142Y-132743850D02*
X117410523Y-132696230D01*
X117410523Y-132696230D02*
X117362904Y-132600992D01*
X117362904Y-132600992D02*
X117362904Y-132505754D01*
X117362904Y-132505754D02*
X117410523Y-132410516D01*
X117410523Y-132410516D02*
X117458142Y-132362897D01*
X117458142Y-132362897D02*
X117553380Y-132315278D01*
X117553380Y-132315278D02*
X117743856Y-132267659D01*
X117743856Y-132267659D02*
X117839094Y-132220040D01*
X117839094Y-132220040D02*
X117886713Y-132172421D01*
X117886713Y-132172421D02*
X117934332Y-132077183D01*
X117934332Y-132077183D02*
X117934332Y-131981945D01*
X117934332Y-131981945D02*
X117886713Y-131886707D01*
X117886713Y-131886707D02*
X117839094Y-131839088D01*
X117839094Y-131839088D02*
X117743856Y-131791469D01*
X117743856Y-131791469D02*
X117505761Y-131791469D01*
X117505761Y-131791469D02*
X117362904Y-131839088D01*
X117029570Y-131791469D02*
X116791475Y-132791469D01*
X116791475Y-132791469D02*
X116600999Y-132077183D01*
X116600999Y-132077183D02*
X116410523Y-132791469D01*
X116410523Y-132791469D02*
X116172428Y-131791469D01*
X115315285Y-131791469D02*
X115791475Y-131791469D01*
X115791475Y-131791469D02*
X115839094Y-132267659D01*
X115839094Y-132267659D02*
X115791475Y-132220040D01*
X115791475Y-132220040D02*
X115696237Y-132172421D01*
X115696237Y-132172421D02*
X115458142Y-132172421D01*
X115458142Y-132172421D02*
X115362904Y-132220040D01*
X115362904Y-132220040D02*
X115315285Y-132267659D01*
X115315285Y-132267659D02*
X115267666Y-132362897D01*
X115267666Y-132362897D02*
X115267666Y-132600992D01*
X115267666Y-132600992D02*
X115315285Y-132696230D01*
X115315285Y-132696230D02*
X115362904Y-132743850D01*
X115362904Y-132743850D02*
X115458142Y-132791469D01*
X115458142Y-132791469D02*
X115696237Y-132791469D01*
X115696237Y-132791469D02*
X115791475Y-132743850D01*
X115791475Y-132743850D02*
X115839094Y-132696230D01*
X117934332Y-151793850D02*
X117791475Y-151841469D01*
X117791475Y-151841469D02*
X117553380Y-151841469D01*
X117553380Y-151841469D02*
X117458142Y-151793850D01*
X117458142Y-151793850D02*
X117410523Y-151746230D01*
X117410523Y-151746230D02*
X117362904Y-151650992D01*
X117362904Y-151650992D02*
X117362904Y-151555754D01*
X117362904Y-151555754D02*
X117410523Y-151460516D01*
X117410523Y-151460516D02*
X117458142Y-151412897D01*
X117458142Y-151412897D02*
X117553380Y-151365278D01*
X117553380Y-151365278D02*
X117743856Y-151317659D01*
X117743856Y-151317659D02*
X117839094Y-151270040D01*
X117839094Y-151270040D02*
X117886713Y-151222421D01*
X117886713Y-151222421D02*
X117934332Y-151127183D01*
X117934332Y-151127183D02*
X117934332Y-151031945D01*
X117934332Y-151031945D02*
X117886713Y-150936707D01*
X117886713Y-150936707D02*
X117839094Y-150889088D01*
X117839094Y-150889088D02*
X117743856Y-150841469D01*
X117743856Y-150841469D02*
X117505761Y-150841469D01*
X117505761Y-150841469D02*
X117362904Y-150889088D01*
X117029570Y-150841469D02*
X116791475Y-151841469D01*
X116791475Y-151841469D02*
X116600999Y-151127183D01*
X116600999Y-151127183D02*
X116410523Y-151841469D01*
X116410523Y-151841469D02*
X116172428Y-150841469D01*
X115362904Y-150841469D02*
X115553380Y-150841469D01*
X115553380Y-150841469D02*
X115648618Y-150889088D01*
X115648618Y-150889088D02*
X115696237Y-150936707D01*
X115696237Y-150936707D02*
X115791475Y-151079564D01*
X115791475Y-151079564D02*
X115839094Y-151270040D01*
X115839094Y-151270040D02*
X115839094Y-151650992D01*
X115839094Y-151650992D02*
X115791475Y-151746230D01*
X115791475Y-151746230D02*
X115743856Y-151793850D01*
X115743856Y-151793850D02*
X115648618Y-151841469D01*
X115648618Y-151841469D02*
X115458142Y-151841469D01*
X115458142Y-151841469D02*
X115362904Y-151793850D01*
X115362904Y-151793850D02*
X115315285Y-151746230D01*
X115315285Y-151746230D02*
X115267666Y-151650992D01*
X115267666Y-151650992D02*
X115267666Y-151412897D01*
X115267666Y-151412897D02*
X115315285Y-151317659D01*
X115315285Y-151317659D02*
X115362904Y-151270040D01*
X115362904Y-151270040D02*
X115458142Y-151222421D01*
X115458142Y-151222421D02*
X115648618Y-151222421D01*
X115648618Y-151222421D02*
X115743856Y-151270040D01*
X115743856Y-151270040D02*
X115791475Y-151317659D01*
X115791475Y-151317659D02*
X115839094Y-151412897D01*
X130400370Y-156449356D02*
X130400370Y-155048600D01*
X130400370Y-155048600D02*
X130066857Y-155048600D01*
X130066857Y-155048600D02*
X129866749Y-155115303D01*
X129866749Y-155115303D02*
X129733344Y-155248708D01*
X129733344Y-155248708D02*
X129666641Y-155382114D01*
X129666641Y-155382114D02*
X129599938Y-155648924D01*
X129599938Y-155648924D02*
X129599938Y-155849032D01*
X129599938Y-155849032D02*
X129666641Y-156115843D01*
X129666641Y-156115843D02*
X129733344Y-156249248D01*
X129733344Y-156249248D02*
X129866749Y-156382654D01*
X129866749Y-156382654D02*
X130066857Y-156449356D01*
X130066857Y-156449356D02*
X130400370Y-156449356D01*
X128399290Y-155048600D02*
X128666101Y-155048600D01*
X128666101Y-155048600D02*
X128799506Y-155115303D01*
X128799506Y-155115303D02*
X128866209Y-155182006D01*
X128866209Y-155182006D02*
X128999614Y-155382114D01*
X128999614Y-155382114D02*
X129066317Y-155648924D01*
X129066317Y-155648924D02*
X129066317Y-156182546D01*
X129066317Y-156182546D02*
X128999614Y-156315951D01*
X128999614Y-156315951D02*
X128932912Y-156382654D01*
X128932912Y-156382654D02*
X128799506Y-156449356D01*
X128799506Y-156449356D02*
X128532696Y-156449356D01*
X128532696Y-156449356D02*
X128399290Y-156382654D01*
X128399290Y-156382654D02*
X128332588Y-156315951D01*
X128332588Y-156315951D02*
X128265885Y-156182546D01*
X128265885Y-156182546D02*
X128265885Y-155849032D01*
X128265885Y-155849032D02*
X128332588Y-155715627D01*
X128332588Y-155715627D02*
X128399290Y-155648924D01*
X128399290Y-155648924D02*
X128532696Y-155582222D01*
X128532696Y-155582222D02*
X128799506Y-155582222D01*
X128799506Y-155582222D02*
X128932912Y-155648924D01*
X128932912Y-155648924D02*
X128999614Y-155715627D01*
X128999614Y-155715627D02*
X129066317Y-155849032D01*
X130590870Y-137399356D02*
X130590870Y-135998600D01*
X130590870Y-135998600D02*
X130257357Y-135998600D01*
X130257357Y-135998600D02*
X130057249Y-136065303D01*
X130057249Y-136065303D02*
X129923844Y-136198708D01*
X129923844Y-136198708D02*
X129857141Y-136332114D01*
X129857141Y-136332114D02*
X129790438Y-136598924D01*
X129790438Y-136598924D02*
X129790438Y-136799032D01*
X129790438Y-136799032D02*
X129857141Y-137065843D01*
X129857141Y-137065843D02*
X129923844Y-137199248D01*
X129923844Y-137199248D02*
X130057249Y-137332654D01*
X130057249Y-137332654D02*
X130257357Y-137399356D01*
X130257357Y-137399356D02*
X130590870Y-137399356D01*
X128523088Y-135998600D02*
X129190114Y-135998600D01*
X129190114Y-135998600D02*
X129256817Y-136665627D01*
X129256817Y-136665627D02*
X129190114Y-136598924D01*
X129190114Y-136598924D02*
X129056709Y-136532222D01*
X129056709Y-136532222D02*
X128723196Y-136532222D01*
X128723196Y-136532222D02*
X128589790Y-136598924D01*
X128589790Y-136598924D02*
X128523088Y-136665627D01*
X128523088Y-136665627D02*
X128456385Y-136799032D01*
X128456385Y-136799032D02*
X128456385Y-137132546D01*
X128456385Y-137132546D02*
X128523088Y-137265951D01*
X128523088Y-137265951D02*
X128589790Y-137332654D01*
X128589790Y-137332654D02*
X128723196Y-137399356D01*
X128723196Y-137399356D02*
X129056709Y-137399356D01*
X129056709Y-137399356D02*
X129190114Y-137332654D01*
X129190114Y-137332654D02*
X129256817Y-137265951D01*
X130400370Y-118349356D02*
X130400370Y-116948600D01*
X130400370Y-116948600D02*
X130066857Y-116948600D01*
X130066857Y-116948600D02*
X129866749Y-117015303D01*
X129866749Y-117015303D02*
X129733344Y-117148708D01*
X129733344Y-117148708D02*
X129666641Y-117282114D01*
X129666641Y-117282114D02*
X129599938Y-117548924D01*
X129599938Y-117548924D02*
X129599938Y-117749032D01*
X129599938Y-117749032D02*
X129666641Y-118015843D01*
X129666641Y-118015843D02*
X129733344Y-118149248D01*
X129733344Y-118149248D02*
X129866749Y-118282654D01*
X129866749Y-118282654D02*
X130066857Y-118349356D01*
X130066857Y-118349356D02*
X130400370Y-118349356D01*
X128399290Y-117415519D02*
X128399290Y-118349356D01*
X128732804Y-116881898D02*
X129066317Y-117882438D01*
X129066317Y-117882438D02*
X128199182Y-117882438D01*
X130590870Y-99299356D02*
X130590870Y-97898600D01*
X130590870Y-97898600D02*
X130257357Y-97898600D01*
X130257357Y-97898600D02*
X130057249Y-97965303D01*
X130057249Y-97965303D02*
X129923844Y-98098708D01*
X129923844Y-98098708D02*
X129857141Y-98232114D01*
X129857141Y-98232114D02*
X129790438Y-98498924D01*
X129790438Y-98498924D02*
X129790438Y-98699032D01*
X129790438Y-98699032D02*
X129857141Y-98965843D01*
X129857141Y-98965843D02*
X129923844Y-99099248D01*
X129923844Y-99099248D02*
X130057249Y-99232654D01*
X130057249Y-99232654D02*
X130257357Y-99299356D01*
X130257357Y-99299356D02*
X130590870Y-99299356D01*
X129323520Y-97898600D02*
X128456385Y-97898600D01*
X128456385Y-97898600D02*
X128923304Y-98432222D01*
X128923304Y-98432222D02*
X128723196Y-98432222D01*
X128723196Y-98432222D02*
X128589790Y-98498924D01*
X128589790Y-98498924D02*
X128523088Y-98565627D01*
X128523088Y-98565627D02*
X128456385Y-98699032D01*
X128456385Y-98699032D02*
X128456385Y-99032546D01*
X128456385Y-99032546D02*
X128523088Y-99165951D01*
X128523088Y-99165951D02*
X128589790Y-99232654D01*
X128589790Y-99232654D02*
X128723196Y-99299356D01*
X128723196Y-99299356D02*
X129123412Y-99299356D01*
X129123412Y-99299356D02*
X129256817Y-99232654D01*
X129256817Y-99232654D02*
X129323520Y-99165951D01*
X130400370Y-80249356D02*
X130400370Y-78848600D01*
X130400370Y-78848600D02*
X130066857Y-78848600D01*
X130066857Y-78848600D02*
X129866749Y-78915303D01*
X129866749Y-78915303D02*
X129733344Y-79048708D01*
X129733344Y-79048708D02*
X129666641Y-79182114D01*
X129666641Y-79182114D02*
X129599938Y-79448924D01*
X129599938Y-79448924D02*
X129599938Y-79649032D01*
X129599938Y-79649032D02*
X129666641Y-79915843D01*
X129666641Y-79915843D02*
X129733344Y-80049248D01*
X129733344Y-80049248D02*
X129866749Y-80182654D01*
X129866749Y-80182654D02*
X130066857Y-80249356D01*
X130066857Y-80249356D02*
X130400370Y-80249356D01*
X129066317Y-78982006D02*
X128999614Y-78915303D01*
X128999614Y-78915303D02*
X128866209Y-78848600D01*
X128866209Y-78848600D02*
X128532696Y-78848600D01*
X128532696Y-78848600D02*
X128399290Y-78915303D01*
X128399290Y-78915303D02*
X128332588Y-78982006D01*
X128332588Y-78982006D02*
X128265885Y-79115411D01*
X128265885Y-79115411D02*
X128265885Y-79248816D01*
X128265885Y-79248816D02*
X128332588Y-79448924D01*
X128332588Y-79448924D02*
X129133020Y-80249356D01*
X129133020Y-80249356D02*
X128265885Y-80249356D01*
D11*
%TO.C,D1*%
X129845000Y-63808000D02*
X129845000Y-64208000D01*
X132045000Y-65408000D02*
X130845000Y-65408000D01*
X132045000Y-62608000D02*
X130845000Y-62608000D01*
X133045000Y-63808000D02*
X133045000Y-64208000D01*
D12*
%TO.C,C2*%
X131196733Y-58926000D02*
X131489267Y-58926000D01*
X131196733Y-59946000D02*
X131489267Y-59946000D01*
%TO.C,C3*%
X131106733Y-77074250D02*
X131399267Y-77074250D01*
X131106733Y-78094250D02*
X131399267Y-78094250D01*
%TO.C,C4*%
X131297233Y-95743250D02*
X131589767Y-95743250D01*
X131297233Y-96763250D02*
X131589767Y-96763250D01*
%TO.C,C5*%
X131106733Y-115174250D02*
X131399267Y-115174250D01*
X131106733Y-116194250D02*
X131399267Y-116194250D01*
%TO.C,C6*%
X131297233Y-133652750D02*
X131589767Y-133652750D01*
X131297233Y-134672750D02*
X131589767Y-134672750D01*
%TO.C,C7*%
X131106733Y-153274250D02*
X131399267Y-153274250D01*
X131106733Y-154294250D02*
X131399267Y-154294250D01*
%TO.C,SW1*%
X109616000Y-57025650D02*
X109616000Y-70995650D01*
X109616000Y-70995650D02*
X123586000Y-70995650D01*
X123586000Y-57025650D02*
X109616000Y-57025650D01*
X123586000Y-70995650D02*
X123586000Y-57025650D01*
%TO.C,SW2*%
X109616000Y-76075650D02*
X109616000Y-90045650D01*
X109616000Y-90045650D02*
X123586000Y-90045650D01*
X123586000Y-76075650D02*
X109616000Y-76075650D01*
X123586000Y-90045650D02*
X123586000Y-76075650D01*
%TO.C,SW3*%
X109616000Y-95125650D02*
X109616000Y-109095650D01*
X109616000Y-109095650D02*
X123586000Y-109095650D01*
X123586000Y-95125650D02*
X109616000Y-95125650D01*
X123586000Y-109095650D02*
X123586000Y-95125650D01*
%TO.C,SW4*%
X109616000Y-114175650D02*
X109616000Y-128145650D01*
X109616000Y-128145650D02*
X123586000Y-128145650D01*
X123586000Y-114175650D02*
X109616000Y-114175650D01*
X123586000Y-128145650D02*
X123586000Y-114175650D01*
%TO.C,SW5*%
X109616000Y-133225650D02*
X109616000Y-147195650D01*
X109616000Y-147195650D02*
X123586000Y-147195650D01*
X123586000Y-133225650D02*
X109616000Y-133225650D01*
X123586000Y-147195650D02*
X123586000Y-133225650D01*
%TO.C,SW6*%
X109616000Y-152275650D02*
X109616000Y-166245650D01*
X109616000Y-166245650D02*
X123586000Y-166245650D01*
X123586000Y-152275650D02*
X109616000Y-152275650D01*
X123586000Y-166245650D02*
X123586000Y-152275650D01*
D11*
%TO.C,D6*%
X132854500Y-159058000D02*
X132854500Y-159458000D01*
X131854500Y-157858000D02*
X130654500Y-157858000D01*
X131854500Y-160658000D02*
X130654500Y-160658000D01*
X129654500Y-159058000D02*
X129654500Y-159458000D01*
%TO.C,D5*%
X133045000Y-140008000D02*
X133045000Y-140408000D01*
X132045000Y-138808000D02*
X130845000Y-138808000D01*
X132045000Y-141608000D02*
X130845000Y-141608000D01*
X129845000Y-140008000D02*
X129845000Y-140408000D01*
%TO.C,D4*%
X132854500Y-120958000D02*
X132854500Y-121358000D01*
X131854500Y-119758000D02*
X130654500Y-119758000D01*
X131854500Y-122558000D02*
X130654500Y-122558000D01*
X129654500Y-120958000D02*
X129654500Y-121358000D01*
%TO.C,D3*%
X133045000Y-101908000D02*
X133045000Y-102308000D01*
X132045000Y-100708000D02*
X130845000Y-100708000D01*
X132045000Y-103508000D02*
X130845000Y-103508000D01*
X129845000Y-101908000D02*
X129845000Y-102308000D01*
%TO.C,D2*%
X132854500Y-82858000D02*
X132854500Y-83258000D01*
X131854500Y-81658000D02*
X130654500Y-81658000D01*
X131854500Y-84458000D02*
X130654500Y-84458000D01*
X129654500Y-82858000D02*
X129654500Y-83258000D01*
%TD*%
M02*
