M48
; DRILL file {KiCad 9.0.7-1.fc43} date 2026-04-03T17:31:43+0200
; FORMAT={-:-/ absolute / metric / decimal}
; #@! TF.CreationDate,2026-04-03T17:31:43+02:00
; #@! TF.GenerationSoftware,Kicad,Pcbnew,9.0.7-1.fc43
; #@! TF.FileFunction,NonPlated,1,2,NPTH
FMAT,2
METRIC
; #@! TA.AperFunction,NonPlated,NPTH,ComponentDrill
T1C1.700
; #@! TA.AperFunction,NonPlated,NPTH,ComponentDrill
T2C3.200
; #@! TA.AperFunction,NonPlated,NPTH,ComponentDrill
T3C4.000
%
G90
G05
T1
X111.521Y-64.011
X111.521Y-83.061
X111.521Y-102.111
X111.521Y-121.161
X111.521Y-140.211
X111.521Y-159.261
X121.681Y-64.011
X121.681Y-83.061
X121.681Y-102.111
X121.681Y-121.161
X121.681Y-140.211
X121.681Y-159.261
T2
X110.0Y-49.0
X110.299Y-174.0
X140.0Y-49.0
X140.0Y-174.0
T3
X116.601Y-64.011
X116.601Y-83.061
X116.601Y-102.111
X116.601Y-121.161
X116.601Y-140.211
X116.601Y-159.261
M30
